STARTFONT 2.1
FONT HAN-GB2312
SIZE 14 72 72
FONTBOUNDINGBOX 14 14 0 0
STARTPROPERTIES 1
BITCOUNT 8
ENDPROPERTIES
CHARS 6989
STARTCHAR  00A4
ENCODING  164
SWIDTH  1000 0
DWIDTH  15 0
BBX  9 9 3 -1
BITMAP
000000000000000000
10E060E0FFC060C000
00A0F0603080FF6000
00F04000000080C000
20FF0000000030F000
10F03000000060E000
00A0E0301040F06000
10E0A0F0FFF0A0E000
001000103000001000
ENDCHAR
STARTCHAR  00A7
ENCODING  167
SWIDTH  1000 0
DWIDTH  15 0
BBX  7 10 4 -1
BITMAP
00004060200000
00C0C080E0A000
20FF1000106000
00A0E080300000
0080F0C0E0A000
30FF400030F000
00FFFFFFF06000
00202060E08000
40F0401060F000
0060E0FFE06000
ENDCHAR
STARTCHAR  00A8
ENCODING  168
SWIDTH  1000 0
DWIDTH  14 0
BBX  5 3 4 7
BITMAP
0000000000
00E060A0A0
0020101010
ENDCHAR
STARTCHAR  00B0
ENCODING  176
SWIDTH  1000 0
DWIDTH  14 0
BBX  3 4 1 4
BITMAP
A0E020
E04060
C0FF40
002000
ENDCHAR
STARTCHAR  00B1
ENCODING  177
SWIDTH  1000 0
DWIDTH  14 0
BBX  7 10 3 -2
BITMAP
000020E0000000
000030FF000000
000030FF000000
FFFFFFFFFFFFFF
303060FF303030
000030FF000000
000030FF000000
00000020000000
FFFFFFFFFFFFFF
30303030303030
ENDCHAR
STARTCHAR  00B7
ENCODING  183
SWIDTH  1000 0
DWIDTH  14 0
BBX  3 3 6 2
BITMAP
101000
E0E000
C0E000
ENDCHAR
STARTCHAR  00D7
ENCODING  215
SWIDTH  1000 0
DWIDTH  14 0
BBX  8 9 3 -1
BITMAP
0000000000000000
60A000000020E030
10E0A00020E0A000
0010E0C0E0A00000
000030FFFF000000
0010E0C0E0A00000
10E0A00020E0A000
60A000000020E030
0000000000000000
ENDCHAR
STARTCHAR  00F7
ENCODING  247
SWIDTH  1000 0
DWIDTH  14 0
BBX  8 8 3 0
BITMAP
000010A000000000
000010E000000000
0000000000000000
FFFFFFFFFFFFFFFF
3030303030303030
0000000000000000
000020E000000000
0000002000000000
ENDCHAR
STARTCHAR  02C7
ENCODING  711
SWIDTH  1000 0
DWIDTH  14 0
BBX  4 4 5 7
BITMAP
00000000
A060A080
30FFE010
00201000
ENDCHAR
STARTCHAR  2014
ENCODING  8212
SWIDTH  1000 0
DWIDTH  14 0
BBX  14 2 0 3
BITMAP
80FFFFFFFFFFFFFFFFFFFFFFFFA0
1030303030303030303030303020
ENDCHAR
STARTCHAR  2018
ENCODING  8216
SWIDTH  1000 0
DWIDTH  14 0
BBX  3 4 8 5
BITMAP
002010
00A080
00F040
003000
ENDCHAR
STARTCHAR  2019
ENCODING  8217
SWIDTH  1000 0
DWIDTH  14 0
BBX  3 4 2 5
BITMAP
002010
00A080
00F040
003000
ENDCHAR
STARTCHAR  201C
ENCODING  8220
SWIDTH  1000 0
DWIDTH  14 0
BBX  4 4 8 5
BITMAP
10203010
80A0E060
20F080A0
00401010
ENDCHAR
STARTCHAR  201D
ENCODING  8221
SWIDTH  1000 0
DWIDTH  14 0
BBX  4 4 1 5
BITMAP
10402010
40E0A080
A0A0F030
10102000
ENDCHAR
STARTCHAR  2026
ENCODING  8230
SWIDTH  1000 0
DWIDTH  9 0
BBX  8 3 0 2
BITMAP
0000000000000000
20E00020E00020E0
0020000020000020
ENDCHAR
STARTCHAR  2030
ENCODING  8240
SWIDTH  1000 0
DWIDTH  14 0
BBX  10 10 1 -2
BITMAP
00A0F080208000000000
20FF80F0806000000000
20FF60F0E01000000000
00E0FFE0A00000000000
00003080600000000000
000000E080FF8080FF80
000040A0F060F0F060F0
0000A040F080F0F080F0
0000C00080FF8080FF80
00000000000000000000
ENDCHAR
STARTCHAR  2032
ENCODING  8242
SWIDTH  1000 0
DWIDTH  7 0
BBX  3 4 1 5
BITMAP
002020
00C0A0
40F010
808000
ENDCHAR
STARTCHAR  2033
ENCODING  8243
SWIDTH  1000 0
DWIDTH  7 0
BBX  6 4 1 5
BITMAP
002020004000
00C0A080E000
40F030F06000
808040A00000
ENDCHAR
STARTCHAR  2103
ENCODING  8451
SWIDTH  1000 0
DWIDTH  14 0
BBX  10 11 2 -2
BITMAP
40C04000000000000000
C010A010A0F0F0A02000
80C080E0A03030A0E010
000080C0000000004000
0000E040000000000000
0000FF20000000000000
0000E040000000000000
0000A0A0000000002000
000010E0A0101080F020
00000020C0FFFFC03000
00000000001010000000
ENDCHAR
STARTCHAR  2116
ENCODING  8470
SWIDTH  1000 0
DWIDTH  7 0
BBX  0 0 0 0
BITMAP
ENDCHAR
STARTCHAR  2160
ENCODING  8544
SWIDTH  1000 0
DWIDTH  14 0
BBX  5 9 4 -1
BITMAP
40FFFFFF10
1060FF3000
0030FF0000
0030FF0000
0030FF0000
0030FF0000
0030FF0000
1060FF3000
40FFFFFF10
ENDCHAR
STARTCHAR  2161
ENCODING  8545
SWIDTH  1000 0
DWIDTH  14 0
BBX  8 9 3 -1
BITMAP
E0FFFFFFFFFFFFA0
3060FF3060FF3020
0030FF0030FF0000
0030FF0030FF0000
0030FF0030FF0000
0030FF0030FF0000
0030FF0030FF0000
3060FF3060FF3020
E0FFFFFFFFFFFFA0
ENDCHAR
STARTCHAR  2162
ENCODING  8546
SWIDTH  1000 0
DWIDTH  13 0
BBX  8 10 2 -2
BITMAP
20C0FFC0FFC0FFA0
0030FF30FF30FF00
0030FF30FF30FF00
0030FF30FF30FF00
0030FF30FF30FF00
0030FF30FF30FF00
0030FF30FF30FF00
1060FF60FF60FF30
30FFFFFFFFFFFFFF
0000000000000000
ENDCHAR
STARTCHAR  2163
ENCODING  8547
SWIDTH  1000 0
DWIDTH  14 0
BBX  11 11 2 -3
BITMAP
FFFFFF00FF8000000080FF
60FF300080C0000000C080
30FF000020F0000000F020
30FF000000E0400040E000
30FF000000A0800080A000
30FF00000060C000C06000
30FF00000020F010FF2000
30FF00000000E080E00000
FFFFFF000000A0FFA00000
FFFFFF00000060FF600000
0000000000000000000000
ENDCHAR
STARTCHAR  2164
ENCODING  8548
SWIDTH  1000 0
DWIDTH  14 0
BBX  8 10 3 -2
BITMAP
FFA000000000A0FF
60E000000000E060
00F030000030F000
00A080000080A000
0060E00000E06000
0010FF1020FF1000
0000E06060C00000
000080A0A0800000
000030FFFF300000
000000F0F0000000
ENDCHAR
STARTCHAR  2165
ENCODING  8549
SWIDTH  1000 0
DWIDTH  15 0
BBX  11 11 2 -3
BITMAP
FF8000000080FF00FFFFFF
80C0000000C0800060FF30
20F0000000F0300030FF00
00E0400040E0000030FF00
00A0800080A0000030FF00
0060C000C060000030FF00
0020F010FF20000030FF00
0000E080E000000030FF00
0000A0FFA0000000FFFFFF
000060FF60000000FFFFFF
0000000000000000000000
ENDCHAR
STARTCHAR  2166
ENCODING  8550
SWIDTH  1000 0
DWIDTH  14 0
BBX  12 11 1 -3
BITMAP
FF60000060FFFFFFFFFFFF10
A0A00000A0A060FF60FF3000
60C00000C06030FF30FF0000
30F00000F03030FF30FF0000
00F03030F00030FF30FF0000
00C06060C00030FF30FF0000
0080A0A0800030FF30FF0000
0040E0E0400030FF30FF0000
0010FFFF100030FF30FF0000
0000FFFF0000FFFFFFFFFF10
000000000000000000000000
ENDCHAR
STARTCHAR  2167
ENCODING  8551
SWIDTH  1000 0
DWIDTH  14 0
BBX  12 11 1 -3
BITMAP
FF60000060FFFFFFFFFFFFE0
C0A00000A0C060FFFF60FF30
60E00000E06030FFFF30FF00
30FF1000FF3030FFFF30FF00
00F04030F00030FFFF30FF00
00C06060C00030FFFF30FF00
0080A0A0800030FFFF30FF00
0040E0E0400030FFFF30FF00
0010FFFF100030FFFF30FF00
0000FFFF0000FFFFFFFFFFE0
000000000000000000000000
ENDCHAR
STARTCHAR  2168
ENCODING  8552
SWIDTH  1000 0
DWIDTH  14 0
BBX  11 11 2 -3
BITMAP
FFFFFF00FF40000040FF00
60FF300080E00000E08000
30FF000010E06080E01000
30FF00000060FFFF400000
30FF00000000FFFF000000
30FF00000040FFFF200000
30FF000000E080A0A00000
30FF000060E01020F03000
FFFFFF10F060000080C000
FFFFFF60C000000010E020
0000000010000000001000
ENDCHAR
STARTCHAR  2169
ENCODING  8553
SWIDTH  1000 0
DWIDTH  14 0
BBX  10 10 2 -2
BITMAP
00FF600000000060FF00
0060FF40000040FF6000
000080F02020F0800000
000000C0E0E0C0000000
00000010FFFF10000000
00000060FFFF60000000
000040FF4040F0400000
0020E080000080E02000
00C0A000000000A0C000
20C0100000000010C020
ENDCHAR
STARTCHAR  216A
ENCODING  8554
SWIDTH  1000 0
DWIDTH  14 0
BBX  11 11 1 -3
BITMAP
00FF40000040FF00FFFFFF
0080E00000E0800060FF30
0010E06060E0100030FF00
000040FFFF60000030FF00
000000FFFF00000030FF00
000020FFFF30000030FF00
0000A0A080E0000030FF00
0030F02010E0600030FF00
00C080000060F010FFFFFF
20E010000000C060FFFFFF
0010000000001000000000
ENDCHAR
STARTCHAR  216B
ENCODING  8555
SWIDTH  1000 0
DWIDTH  14 0
BBX  12 11 1 -3
BITMAP
00FF30000040FFE0FFFFFFC0
00A0C00000C0A040FF60FF20
0010F04040F01030FF30FF00
000080E0E0600030FF30FF00
000010FFFF000030FF30FF00
000010FFFF000030FF30FF00
000080E0E0600030FF30FF00
0010F04060E00030FF30FF00
0080C00000E08030FF30FF00
20F030000040F0F0FFFFFFC0
106000000000600000000000
ENDCHAR
STARTCHAR  2170
ENCODING  8560
SWIDTH  1000 0
DWIDTH  15 0
BBX  2 8 6 0
BITMAP
30FF
1030
30FF
30FF
30FF
30FF
30FF
30FF
ENDCHAR
STARTCHAR  2171
ENCODING  8561
SWIDTH  1000 0
DWIDTH  13 0
BBX  4 8 4 0
BITMAP
30FF30FF
10301030
30FF30FF
30FF30FF
30FF30FF
30FF30FF
30FF30FF
30FF30FF
ENDCHAR
STARTCHAR  2172
ENCODING  8562
SWIDTH  1000 0
DWIDTH  15 0
BBX  8 8 3 0
BITMAP
30FF0030FF0030FF
1030001030001030
30FF0030FF0030FF
30FF0030FF0030FF
30FF0030FF0030FF
30FF0030FF0030FF
30FF0030FF0030FF
30FF0030FF0030FF
ENDCHAR
STARTCHAR  2173
ENCODING  8563
SWIDTH  1000 0
DWIDTH  14 0
BBX  8 9 3 -1
BITMAP
30FF000000000000
1030000000000000
30FFFF60000060FF
30FFA0C00000C0A0
30FF20FF3030FF20
30FF00A0A0A0A000
30FF0040FFFF4000
30FF0000F0F00000
0000000000000000
ENDCHAR
STARTCHAR  2174
ENCODING  8564
SWIDTH  1000 0
DWIDTH  15 0
BBX  6 8 4 -1
BITMAP
000000000000
FF60000060FF
A0C00000C0A0
20FF2020FF20
00C08080C000
0060F0F04000
0000FFFF0000
000020200000
ENDCHAR
STARTCHAR  2175
ENCODING  8565
SWIDTH  1000 0
DWIDTH  14 0
BBX  8 8 2 -1
BITMAP
00000000000030FF
0000000000001030
FF60000060FF30FF
A0C00000C0A030FF
20FF3030FF2030FF
00A0A0A0A00030FF
0040FFFF400030FF
0000E0E0000030FF
ENDCHAR
STARTCHAR  2176
ENCODING  8566
SWIDTH  1000 0
DWIDTH  14 0
BBX  9 8 2 -1
BITMAP
000000000030FF30FF
000000000010301030
FF300030FF30FF30FF
A0800080A030FF30FF
40E000E04030FF30FF
00E060E00030FF30FF
00A0FFA00030FF30FF
0040FF400030FF30FF
ENDCHAR
STARTCHAR  2177
ENCODING  8567
SWIDTH  1000 0
DWIDTH  14 0
BBX  10 9 2 -1
BITMAP
0000000000FF30FF30FF
00000000003010301030
FF400040FFFF30FF30FF
C0A000A0C0FF30FF30FF
60E000F060FF30FF30FF
10F080F000FF30FF30FF
00A0FFA000FF30FF30FF
0040FF4000FF30FF30FF
00000000000000000000
ENDCHAR
STARTCHAR  2178
ENCODING  8568
SWIDTH  1000 0
DWIDTH  15 0
BBX  9 9 3 -2
BITMAP
30FF00000000000000
103000000000000000
30FF00FF400040FF00
30FF0080F060F08000
30FF0000A0FFA00000
30FF0000C0FFC00000
30FF0080E030E08000
30FF10E0300030E010
000000000000000000
ENDCHAR
STARTCHAR  2179
ENCODING  8569
SWIDTH  1000 0
DWIDTH  15 0
BBX  7 8 4 -1
BITMAP
00000000000000
00FF400040FF00
0080F040F08000
0000A0FFA00000
0000C0FFC00000
0080F040F08000
10F0400040F010
00100000001000
ENDCHAR
STARTCHAR  221E
ENCODING  8734
SWIDTH  1000 0
DWIDTH  14 0
BBX  10 4 2 1
BITMAP
40E0F0C02020A0F0E040
E0300060FFFF600030E0
E0401060FFFF801040E0
40E0F0A02020A0F0E040
ENDCHAR
STARTCHAR  2234
ENCODING  8756
SWIDTH  1000 0
DWIDTH  14 0
BBX  7 7 4 0
BITMAP
000080A0000000
0000A0E0000000
00000000000000
00000000000000
00000000000000
A080000060C010
E0A0000080E010
ENDCHAR
STARTCHAR  2235
ENCODING  8757
SWIDTH  1000 0
DWIDTH  14 0
BBX  6 7 3 0
BITMAP
80A0000080A0
A0E00000A0E0
000000000000
000000000000
000000000000
000080A00000
0000A0E00000
ENDCHAR
STARTCHAR  2460
ENCODING  9312
SWIDTH  1000 0
DWIDTH  14 0
BBX  11 9 1 -1
BITMAP
00000060E0F0F0C0600000
0010C0E0F0FF4080F0A000
00A0E010A0FF000020E060
10FF300030FF00000060E0
20FF000030FF00000030F0
10FF300030FF00000060E0
00A0E01030FF000020E060
0010E0E0A0FF4080F0A000
00000080E0F0F0C0600000
ENDCHAR
STARTCHAR  2461
ENCODING  9313
SWIDTH  1000 0
DWIDTH  14 0
BBX  11 9 1 -1
BITMAP
00000060FFFFFFFF600000
0010C0E0FF80E0FFF0A000
00A0E010600040E020E060
10FF30000010C0600060E0
20FF000000C060000030F0
10FF3000A06000000060E0
00A0E020FFFFFFFF40E060
0010E0E0A06080C0F0A000
00000080E0F0F0C0600000
ENDCHAR
STARTCHAR  2462
ENCODING  9314
SWIDTH  1000 0
DWIDTH  14 0
BBX  11 9 1 -1
BITMAP
00000080E0F0F0C0600000
0010E0E080406080F0A000
00A0E010400020E020E060
10FF300000F0FFC00060E0
20FF0000000010A00030F0
10FF3000A00000800060E0
00A0E01060C0A06020E060
0010E0E080404080F0A000
00000080E0F0F0C0600000
ENDCHAR
STARTCHAR  2463
ENCODING  9315
SWIDTH  1000 0
DWIDTH  14 0
BBX  11 9 1 -1
BITMAP
00000060E0FFFFC0600000
0010E0E080FFFF80F0A000
00A0E0108080FF0020E060
10FF3010C030FF000060E0
20FF00606030FF000030F0
10FF30A0FFFFFFC00060E0
00A0E0303060FF2020E060
0010E0E080404080F0A000
00000080E0F0F0C0600000
ENDCHAR
STARTCHAR  2464
ENCODING  9316
SWIDTH  1000 0
DWIDTH  14 0
BBX  11 9 1 -1
BITMAP
00000080E0F0F0C0600000
0010E0E0C0FFFFF0F0A000
00A0E0108080301020E060
10FF3000A08060000060E0
20FF0000604040800030F0
10FF3000600000800060E0
00A0E0108080604020E060
0010E0E080404080F0A000
00000080E0F0F0C0600000
ENDCHAR
STARTCHAR  2465
ENCODING  9317
SWIDTH  1000 0
DWIDTH  14 0
BBX  11 9 1 -1
BITMAP
00000060E0F0F0C0600000
0010C0E080406080F0A000
00A0E01000A0300020E060
10FF3000A0FFE0400060E0
20FF0010FF8080E00030F0
10FF3020FF3060F00060E0
00A0E010A0FFFF6020E080
0010E0E080606080F0A000
00000080E0F0F0C0600000
ENDCHAR
STARTCHAR  2466
ENCODING  9318
SWIDTH  1000 0
DWIDTH  14 0
BBX  11 9 1 -1
BITMAP
00000060E0F0F0C0600000
0010C0E0FFFFFFFFF0A000
00A0E0102030806020E060
10FF30000000A0100060E0
20FF00000010C0000030F0
10FF3000006060000060E0
00A0E01000A0200020E060
0010E0E080404080F0A000
00000080E0F0F0C0600000
ENDCHAR
STARTCHAR  2467
ENCODING  9319
SWIDTH  1000 0
DWIDTH  14 0
BBX  11 9 1 -1
BITMAP
00000060FFFFFFFF600000
0010E0F0FFA0E0FFF0A000
00A0E030FF3060F020E060
10FF3000E0FFFFA00060E0
20FF0010F080A0E00030F0
10FF3020FF0030F00060E0
00A0E010E04080C020E060
0010C0E0A0F0F0A0F0A000
00000060E0F0F0C0600000
ENDCHAR
STARTCHAR  2468
ENCODING  9320
SWIDTH  1000 0
DWIDTH  14 0
BBX  11 9 1 -1
BITMAP
00000080E0F0F0C0600000
0010E0E0E0FFFFC0F0A000
00A0E020FF6080E020E060
10FF3020FF3080FF0060E0
20FF0000A0FFFFC00030F0
10FF30000030E0000060E0
00A0E0100060600020E060
0010E0E060604080F0A000
00000060E0F0F0C0600000
ENDCHAR
STARTCHAR  2469
ENCODING  9321
SWIDTH  1000 0
DWIDTH  14 0
BBX  11 9 1 -1
BITMAP
000000F0FFFFFFFF800000
0010E0FFFFE0E0FFFFA000
00A0E060FFE02040FFE060
10FF3030FFFF0030F060E0
20FF0030FFFF0030F030F0
10FF3030FFE01040E060E0
00A0E040FFA060A0A0E060
0010E0FFFF40F0FFFFA000
00000080E0F0F0C0600000
ENDCHAR
STARTCHAR  2474
ENCODING  9332
SWIDTH  1000 0
DWIDTH  14 0
BBX  12 10 1 -2
BITMAP
002040000000000000006000
0080800000A0FF000000E020
00E0300030C0FF000000A060
00F000000030FF00000060A0
10E000000030FF00000040C0
10F000000030FF00000040A0
00F010000030FF0000006080
00A060000030FF000000C060
0060A000000000000010E010
000000000000000000000000
ENDCHAR
STARTCHAR  2475
ENCODING  9333
SWIDTH  1000 0
DWIDTH  14 0
BBX  12 10 1 -2
BITMAP
002000000000000000101000
00E02000A0F0E04000A08000
30C00060C040A0E00040C000
60800060300040F00000F000
806000000020E0600000E020
8060000030E060000000E020
80800040E04000000000F010
40C000A0FFFFFFFF2030E000
00F020203030303000808000
003000000000000000201000
ENDCHAR
STARTCHAR  2476
ENCODING  9334
SWIDTH  1000 0
DWIDTH  14 0
BBX  12 10 1 -2
BITMAP
002020000000000000203000
00A0600060E0F0600060C000
00F01000C04040F01010F000
20E00000000020F02000E030
30C0000000FFFFFF0000A040
40C00000004060E03000A040
20E00030400000A06000C030
00F01020E06060E02000F010
00A0600030A0A0300060C000
002020000000000000203000
ENDCHAR
STARTCHAR  2477
ENCODING  9335
SWIDTH  1000 0
DWIDTH  14 0
BBX  12 9 1 -1
BITMAP
006010000000000000602000
10F010000080FF0000808000
40A0000030F0FF000030C000
80800000C080FF000000F000
80600040C030FF000000F000
806000E03030FF000000F000
60A030FFFFFFFFE00020E000
20E010303060FF300080A000
00A020000000000000803000
ENDCHAR
STARTCHAR  2478
ENCODING  9336
SWIDTH  1000 0
DWIDTH  14 0
BBX  12 10 1 -2
BITMAP
00A010000000000000301000
20E00000C0FFFF8000A06000
60A00000F04030200040C000
80800020E02000000010E000
A0600040FFF0F0400000F000
A0600000400040E00000F000
80800040300010FF0010F000
40C00040E060C0A00040C000
00E0100060A0801000A06000
003000000000000000301000
ENDCHAR
STARTCHAR  2479
ENCODING  9337
SWIDTH  1000 0
DWIDTH  15 0
BBX  13 10 1 -2
BITMAP
00606000000040100000601000
00A060000030F0100000A06000
00F0100000C08000000060A000
10E0000080FFFFC0200020E000
30E00000FFFF40C0C00000F000
20E00020FF100030F00010F000
10F00010F06010A0E00020E000
00C0300040F0FFE0300060A000
00608000001030000000C04000
00100000000000000000100000
ENDCHAR
STARTCHAR  247A
ENCODING  9338
SWIDTH  1000 0
DWIDTH  14 0
BBX  12 10 1 -2
BITMAP
006080000000000000306000
00A06010FFFFFFFF1020E000
00F01000303060C00000E020
10E00000000080600000A040
20E000000000E02000008060
20E000000030E0000000A060
00F00000008080000000C040
00C0400000E030000010F000
00608000002000000040A000
000000000000000000000000
ENDCHAR
STARTCHAR  247B
ENCODING  9339
SWIDTH  1000 0
DWIDTH  14 0
BBX  12 9 1 -1
BITMAP
002040000000000000204000
0080800080F0F0600020C000
00E02020FF6080F00000E010
00F00000F0FFFFFF2000C030
20E00000E0C060C0C000A040
10E00020FF100030F000C040
00F01010F06010A0E000E020
00A0600060F0FFE03010E000
004080000010300000306000
ENDCHAR
STARTCHAR  247C
ENCODING  9340
SWIDTH  1000 0
DWIDTH  14 0
BBX  12 10 1 -2
BITMAP
004060000000000000606000
00A0600060F0E0300060C000
00F01000F080A0C00010F000
10E00020FF0030F00000E030
30E00010FF40E0FF0000C040
30E0000080FFFFA00000C040
10E000000030F0000000E020
00E02000006080000020E000
00808000008020000080A000
001020000000000000202000
ENDCHAR
STARTCHAR  247D
ENCODING  9341
SWIDTH  1000 0
DWIDTH  14 0
BBX  12 9 1 -1
BITMAP
004080000000000000208000
00A060A0FF10C0FFC020E000
00E060E0FFA0A040E0A0E020
10F00030FFE0200060E0C040
10E00030FFFF000030FFA060
10F00030FFF0100040E0C040
00E01030FFA08010C0A0E020
00A06030FF20E0FFE020E000
004080103000003000206000
ENDCHAR
STARTCHAR  247E
ENCODING  9342
SWIDTH  1000 0
DWIDTH  14 0
BBX  11 10 2 -1
BITMAP
0000000000000000000000
20C000000000000000C010
808000A0FF00A0FF00A060
A04040C0FF40C0FF0060A0
E0200030FF0030FF0040C0
E0200030FF0030FF0030E0
E0300030FF0030FF0040C0
A0600030FF0030FF006080
60C00030FF0030FF00A040
0060000000000000006000
ENDCHAR
STARTCHAR  247F
ENCODING  9343
SWIDTH  1000 0
DWIDTH  14 0
BBX  11 9 2 -1
BITMAP
00A000000000000000A000
60C0A0FF00A0E0E040A060
A0A0A0FF60A00040E060A0
C04030FF10100060E040C0
E03030FF000040E03030E0
C03030FF0040E0300040C0
A06030FF40F060404060A0
60C030FF80FFFFFFFFC060
00A0000000000000008000
ENDCHAR
STARTCHAR  2480
ENCODING  9344
SWIDTH  1000 0
DWIDTH  14 0
BBX  12 10 1 -1
BITMAP
000000000000000000000000
002040000000000000606000
00806080FF10C0F08020C000
00E060F0FF608040C030E010
00E00040FF000010A040C030
10E00030FF00A0FFFF20A040
10E00030FF002060A0A0C030
00E01030FFA0100030A0E000
00A06030FF40A080A060C000
003060000000000000404000
ENDCHAR
STARTCHAR  2481
ENCODING  9345
SWIDTH  1000 0
DWIDTH  14 0
BBX  12 9 1 -1
BITMAP
00108000000000000020A000
006080A0FF000080FF00E010
00C080E0FF0010F0FF00A040
00E01030FF00A080FF008080
00E00030FF20E030FF006080
00E00030FFA06030FF006080
00C03030FFE0FFFFFFE0A040
00808030FF303060FF30E010
002080000000000000208000
ENDCHAR
STARTCHAR  2482
ENCODING  9346
SWIDTH  1000 0
DWIDTH  15 0
BBX  12 10 1 -1
BITMAP
000000000000000000000000
00408000000000000000E010
00A040A0FF00E0FFFF60A040
00E040E0FF00F03030106080
00E00030FF30E040200040A0
10E00030FF40F0A0E06030C0
00E00030FF00000040F040A0
00E01030FF80600060E08080
00806030FF10A0C0E030E030
002040000000000000006000
ENDCHAR
STARTCHAR  2483
ENCODING  9347
SWIDTH  1000 0
DWIDTH  14 0
BBX  12 9 1 -1
BITMAP
002060000000000000008000
00808080E00000C02000A030
00E040A0FF0080A000006080
00E00030FF40FFFFC02040A0
00E00030FFFFFF40C0C030C0
00E00030FFFF000030F030A0
00E01030FFE06010A0E06080
00A06030FF30F0FFE030A040
00308010300000300000A000
ENDCHAR
STARTCHAR  2484
ENCODING  9348
SWIDTH  1000 0
DWIDTH  14 0
BBX  12 10 1 -1
BITMAP
001000000000000000001000
006080000000000000608000
00C030A0FF80FFFFFF80E000
00E040E0FF103030E010E010
10E00030FF000020C000C030
20C00030FF0000608000C030
10E00030FF0000C02000C020
00E01030FF0010E00000E000
00808030FF0040800040A000
001020000000000000202000
ENDCHAR
STARTCHAR  2485
ENCODING  9349
SWIDTH  1000 0
DWIDTH  14 0
BBX  12 9 1 -1
BITMAP
004060000000000000606000
00A04080FF0080F06040E000
00E040F0FF10FF80E000F010
10E00040FF20FF60F000C030
20C00030FF30FFFFFF30A040
10E00030FFE08060A0E0C040
00E00030FFF0401080E0E010
00A04030FF60F0FFF080E000
004060103000103010606000
ENDCHAR
STARTCHAR  2486
ENCODING  9350
SWIDTH  1000 0
DWIDTH  14 0
BBX  12 10 1 -1
BITMAP
003060000000000000004000
008060000020C0FFC020A000
00E040C0FFC0A040C0C0E000
00E01060FFFF000030F0C030
10E00030FFE06010FFFFA040
10E00030FF40F0FFFF80A040
00E00030FF0010A0E000C030
00E01030FF0010E04000C000
00806030FF0040C00000A000
002040000000000000003000
ENDCHAR
STARTCHAR  2487
ENCODING  9351
SWIDTH  1000 0
DWIDTH  13 0
BBX  13 10 0 -2
BITMAP
00206000000000000000403000
00808040F0E04030E0E080A000
00C030E06080E0A080A0C0F000
00E010600040F0F01040E0E020
00E0000010E080FF0030FFC030
00E00010C08000F01040F0C030
00E010C0800000C060A0C0E010
00A080FFFFFFFF40FFF060E000
0040A030303030001010608000
00000000000000000000000000
ENDCHAR
STARTCHAR  2488
ENCODING  9352
SWIDTH  1000 0
DWIDTH  13 0
BBX  7 10 2 -2
BITMAP
0000A0FF000000
00A0F0FF000000
006040FF000000
000030FF000000
000030FF000000
000030FF000000
000030FF000000
000030FF000000
000030FF000020
000030FF0010E0
ENDCHAR
STARTCHAR  2489
ENCODING  9353
SWIDTH  1000 0
DWIDTH  14 0
BBX  9 10 2 -2
BITMAP
000080F0F0A0100000
0060E06040E0A00000
00E060000040F00000
006010000040E00000
0000000010C0800000
00000010C0C0000000
000000C0C000000000
0000C0C00000000000
00C0E0403030300020
00FFFFFFFFFFFF20E0
ENDCHAR
STARTCHAR  248A
ENCODING  9354
SWIDTH  1000 0
DWIDTH  14 0
BBX  9 11 2 -2
BITMAP
000000000000000000
000080F0FFC0200000
0080E06040C0E00000
002020000020FF1000
000000001080E00000
000040FFFFFF600000
0000103060C0F01000
000000000000E06000
10A000000000A06000
00E080000030E01020
0010A0E0E0C03010E0
ENDCHAR
STARTCHAR  248B
ENCODING  9355
SWIDTH  1000 0
DWIDTH  15 0
BBX  10 10 2 -2
BITMAP
00000000C0FF00000000
00000060FFFF00000000
000020F080FF00000000
0000C0C030FF00000000
0060F02030FF00000000
20F0600030FF00000000
C0C0000030FF00000000
FFFFFFFFFFFFFF000000
3030303060FF30000020
0000000030FF000010E0
ENDCHAR
STARTCHAR  248C
ENCODING  9356
SWIDTH  1000 0
DWIDTH  14 0
BBX  9 10 2 -2
BITMAP
0000F0FFFFFF600000
0020F0303030100000
0060C0000000000000
0080A0000000000000
00C0F0FFF0A0100000
0060A03060E0A00000
000000000060E00000
106000000040A00000
006010001040100020
0000106040000010E0
ENDCHAR
STARTCHAR  248D
ENCODING  9357
SWIDTH  1000 0
DWIDTH  14 0
BBX  9 10 2 -1
BITMAP
000000106000000000
00000080A000000000
000010F03000000000
0000A0A00000000000
0030FFFFF080000000
00FFFF4060E0800000
20FF30000040F00000
20FF20000040F00000
00C0C04060E0800020
0010A0F0F0800020E0
ENDCHAR
STARTCHAR  248E
ENCODING  9358
SWIDTH  1000 0
DWIDTH  14 0
BBX  7 10 3 -2
BITMAP
A0FFFFFFFFE000
20303030A0A000
00000000E04000
00000030E00000
00000080800000
000000E0300000
000030E0000000
00008080000020
0000E0300020E0
00001000000000
ENDCHAR
STARTCHAR  248F
ENCODING  9359
SWIDTH  1000 0
DWIDTH  14 0
BBX  10 9 1 -1
BITMAP
000040E0FFC030000000
0010F08040A0E0000000
0020FF400080E0000000
0010FFFFFFFF60000000
00C0C06080E080000000
20FF20000040F0000000
20FF20000040F0000000
00C0C04060E080000020
0010A0F0F080000020E0
ENDCHAR
STARTCHAR  2490
ENCODING  9360
SWIDTH  1000 0
DWIDTH  14 0
BBX  8 10 2 -2
BITMAP
0020C0F0F0A01000
00E0C04040E0A000
20FF10000040F000
10F0801010FFFF00
0040E0FFFFFF6000
00000020A0C00000
00000010F0400000
00000080C0000020
000000E0400000E0
0000004000000000
ENDCHAR
STARTCHAR  2491
ENCODING  9361
SWIDTH  1000 0
DWIDTH  14 0
BBX  12 10 0 -2
BITMAP
0000A0FF000080F0E0600000
00A0F0FF0080F04060F04000
006040FF00E060000080C000
000030FF20FF10000040E000
000030FF30FF00000030F000
000030FF20FF10000040F000
000030FF00F040000080C000
000030FF00A0E02030F06020
000030FF0010C0FFFFA000E0
000000000000002010000000
ENDCHAR
STARTCHAR  2492
ENCODING  9362
SWIDTH  1000 0
DWIDTH  13 0
BBX  10 10 0 -2
BITMAP
0000A0FF0000A0FF0000
00A0F0FF00C0F0FF0000
006040FF008040FF0000
000030FF000030FF0000
000030FF000030FF0000
000030FF000030FF0000
000030FF000030FF0000
000030FF000030FF0000
000030FF000030FF0020
000030FF000030FF20E0
ENDCHAR
STARTCHAR  2493
ENCODING  9363
SWIDTH  1000 0
DWIDTH  13 0
BBX  13 10 -1 -2
BITMAP
0000A0FF000080F0F0A0000000
00A0FFFF0060E06040E0A00000
00A060FF00E060000040F00000
000030FF008010000040F00000
000030FF0000000000C0A00000
000030FF00000000C0E0100000
000030FF000000C0C010000000
000030FF0000C0C01000000000
000030FF00A0E0403030300020
000030FF00FFFFFFFFFFFF20E0
ENDCHAR
STARTCHAR  2494
ENCODING  9364
SWIDTH  1000 0
DWIDTH  14 0
BBX  13 10 0 -1
BITMAP
00000000000000000000000000
0010C0FF0080E0FFE060000000
00C0E0FF60C0603060E0300000
001030FF0000000020E0400000
000030FF0030FFFFFFC0000000
000030FF00003060C0F0200000
000030FF0000000000C0800000
000030FF800000000080800000
000030FFA080000020E0200020
000030FF10A0C0C0C0400020E0
ENDCHAR
STARTCHAR  2495
ENCODING  9365
SWIDTH  1000 0
DWIDTH  13 0
BBX  13 10 -1 -2
BITMAP
0000A0FF00000000C0FF000000
00A0F0FF00000060F0FF000000
006040FF000020F080FF000000
000030FF0000C0A030FF000000
000030FF0060F01030FF000000
000030FF20F0600030FF000000
000030FFC0A0000030FF000000
000030FFFFFFFFFFFFFFFF0000
000030FF3030303060FF300020
000030FF0000000030FF0020E0
ENDCHAR
STARTCHAR  2496
ENCODING  9366
SWIDTH  1000 0
DWIDTH  14 0
BBX  13 9 0 -1
BITMAP
0000A0FF0010FFFFFFFF600000
00C0E0FF0040E0303030100000
004030FF0080A0000000000000
000030FF00C0A0806010000000
000030FF00C0E080A0F0300000
000030FF001000000080C00000
000030FF204000000040E00000
000030FF10F0200000A0800020
000030FF0040A080A0800020E0
ENDCHAR
STARTCHAR  2497
ENCODING  9367
SWIDTH  1000 0
DWIDTH  14 0
BBX  13 10 0 -1
BITMAP
00000000000000001000000000
0010C0FF00000060C000000000
00E0C0FF000010E04000000000
002030FF000080C00000000000
000030FF0030FFFFF080000000
000030FF00FFFF4060E0800000
000030FF20FF30000040F00000
000030FF20FF10000040F00000
000030FF00C0C04040E0800020
000030FF0010A0F0F0800020E0
ENDCHAR
STARTCHAR  2498
ENCODING  9368
SWIDTH  1000 0
DWIDTH  14 0
BBX  12 10 0 -2
BITMAP
0010C0FF10FFFFFFFFFF6000
00C0E0FF0030303040FF1000
004030FF0000000060C00000
000030FF00000000C0600000
000030FF00000010F0100000
000030FF00000060C0000000
000030FF000000C060000000
000030FF000010F010000020
000030FF000040C0000020E0
000000000000001000000000
ENDCHAR
STARTCHAR  2499
ENCODING  9369
SWIDTH  1000 0
DWIDTH  14 0
BBX  13 9 0 -1
BITMAP
0000A0FF0040E0FFC030000000
00C0E0FF10F08040A0E0000000
002030FF20FF400060E0000000
000030FF0080FFFFFFE0000000
000030FF00C0E06060E0800000
000030FF20FF20000040F00000
000030FF20FF20000040F00000
000030FF00C0C04060E0800020
000030FF0010A0F0F0800020E0
ENDCHAR
STARTCHAR  249A
ENCODING  9370
SWIDTH  1000 0
DWIDTH  14 0
BBX  12 10 0 -2
BITMAP
0000A0FF0020A0F0F0A01000
00A0F0FF00E0C04040E0A000
004030FF20FF10000040F000
000030FF10F0801010FFFF00
000030FF0040E0FFFFFF6000
000030FF00000020A0C00000
000030FF00000010F0300000
000030FF00000080C0000020
000030FF000010F0300020E0
000000000000002000000000
ENDCHAR
STARTCHAR  249B
ENCODING  9371
SWIDTH  1000 0
DWIDTH  15 0
BBX  15 9 0 -1
BITMAP
000080F0F0A0100040E0FFE0400000
0080E04040E0A040F0604080FF3000
00E040000040F0C080000000A0A000
003000000060E0F02000000040E000
0000000060F060FF0000000030F000
00000060F06000F01000000040E000
000080E0300000C060000000A0A000
00A0E04030303040F0604080FF3020
00FFFFFFFFFFFF0060E0FFE04020E0
ENDCHAR
STARTCHAR  3001
ENCODING  12289
SWIDTH  1000 0
DWIDTH  14 0
BBX  4 4 1 -2
BITMAP
00600000
20E0A010
0020E0A0
00001020
ENDCHAR
STARTCHAR  3002
ENCODING  12290
SWIDTH  1000 0
DWIDTH  14 0
BBX  3 3 2 -1
BITMAP
60C040
E020C0
80E060
ENDCHAR
STARTCHAR  3003
ENCODING  12291
SWIDTH  1000 0
DWIDTH  14 0
BBX  4 4 1 5
BITMAP
00201000
40E0A080
A0A0F030
20204000
ENDCHAR
STARTCHAR  3005
ENCODING  12293
SWIDTH  1000 0
DWIDTH  14 0
BBX  8 9 3 -2
BITMAP
0000608000000000
0000F08020204000
0080FFFFFFFFFF00
40F0200020F04000
40406020C0A00000
0000A0FFF0000000
00000060F0400000
0000000060A00000
0000000000000000
ENDCHAR
STARTCHAR  3008
ENCODING  12296
SWIDTH  1000 0
DWIDTH  14 0
BBX  5 10 7 -2
BITMAP
000000A010
000060C000
0010E03000
0080A00000
10F0200000
00C0600000
0030E00000
0000A08000
000020E010
0000003000
ENDCHAR
STARTCHAR  3009
ENCODING  12297
SWIDTH  1000 0
DWIDTH  14 0
BBX  4 10 2 -2
BITMAP
80400000
40E00000
00C06000
0030E000
0000A060
0010E030
0080A000
10E02000
A0800000
20100000
ENDCHAR
STARTCHAR  300A
ENCODING  12298
SWIDTH  1000 0
DWIDTH  14 0
BBX  6 11 7 -2
BITMAP
000010002000
0000E060E000
0060C0C06000
00E080E00000
60A0E0400000
E060E0000000
A080E0200000
20E080800000
00C060E00000
0040C0A06000
000030201000
ENDCHAR
STARTCHAR  300B
ENCODING  12299
SWIDTH  1000 0
DWIDTH  14 0
BBX  6 11 1 -2
BITMAP
001010000000
60A0C0400000
00E080E00000
0060C0C06000
0000E080E000
000060A0C040
0000A080E010
0010F080A000
0080A0E03000
00E060C00000
003010200000
ENDCHAR
STARTCHAR  300C
ENCODING  12300
SWIDTH  1000 0
DWIDTH  14 0
BBX  3 6 8 2
BITMAP
F0F0A0
F00000
F00000
F00000
F00000
A00000
ENDCHAR
STARTCHAR  300D
ENCODING  12301
SWIDTH  1000 0
DWIDTH  14 0
BBX  3 6 2 -2
BITMAP
0000C0
0000F0
0000F0
0000F0
0000F0
A0F0F0
ENDCHAR
STARTCHAR  300E
ENCODING  12302
SWIDTH  1000 0
DWIDTH  14 0
BBX  3 6 8 2
BITMAP
C0C0F0
C0C0E0
C0C000
C0C000
C0C000
C0F000
ENDCHAR
STARTCHAR  300F
ENCODING  12303
SWIDTH  1000 0
DWIDTH  14 0
BBX  3 6 2 -1
BITMAP
00C0F0
00C0C0
00C0C0
00C0C0
A0F0C0
C0C0F0
ENDCHAR
STARTCHAR  3010
ENCODING  12304
SWIDTH  1000 0
DWIDTH  14 0
BBX  4 10 8 -2
BITMAP
60FFFF30
60FFC000
60FF6000
60FF2000
60FF0000
60FF1000
60FF3000
60FF8000
60FFE000
30A0A030
ENDCHAR
STARTCHAR  3011
ENCODING  12305
SWIDTH  1000 0
DWIDTH  14 0
BBX  4 10 2 -2
BITMAP
60FFFF10
00E0FF10
0060FF10
0030FF10
0020FF10
0020FF10
0040FF10
00A0FF10
10F0FF10
40A0A010
ENDCHAR
STARTCHAR  3013
ENCODING  12307
SWIDTH  1000 0
DWIDTH  14 0
BBX  6 5 4 1
BITMAP
202020202010
FFFFFFFFFFE0
000000000000
FFFFFFFFFFE0
202020202020
ENDCHAR
STARTCHAR  3014
ENCODING  12308
SWIDTH  1000 0
DWIDTH  14 0
BBX  4 11 9 -2
BITMAP
00001000
0030E010
10E06000
20FF0000
20FF0000
20FF0000
20FF0000
20FF0000
10FF2000
0080E010
00003000
ENDCHAR
STARTCHAR  3015
ENCODING  12309
SWIDTH  1000 0
DWIDTH  14 0
BBX  4 11 1 -2
BITMAP
00100000
10E03000
0060E010
0000FF20
0000FF20
0000FF20
0000FF20
0000FF20
0020FF10
10E08000
00300000
ENDCHAR
STARTCHAR  3220
ENCODING  12832
SWIDTH  1000 0
DWIDTH  14 0
BBX  14 10 0 -2
BITMAP
0010400000000000000000401000
0060A00000000000000000A08000
00C040000000000000000040C000
00E010000000000000000010F000
00F000E0F0F0F0F0F0F0F000F000
00F000000000000000000000F000
00E020000000000000000010E000
00A060000000000000000060A000
0040A00000000000000000A04000
0000000000000000000000000000
ENDCHAR
STARTCHAR  3221
ENCODING  12833
SWIDTH  1000 0
DWIDTH  14 0
BBX  14 10 0 -2
BITMAP
0010100000000000000000200000
0060A00000000000000000C04000
00C04040F0F0F0F0F0F02060A000
00F000000000000000000020E000
10E000000000000000000000F000
10E000000000000000000000F000
00F010000000000000000020E000
00C040F0F0F0F0F0F0F0E060A000
0060A00000000000000000C04000
0000000000000000000000000000
ENDCHAR
STARTCHAR  3222
ENCODING  12834
SWIDTH  1000 0
DWIDTH  14 0
BBX  14 10 0 -2
BITMAP
0030800000000000000000802000
00A06060F0F0F0F0F0F020808000
00E020000000000000000040C000
00F000000000000000000010E000
10E00000F0F0F0F0F0400000F000
10F000000000000000000000F000
00E010000000000000000030E000
00A060F0F0F0F0F0F0F0E080A000
0040800000000000000000A03000
0000000000000000000000000000
ENDCHAR
STARTCHAR  3223
ENCODING  12835
SWIDTH  1000 0
DWIDTH  14 0
BBX  14 9 0 -1
BITMAP
0020300000000000000000400000
0080808080808080A080C0C04000
00E020F0C0C0FFC0FFC0FF60A000
10F000F00000F000F000F030E000
20E000F00080A000F000F010E000
20E000F060C01000FFF0FF10E000
00F000F0000000000000F040C000
00C040F0F0F0F0F0F0F0A0808000
0040600000000000000000A02000
ENDCHAR
STARTCHAR  3224
ENCODING  12836
SWIDTH  1000 0
DWIDTH  14 0
BBX  13 10 1 -2
BITMAP
00A01000000000000000308000
20E000F0F0FFFFF0F0A020E000
60A000000040C000000000E030
A060000000808000000000A060
A0600010F0FFFFF0F000008060
A060000000E03000F00000A060
8060000000F00000F00000A040
40A060FFFFFFFFFFFFFF30E020
10E0306060606060606060C000
00300000000000000000103000
ENDCHAR
STARTCHAR  3225
ENCODING  12837
SWIDTH  1000 0
DWIDTH  14 0
BBX  14 10 0 -2
BITMAP
0010300000001000000000301000
0060A0000000A060000000A06000
00C040000000306000000040C000
00E010E0F0F0F0F0F0F0F010F000
00F000000060100060000000F000
00F0000020E01000C0400000F000
00E02000C080000030E00010F000
00A06060C000000000A06040C000
0040A04020000000002060A06000
0000100000000000000000100000
ENDCHAR
STARTCHAR  3226
ENCODING  12838
SWIDTH  1000 0
DWIDTH  14 0
BBX  13 10 0 -2
BITMAP
00101000000000000000002000
0080800000C00000000040C000
00E0300000F00000000000E010
00F0000010FF6080A0C060A040
20E000E0F0FFA0806030108060
20E0001000F000000000008080
10F0000000F00000004000A060
00E0300000F0000000F000E020
0080800000F0F0F0F0A040E000
00101000000000000000002000
ENDCHAR
STARTCHAR  3227
ENCODING  12839
SWIDTH  1000 0
DWIDTH  14 0
BBX  13 9 1 -1
BITMAP
00801000400000004000008000
30E00000F0000000F00000C040
80800000F0000000F000008080
A0600000F0000000F0000040A0
C0400030E0000000E0200030C0
A040008080000000A0800040C0
808020E02000000020E01060A0
40C0A060000000000060A0A060
00C0100000000000000010C010
ENDCHAR
STARTCHAR  3228
ENCODING  12840
SWIDTH  1000 0
DWIDTH  14 0
BBX  14 9 0 -1
BITMAP
0040600000800000000000802000
00A0600000F00000301000808000
00F01080F0FFF0F0FF400030C000
10E0000000F00000FF400010F000
20E0000020E00000FF400000F000
20E0000080800000FF400010F000
00E01020E0100000FF40F040C000
00A060C060000000FFF0A0A08000
0020402000000000000000601000
ENDCHAR
STARTCHAR  3229
ENCODING  12841
SWIDTH  1000 0
DWIDTH  14 0
BBX  13 10 1 -2
BITMAP
00400000000060000000103000
10F010000000F000000040E000
60A000000000F000000000E020
808000000000F000000000A060
A06080F0F0F0FFF0F0F0608060
A06000000000F0000000008060
808000000000F000000000A040
40C000000000F000000000E010
00E010000000F000000040C000
00100000000020000000001000
ENDCHAR
STARTCHAR  4E00
ENCODING  19968
SWIDTH  1000 0
DWIDTH  14 0
BBX  12 3 1 2
BITMAP
202020202020202020202010
FFFFFFFFFFFFFFFFFFFFFF60
000000000000000000000000
ENDCHAR
STARTCHAR  4E01
ENCODING  19969
SWIDTH  1000 0
DWIDTH  14 0
BBX  13 12 1 -3
BITMAP
20202020202020202020202010
FFFFFFFFFFFFFFFFFFFFFFFF80
000000000010FF100000000000
000000000010FF100000000000
000000000010FF100000000000
000000000010FF100000000000
000000000010FF100000000000
000000000010FF100000000000
000000000010FF100000000000
000000001020FF100000000000
00000000FFFFC0000000000000
00000000000000000000000000
ENDCHAR
STARTCHAR  4E03
ENCODING  19971
SWIDTH  1000 0
DWIDTH  14 0
BBX  13 12 1 -3
BITMAP
00000010E00000000000000000
00000020FF0000000000000000
00000020FF0000000000000000
00000020FF406080A0C0E0FF30
A0E0F0FFFFE0C0A08060402000
60603030FF0000000000000000
00000020FF0000000000000000
00000020FF0000000000000000
00000020FF0000000000006010
00000020FF101010101010FF10
00000020FFFFFFFFFFFFFFC000
00000000101010101010100000
ENDCHAR
STARTCHAR  4E07
ENCODING  19975
SWIDTH  1000 0
DWIDTH  14 0
BBX  14 12 0 -3
BITMAP
0020202020202020202020202000
00FFFFFFFFFFFFFFFFFFFFFFFF10
00000020FF000000000000000000
00000020FF202020202020A00000
00000020FFFFFFFFFFFFFFFF0000
00000040E0000000000020FF0000
000000A0A0000000000020FF0000
000010F030000000000020FF0000
0000A0A000000000000020FF0000
0060F02000000010202030FF0000
00A04000000000E0FFFFFFA00000
0000000000000000000000000000
ENDCHAR
STARTCHAR  4E08
ENCODING  19976
SWIDTH  1000 0
DWIDTH  14 0
BBX  13 12 1 -3
BITMAP
00000000000010A00000000000
20202020202030FF2020202000
FFFFFFFFFFFFFFFFFFFFFFFF30
00000000000020FF0000000000
00202000000030F00000000000
0060F0A0100060C00000000000
000020C0F080E0600000000000
0000000040F0FF600000000000
00000010A0F060E0C030000000
003080E0E020001080F0801000
E0F0C060000000000020C0A000
20000000000000000000001000
ENDCHAR
STARTCHAR  4E09
ENCODING  19977
SWIDTH  1000 0
DWIDTH  14 0
BBX  11 10 1 -2
BITMAP
30FFFFFFFFFFFFFFFFFFFF
0020202020202020202020
0000000000000000000000
0010202020202020202000
00E0FFFFFFFFFFFFFFFF00
0000000000000000000000
0000000000000000000000
0000000000000000000000
F0FFFFFFFFFFFFFFFFFFFF
1020202020202020202020
ENDCHAR
STARTCHAR  4E0A
ENCODING  19978
SWIDTH  1000 0
DWIDTH  14 0
BBX  13 11 1 -2
BITMAP
0000000000A000000000000000
0000000010FF10000000000000
0000000010FF10000000000000
0000000010FFFFFFFFFFFFA000
0000000010FF20202020201000
0000000010FF10000000000000
0000000010FF10000000000000
0000000010FF10000000000000
0000000010FF10000000000000
2020202020FF20202020202010
FFFFFFFFFFFFFFFFFFFFFFFF80
ENDCHAR
STARTCHAR  4E0B
ENCODING  19979
SWIDTH  1000 0
DWIDTH  14 0
BBX  13 11 1 -2
BITMAP
FFFFFFFFFFFFFFFFFFFFFFFF80
2020202020FF30202020202010
0000000000FF20000000000000
0000000000FF20000000000000
0000000000FF40A02000000000
0000000000FF30A0F080100000
0000000000FF200040C0E04000
0000000000FF20000000603000
0000000000FF20000000000000
0000000000FF20000000000000
0000000000C010000000000000
ENDCHAR
STARTCHAR  4E0C
ENCODING  19980
SWIDTH  1000 0
DWIDTH  14 0
BBX  13 11 0 -2
BITMAP
80FFFFFFFFFFFFFFFFFFFFFFFF
10202030FF20202030FF202020
00000020FF00000020FF000000
00000020FF00000020FF000000
00000020FF00000020FF000000
00000040E000000020FF000000
000000A08000000020FF000000
000020F03000000020FF000000
0000A0A00000000020FF000000
0080E0100000000020FF000000
006030000000000020E0000000
ENDCHAR
STARTCHAR  4E0D
ENCODING  19981
SWIDTH  1000 0
DWIDTH  14 0
BBX  14 12 0 -3
BITMAP
0020202020202020202020202000
20FFFFFFFFFFFFFFFFFFFFFFFF10
000000000080E000000000000000
0000000030F04000100000000000
00000010E080FF30F08000000000
000010C0A000FF2030E0A0000000
0010C0C00000FF200020E0C01000
00E0A0000000FF20000010C0A000
002000000000FF20000000001000
000000000000FF20000000000000
000000000000FF20000000000000
0000000000001000000000000000
ENDCHAR
STARTCHAR  4E0E
ENCODING  19982
SWIDTH  1000 0
DWIDTH  14 0
BBX  13 11 1 -2
BITMAP
00003060000000000000000000
000080C0202020202020202010
0000A0FFFFFFFFFFFFFFFFFFC0
0000C060000000000000000000
0000F06020202020202030A000
0010FFFFFFFFFFFFFFFFFFFF00
0000000000000000000020FF00
FFFFFFFFFFFFFFFFA00020FF00
2020202020202020100020FF00
0000000000000020202030FF00
00000000000040FFFFFFFFA000
ENDCHAR
STARTCHAR  4E10
ENCODING  19984
SWIDTH  1000 0
DWIDTH  14 0
BBX  14 11 0 -2
BITMAP
0020202020202020202020202000
20FFFFFFFFFFFFFFFFFFFFFFFF10
000000401000FF20000000000000
000030F02000FFFFFFFFFFFF0000
0000E0800000FF30202020200000
0080E0000000FF20000000200000
00C0FFFFFFFFFFFFFFFFFFFF3000
0010202020202020202020F03000
0000000000000000000000F03000
0000000000102020202020F03000
0000000000FFFFFFFFFFFFE01000
ENDCHAR
STARTCHAR  4E11
ENCODING  19985
SWIDTH  1000 0
DWIDTH  14 0
BBX  13 11 1 -2
BITMAP
00202020202020202020200000
00FFFFFFFFFFFFFFFFFFFF3000
00000000C06000000000FF1000
00000000E04000000020F00000
00000000F02000000040E00000
00A0FFFFFFFFFFFFFFFFC00000
00102040F02020202080A00000
00000040E000000000A0800000
00000060C000000000A0800000
202020A0A020202020E0602010
FFFFFFFFFFFFFFFFFFFFFFFF80
ENDCHAR
STARTCHAR  4E13
ENCODING  19987
SWIDTH  1000 0
DWIDTH  14 0
BBX  14 12 0 -2
BITMAP
0000000000001000000000000000
000000000080C000000000000000
0040FFFFFFFFFFFFFFFFFFFF4000
00002020C0A02020202020200000
00202040FF402020202020202000
20FFFFFFFFFFFFFFFFFFFFFFFF20
000060E010000000000000000000
0000FFFFFFFFFFFFFFFFFFA00000
000020202020202040E0E0400000
000080C080603080F08010000000
00003060A0C0F0FFE0A060000000
00000000000000206080A0000000
ENDCHAR
STARTCHAR  4E14
ENCODING  19988
SWIDTH  1000 0
DWIDTH  14 0
BBX  13 11 1 -2
BITMAP
000020202020202020A0100000
0020FFFFFFFFFFFFFFFF200000
0020FF000000000000FF200000
0020FF202020202020FF200000
0020FFFFFFFFFFFFFFFF200000
0020FF000000000000FF200000
0020FF202020202020FF200000
0020FFFFFFFFFFFFFFFF200000
0020FF000000000000FF200000
2030FF202020202020FF302010
FFFFFFFFFFFFFFFFFFFFFFFF80
ENDCHAR
STARTCHAR  4E15
ENCODING  19989
SWIDTH  1000 0
DWIDTH  14 0
BBX  13 12 1 -3
BITMAP
FFFFFFFFFFFFFFFFFFFFFFFF80
202020202040FF302020202010
0000000000C0A0000000000000
0000000080FF80000000000000
00000080FF80FF60E030000000
0010A0F06020FF0080F0800000
80F0C0200020FF000030E0E030
804000000020FF000000008020
000000000020FF000000000000
10101010102040101010101010
FFFFFFFFFFFFFFFFFFFFFFFF80
00000000000000000000000000
ENDCHAR
STARTCHAR  4E16
ENCODING  19990
SWIDTH  1000 0
DWIDTH  14 0
BBX  13 12 1 -3
BITMAP
0010600010C0000000C0100000
0020FF0020FF000000FF200000
2030FF2030FF202020FF302010
FFFFFFFFFFFFFFFFFFFFFFFF80
0020FF0020FF000000FF200000
0020FF0020FF000000FF200000
0020FF0020FF000000FF200000
0020FF0020FF202020FF200000
0020FF0020FFFFFFFFC0000000
0020FF10101010101010101000
0020FFFFFFFFFFFFFFFFFFFF20
00000000000000000000000000
ENDCHAR
STARTCHAR  4E18
ENCODING  19992
SWIDTH  1000 0
DWIDTH  14 0
BBX  14 12 0 -3
BITMAP
0000202020202020202060300000
0000FFFFFFFFFFFFFFFFE0400000
0000FF2000000000000000000000
0000FF2000000000000000000000
0000FFFFFFFFFFFFFFFFFFC00000
0000FF302020202020FF30100000
0000FF200000000000FF20000000
0000FF200000000000FF20000000
0000FF200000000000FF20000000
0010FF301010101010FF30101000
40FFFFFFFFFFFFFFFFFFFFFFFF20
0000000000000000000000000000
ENDCHAR
STARTCHAR  4E19
ENCODING  19993
SWIDTH  1000 0
DWIDTH  14 0
BBX  13 12 1 -3
BITMAP
20202020202020202020202010
FFFFFFFFFFFFFFFFFFFFFFFF80
002020202030FF20202030A000
20FFFFFFFFFFFFFFFFFFFFFF00
20FF00000060E000000020FF00
20FF000000E06060100020FF00
20FF0000A0C010C0E01020FF00
20FF20C0E0100000A0E040FF00
20FF40A010000000008040FF00
20FF000000000000001030FF00
20FF00000000000000E0FFA000
00100000000000000000000000
ENDCHAR
STARTCHAR  4E1A
ENCODING  19994
SWIDTH  1000 0
DWIDTH  14 0
BBX  13 11 1 -2
BITMAP
00000010E0000010E000000000
00000020FF000020FF00000000
60600020FF000020FF00008010
60E00020FF000020FF0020F010
10FF2020FF000020FF0060A000
00C08020FF000020FF00C06000
0060E020FF000020FF20F01000
00008020FF000020FF20600000
00000020FF000020FF00000000
20202030FF202030FF20202010
FFFFFFFFFFFFFFFFFFFFFFFF80
ENDCHAR
STARTCHAR  4E1B
ENCODING  19995
SWIDTH  1000 0
DWIDTH  14 0
BBX  13 11 1 -2
BITMAP
000010C000000000C010000000
000020FF00000000FF20000000
000020FF00000000FF10000000
000020FF00000020FF00000000
000040FF60000060FF60000000
0000A0C0F02000C0C0E0100000
0030F02080C030F010C0A00000
10E080000080E0800030F03000
A0C000000080E000000080E000
40302020203040202020204010
FFFFFFFFFFFFFFFFFFFFFFFF80
ENDCHAR
STARTCHAR  4E1C
ENCODING  19996
SWIDTH  1000 0
DWIDTH  14 0
BBX  13 11 0 -2
BITMAP
00000000001040000000000000
0010202020C0C0202020202020
00F0FFFFFFFFFFFFFFFFFFFFFF
000000A0E02010C00000000000
0010C0C0100020FF0000000000
00A0FFFFFFFFFFFFFFFFFFFF00
00102030302030FF2020302000
000000C0C00020FF0040E01000
000080F0300020FF0000C0A000
0060FF40002030FF000020FF60
00A0400000F0FFA00000008080
ENDCHAR
STARTCHAR  4E1D
ENCODING  19997
SWIDTH  1000 0
DWIDTH  14 0
BBX  14 11 0 -2
BITMAP
0000006030000000006030000000
000030F04000000030F040000000
0010E08000000010E08000000000
00A0C00040E000A0C00040E00000
00F0FFFFFF6000F0FFFFFF600000
001020E08000001020E080000000
0000A0C000000000A0C000000000
0080E02010100080E02010100000
00FFFFFFFFFF30FFFFFFFFFF3000
0030303030302030303030302000
20FFFFFFFFFFFFFFFFFFFFFFFF20
ENDCHAR
STARTCHAR  4E1E
ENCODING  19998
SWIDTH  1000 0
DWIDTH  14 0
BBX  14 11 0 -2
BITMAP
0000FFFFFFFFFFFFFFFFFF400000
000020202020202080F0E0200000
0010101010A020E0FF8010000000
00FFFFFFFFFF30FFE00000406000
0010101080E020FFE04040F06000
00000040F03020FF30E0F0400000
000040F0400020FF0060E0100000
0080F040001030FF000080E04000
10C0200060FFFFC000000060A000
0020202020202020202020202000
30FFFFFFFFFFFFFFFFFFFFFFFF30
ENDCHAR
STARTCHAR  4E22
ENCODING  20002
SWIDTH  1000 0
DWIDTH  14 0
BBX  14 11 0 -2
BITMAP
0010202020202020202040804000
0060FFFFFFFFFFFFFFFFE0A03000
000000000000FF20000000000000
0000FFFFFFFFFFFFFFFFFFFFC000
000020202020FF30202020201000
002020202020FF30202020202000
40FFFFFFFFFFFFFFFFFFFFFFFF40
00000040E0300000003040000000
000040E0300000102060F0600000
0010FFE0E0F0FFFFFFF0E0F06000
0010606040302010000000304000
ENDCHAR
STARTCHAR  4E24
ENCODING  20004
SWIDTH  1000 0
DWIDTH  14 0
BBX  13 12 1 -3
BITMAP
FFFFFFFFFFFFFFFFFFFFFFFF80
20202020FF302030FF20202010
00202020FF302030FF20208000
20FFFFFFFFFFFFFFFFFFFFFF00
20FF0020FF000040E00020FF00
20FF0060F0100080E00020FF00
20FF00C0F0A010F0F08020FF00
20FF30E020F0C0C030F030FF00
20FFC0600060F020008060FF00
20FF400000104000001030FF00
20FF00000000000000A0FFA000
00100000000000000000000000
ENDCHAR
STARTCHAR  4E25
ENCODING  20005
SWIDTH  1000 0
DWIDTH  14 0
BBX  13 12 0 -3
BITMAP
00A0FFFFFFFFFFFFFFFFFFFFFF
0010603030FF2020FF30208020
0000C08020FF0000FF2060E000
000060E020FF0000FF20E08000
0000208030FF2020FF30803010
0010FFFFFFFFFFFFFFFFFFFFA0
0010FF10000000000000000000
0010FF00000000000000000000
0040E000000000000000000000
00A08000000000000000000000
10F02000000000000000000000
00100000000000000000000000
ENDCHAR
STARTCHAR  4E27
ENCODING  20007
SWIDTH  1000 0
DWIDTH  14 0
BBX  14 12 0 -3
BITMAP
00101010101020E0101010100000
00FFFFFFFFFFFFFFFFFFFFFF8000
00108060101030FF101080401000
000060F0600020FF0040F0200000
00202080A02030FF208060202000
20FFFFFFFFFFFFFFFFFFFFFFFF40
0000FF200000A0F0200000200000
0000FF20000000C0E030C0E00000
0000FF2000103010E0FFA0100000
0010FFA0E0FFC00010A0F0801000
0060E0A060100000000040C06000
0000000000000000000000000000
ENDCHAR
STARTCHAR  4E28
ENCODING  20008
SWIDTH  1000 0
DWIDTH  14 0
BBX  2 11 6 -2
BITMAP
20E0
20FF
20FF
20FF
20FF
20FF
20FF
20FF
20FF
20FF
20FF
ENDCHAR
STARTCHAR  4E2A
ENCODING  20010
SWIDTH  1000 0
DWIDTH  14 0
BBX  13 12 1 -3
BITMAP
0000008080FFFFFFFFE0000000
000040E01020202020C0800000
0000E080000000000030F02000
0080E000001060000000A0A000
30F040000020FF00000010F040
806000000020FF000000006020
000000000020FF000000000000
000000000020FF000000000000
000000000020FF000000000000
000000000020FF000000000000
000000000020FF000000000000
00000000000010000000000000
ENDCHAR
STARTCHAR  4E2B
ENCODING  20011
SWIDTH  1000 0
DWIDTH  14 0
BBX  13 11 1 -2
BITMAP
00600000000000000000008010
10E0C020000000000020C0E020
0010A0F04000000040F0A00000
00000060F0800060F060000000
0000000020E0C0103000000000
000000000020FF000000000000
000000000020FF000000000000
000000000020FF000000000000
000000000020FF000000000000
000000000020FF000000000000
000000000020F0000000000000
ENDCHAR
STARTCHAR  4E2C
ENCODING  20012
SWIDTH  1000 0
DWIDTH  14 0
BBX  5 11 4 -2
BITMAP
00000010C0
20A00020FF
10E08020FF
0030F040FF
00002020FF
00000020FF
00000040FF
000060F0FF
10A0E060FF
A0C01020FF
10000020FF
ENDCHAR
STARTCHAR  4E2D
ENCODING  20013
SWIDTH  1000 0
DWIDTH  14 0
BBX  12 11 1 -2
BITMAP
0000000000C0100000000000
0000000000FF200000000000
2020202020FF302020206010
FFFFFFFFFFFFFFFFFFFFFF20
FF20000000FF20000000FF20
FF20000000FF20000000FF20
FF20000000FF20000000FF20
FF30202020FF30202020FF10
FFFFFFFFFFFFFFFFFFFFC000
0000000000FF200000000000
0000000000FF200000000000
ENDCHAR
STARTCHAR  4E30
ENCODING  20016
SWIDTH  1000 0
DWIDTH  14 0
BBX  13 11 1 -2
BITMAP
000000000010C0000000000000
102020202030FF202020202000
E0FFFFFFFFFFFFFFFFFFFFFF00
000000000020FF000000000000
002020202030FF202020201000
00FFFFFFFFFFFFFFFFFFFFA000
000000000020FF000000000000
000000000020FF000000000000
FFFFFFFFFFFFFFFFFFFFFFFF80
202020202030FF202020202010
000000000020FF000000000000
ENDCHAR
STARTCHAR  4E32
ENCODING  20018
SWIDTH  1000 0
DWIDTH  14 0
BBX  12 11 1 -2
BITMAP
0000000000F0100000004000
20FFFFFFFFFFFFFFFFFFFF00
20FF202020FF30202030FF00
20FF000000FF20000020FF00
20FFFFFFFFFFFFFFFFFFC000
0020202020FF302020101000
FFFFFFFFFFFFFFFFFFFFFF20
FF30202020FF30202020FF20
FF30202020FF30202020FF10
FFFFFFFFFFFFFFFFFFFFC000
0000000000FF200000000000
ENDCHAR
STARTCHAR  4E34
ENCODING  20020
SWIDTH  1000 0
DWIDTH  14 0
BBX  13 12 1 -3
BITMAP
0000E0100080A0000000000000
4000FF2000E0A0202020202000
FF20FF2040FFFFFFFFFFFFFF20
FF20FF20E08020A01000000000
FF20FF80C00000A0E010000000
FF20FF20000000008010003000
FF20FF20F0F0F0F0F0F0F0FF00
FF20FF20FF200020FF0010FF00
FF20FF20FF200020FF0010FF00
FF20FF20FF301030FF1030FF00
3000FF20FFFFFFFFFFFFFFA000
00000000101010101010000000
ENDCHAR
STARTCHAR  4E36
ENCODING  20022
SWIDTH  1000 0
DWIDTH  14 0
BBX  5 5 5 1
BITMAP
0000000000
40C0000000
10E0A00000
0010E08000
000030A000
ENDCHAR
STARTCHAR  4E38
ENCODING  20024
SWIDTH  1000 0
DWIDTH  14 0
BBX  13 12 0 -3
BITMAP
00000000E01000000000000000
00102020FF3020202060100000
00C0FFFFFFFFFFFFFFFF200000
00000000FF10000000FF200000
00000020FF10000000FF200000
00A0A060E000000000FF200000
0020E0FF8000000000FF200000
000060FFF040000000FF200000
0020F08060F0400000FF200060
10E0C0000040100000FF3030FF
40C010000000000000FFFFFFA0
00000000000000000000000000
ENDCHAR
STARTCHAR  4E39
ENCODING  20025
SWIDTH  1000 0
DWIDTH  14 0
BBX  14 12 0 -3
BITMAP
0000002020202020202030A00000
000010FFFFFFFFFFFFFFFFFF0000
000010FF00004010000020FF0000
000010FF0000E0A0000020FF0000
000010FF000020F0600020FF0000
002030FF20202060602030FF2000
20FFFFFFFFFFFFFFFFFFFFFFFF20
000060C000000000000020FF0000
0000A08000000000000020FF0000
0020F02000000000001030FF0000
0060A0000000000000C0FFA00000
0000000000000000000000000000
ENDCHAR
STARTCHAR  4E3A
ENCODING  20026
SWIDTH  1000 0
DWIDTH  14 0
BBX  12 12 1 -3
BITMAP
00403010E000000000000000
0060F040FF00000000000000
0020C060FF202020202030E0
20FFFFFFFFFFFFFFFFFFFFFF
00000020FF000000000020FF
00000030F0008040000020FF
00000060C00060F0600020FF
000000E060000030E08020FF
000080E000000000203020FF
00A0F02000000000102030FF
A0C0200000000000A0FFFFA0
200000000000000000000000
ENDCHAR
STARTCHAR  4E3B
ENCODING  20027
SWIDTH  1000 0
DWIDTH  14 0
BBX  14 13 0 -3
BITMAP
0000000000002000000000000000
000000000000E080000000000000
00A0FFFFFFFFFFFFFFFFFFFFFF00
00102020202030FF202020202000
00000000000020FF000000000000
00000000000020FF000000000000
0030FFFFFFFFFFFFFFFFFFFF4000
00002020202030FF202020200000
00000000000020FF000000000000
00000000000020FF000000000000
00202020202030FF202020202000
20FFFFFFFFFFFFFFFFFFFFFFFF30
0000000000000000000000000000
ENDCHAR
STARTCHAR  4E3D
ENCODING  20029
SWIDTH  1000 0
DWIDTH  14 0
BBX  14 11 0 -2
BITMAP
0020202020202020202020202000
40FFFFFFFFFFFFFFFFFFFFFFFF30
002020202030E02020202030E000
00FFFFFFFFFFFFFFFFFFFFFFFF00
00FF20000020FFFF20000020FF00
00FF60E01020FFFF60E02020FF00
00FF20E0A020FFFF20E0A020FF00
00FF2020F060FFFF2020F060FF00
00FF20003020FFFF20003020FF00
00FF20001030FFFF20001030FF00
00FF2000C0FFA0FF2000C0FFA000
ENDCHAR
STARTCHAR  4E3E
ENCODING  20030
SWIDTH  1000 0
DWIDTH  14 0
BBX  13 11 0 -2
BITMAP
00003000003000000000103000
0060F02000C080000000C0C000
0020A0602040A02020A0E03000
00FFFFFFFFFFFFFFFFFFFFFF40
000060E00000E0100080E02000
0080F080FFFFFFFFFFFF80E020
60E030102020FF302020008080
000000000000FF200000000000
0080FFFFFFFFFFFFFFFFFFFF00
001020202020FF302020202000
000000000000FF200000000000
ENDCHAR
STARTCHAR  4E3F
ENCODING  20031
SWIDTH  1000 0
DWIDTH  14 0
BBX  6 12 3 -3
BITMAP
00000000E010
00000010FF10
00000010FF10
00000010FF10
00000010FF10
00000020FF00
00000040E000
000000A08000
000060F02000
0060F0600000
10E040000000
000000000000
ENDCHAR
STARTCHAR  4E43
ENCODING  20035
SWIDTH  1000 0
DWIDTH  14 0
BBX  13 12 1 -3
BITMAP
00E0FFFFFFFFFFFFFFFFFF2000
00102030FF2020202040FF1000
00000020FF00000040F0800000
00000020FF000060FF60004000
00000030F00020FFFFFFFFFF10
00000060E0000020202020FF10
000000A080000000000000FF10
000020F030000000000000FF10
0000C0A000000000000000FF10
00A0E01000000000001010FF10
10A010000000000010FFFFC000
00000000000000000010000000
ENDCHAR
STARTCHAR  4E45
ENCODING  20037
SWIDTH  1000 0
DWIDTH  14 0
BBX  13 12 0 -2
BITMAP
00000010000000000000000000
000000A0800000000000300000
000030FFFFFFFFFFFFFFFF2000
0000C0A0202020202040FF1000
0080E0100000000000C0A00000
0040300000000000A0C0000000
00000000000010C0E010000000
000000000030E0F02000000000
0000000080F080A0F060000000
000040E0E040000040E0E03000
10C0F08000000000000080F080
00801000000000000000002060
ENDCHAR
STARTCHAR  4E47
ENCODING  20039
SWIDTH  1000 0
DWIDTH  14 0
BBX  14 13 0 -3
BITMAP
0000000000000000000000000000
000000102040608080A0E0F00000
0030FFFFF0E0FFA0806040200000
000020100020FF00000000000000
000000000020FF00000000000000
000000000020FF30606080A0C020
0080A0C0E0FFFFF0E0C0A0806010
00A080604040FF00000000000000
000000000020FF00000000000000
000000000020FF00000000006010
000000000020FF0000000000FF10
000000000020FFFFFFFFFFFFE000
0000000000001010101010100000
ENDCHAR
STARTCHAR  4E48
ENCODING  20040
SWIDTH  1000 0
DWIDTH  14 0
BBX  14 11 0 -2
BITMAP
0000000000008030000000000000
0000000000A0E030000000000000
00000000A0E02000006000000000
000010C0E0100000A0E010000000
0010E0C0100010C0E01000000000
00E0A0000010E0C0100000000000
0020000020E0A000000000000000
00000030E0A00000000040400000
000040F080000000000060F01000
0040F0C080A0A0C0E0F0FFFFA000
0080E0C0A080806040302020C010
ENDCHAR
STARTCHAR  4E49
ENCODING  20041
SWIDTH  1000 0
DWIDTH  14 0
BBX  14 11 0 -2
BITMAP
000000000020A000000000100000
0040A0100010E060000000C08000
0010C0E0200060F01000A0E01000
000000A0E03000802080E0200000
0000000060F0600080F020000000
000000000040F0C0E02000000000
000000000010C0FFC01000000000
0000000030E0C020C0E020000000
00000080F080000000A0E0300000
0040E0E030000000000060F06000
00C060000000000000000040C000
ENDCHAR
STARTCHAR  4E4B
ENCODING  20043
SWIDTH  1000 0
DWIDTH  14 0
BBX  13 12 0 -3
BITMAP
000000000010C0200000000000
000000000000A0C00000006000
0060FFFFFFFFFFFFFFFFFFFF00
0000000000000000000040F000
00000000000000000040E04000
000000000000000060E0400000
0000000000000080E020000000
000000000030E0A01000000000
0000001080E060000000000000
0040E0F0A01000000000000000
10E060C0F0FFFFFFFFFFFFFFE0
00000000000000000000000000
ENDCHAR
STARTCHAR  4E4C
ENCODING  20044
SWIDTH  1000 0
DWIDTH  14 0
BBX  12 12 1 -2
BITMAP
000000000020000000000000
0000000030F0100000003000
0020FFFFFFFFFFFFFFFFFF00
0020FF20202020202030FF00
0020FF00000000102030FF00
0020FF0000000060FFFFA000
0020FF2020202020202030E0
0020FFFFFFFFFFFFFFFFFFFF
1020202020202020202020FF
C0FFFFFFFFFFFFFFFFFF20FF
0000000000000020202030FF
00000000000030FFFFFFFFA0
ENDCHAR
STARTCHAR  4E4D
ENCODING  20045
SWIDTH  1000 0
DWIDTH  14 0
BBX  13 12 1 -3
BITMAP
00000060100000000000000000
000040F0202020202020202000
0000E0FFFFFFFFFFFFFFFFFF20
00A0E00020FF00000000000000
60F0200020FF20202020201000
0020000020FFFFFFFFFFFFA000
0000000020FF00000000000000
0000000020FF20202020202000
0000000020FFFFFFFFFFFFFF10
0000000020FF00000000000000
0000000020FF00000000000000
00000000106000000000000000
ENDCHAR
STARTCHAR  4E4E
ENCODING  20046
SWIDTH  1000 0
DWIDTH  14 0
BBX  14 12 0 -3
BITMAP
0010202020202020202060A00000
0060FFFFFFFFFFFFFFF0E0801000
000020000000FF10000010000000
0000E0400000FF100010E0800000
000040E01000FF1000C0C0000000
000000601000FF10006010000000
20FFFFFFFFFFFFFFFFFFFFFFFF20
002020202020FF30202020202000
000000000000FF10000000000000
000000001010FF10000000000000
00000040FFFFC000000000000000
0000000010000000000000000000
ENDCHAR
STARTCHAR  4E4F
ENCODING  20047
SWIDTH  1000 0
DWIDTH  14 0
BBX  14 12 0 -3
BITMAP
0010202020202020202020608000
00FFFFFFFFFFFFFFFFFFF0C06000
000000000040C000000000000000
000000000000E060000000300000
00A0FFFFFFFFFFFFFFFFFFFF0000
00000000000000000000A0E00000
000000000000000040E0A0100000
00000000000030A0E06000000000
0000100040C0F080100000000000
00A0E0E0E0601000000000000000
60C060C0F0FFFFFFFFFFFFFFC000
0000000000000000000000000000
ENDCHAR
STARTCHAR  4E50
ENCODING  20048
SWIDTH  1000 0
DWIDTH  14 0
BBX  13 11 1 -2
BITMAP
00102020202020202030606000
0080FFFFFFFFFFFFFFF0C06000
00A08000000000000000000000
00C060000010F0000000000000
00E040202030FF202020201000
00FFFFFFFFFFFFFFFFFFFFC000
000010300020FF000040000000
0000A0C00020FF0000E0600000
0040F0200020FF000040F02000
30F060001030FF000000A0A000
30600000E0FFA000000010C010
ENDCHAR
STARTCHAR  4E52
ENCODING  20050
SWIDTH  1000 0
DWIDTH  14 0
BBX  13 12 0 -3
BITMAP
00000020202020202020306020
000020FFFFFFFFFFFFFFF0C040
000020FF000000000000000000
000020FFFFFFFFFFFFFFFFFFC0
000020FF2020202020FF302010
000020FF0000000000FF200000
002030FF2020202020FF302020
10FFFFFFFFFFFFFFFFFFFFFFFF
00000080300000000000000000
0000A0E0300000000000000000
0060E020000000000000000000
00001000000000000000000000
ENDCHAR
STARTCHAR  4E53
ENCODING  20051
SWIDTH  1000 0
DWIDTH  14 0
BBX  13 12 0 -3
BITMAP
00000020202020202020306020
000020FFFFFFFFFFFFFFF0C040
000020FF000000000000000000
000020FFFFFFFFFFFFFFFFFFC0
000020FF2020202020FF302010
000020FF0000000000FF200000
002030FF2020202020FF302020
10FFFFFFFFFFFFFFFFFFFFFFFF
00000000000000000020600000
00000000000000000040F08000
0000000000000000000030E060
00000000000000000000001000
ENDCHAR
STARTCHAR  4E54
ENCODING  20052
SWIDTH  1000 0
DWIDTH  14 0
BBX  14 12 0 -3
BITMAP
0000202020202020203060400000
0020FFFFFFFFFFFFFFF0E0600000
000000000020FF10000000000000
30FFFFFFFFFFFFFFFFFFFFFFFF30
00202060F0802020C0FF80202000
0010A0FFA000000000A0FF800000
20F0C030FF20000000FF60E0A000
00300010FF10000000FF20102000
000000A0C000000000FF20000000
000080F02000000000FF20000000
0010E0300000000000FF20000000
0000000000000000001000000000
ENDCHAR
STARTCHAR  4E56
ENCODING  20054
SWIDTH  1000 0
DWIDTH  14 0
BBX  13 12 0 -3
BITMAP
00002020202020202020408010
0000FFFFFFFFFFFFFFFFE0A020
002020202020FF302020202010
00FFFFFFFFFFFFFFFFFFFFFFC0
00000010E000FF2010E0000000
0060FFFFFF00FF2020FF80E040
00001020FF00FF2020FFC06000
00000010FF00FF2020FF001040
0060A0F0FF00FF2020FF0020FF
00C08040FF00FF2020FFFFFFC0
000000000000FF200020202000
00000000000040000000000000
ENDCHAR
STARTCHAR  4E58
ENCODING  20056
SWIDTH  1000 0
DWIDTH  14 0
BBX  14 12 0 -3
BITMAP
0000202020202020203080600000
0040FFFFFFFFFFFFFFF0C0400000
002020202020FF30202020202000
10FFFFFFFFFFFFFFFFFFFFFFFF10
00306080F000FF2000F060808000
0060C0C0FF00FF2000FFE0A08000
00003080FF00FF2000FF3030C000
00C0F0C0FF40FF6000FFFFFFA000
00100020C0F0FFF0F08020000000
002080F0C020FF2040C0FFA04000
00C0C0400000FF2000002080E000
0010000000004000000000000000
ENDCHAR
STARTCHAR  4E59
ENCODING  20057
SWIDTH  1000 0
DWIDTH  14 0
BBX  13 11 0 -2
BITMAP
00102020202020202020204000
00FFFFFFFFFFFFFFFFFFFFFF00
00000000000000000010E0C000
000000000000000020E0C00000
0000000000000040F0A0000000
00000000000080F06000000000
0000000030E0E0300000000000
00001080F08010000000000000
0080F0C0300000000000008010
20FF602020202020202020FF20
20FFFFFFFFFFFFFFFFFFFFC000
ENDCHAR
STARTCHAR  4E5C
ENCODING  20060
SWIDTH  1000 0
DWIDTH  14 0
BBX  14 12 0 -3
BITMAP
000000E010000000000000000000
000000FF20000000001040800000
000000FF202060A0E0FFE0FF0000
004080FFF0F0C080401020FF0000
10E0A0FF40000000000020FF0000
000000FF20000000000020FF0000
000000FF2000000030FFFFC00000
000000FF20000000002020000000
000000FF20000000000000006000
000000FF2010101010101010FF10
000000FFFFFFFFFFFFFFFFFFC000
0000001010101010101010100000
ENDCHAR
STARTCHAR  4E5D
ENCODING  20061
SWIDTH  1000 0
DWIDTH  14 0
BBX  13 12 0 -3
BITMAP
00000000A01000000000000000
00000000FF2000000030000000
10FFFFFFFFFFFFFFFFFF200000
00202020FF30202020FF200000
00000010FF10000000FF200000
00000060E000000000FF200000
000000C08000000000FF200000
000040F01000000000FF200000
0020F0600000000000FF201080
10E0A0000000000000FF3030FF
60A000000000000000FFFFFFA0
00000000000000000000000000
ENDCHAR
STARTCHAR  4E5E
ENCODING  20062
SWIDTH  1000 0
DWIDTH  14 0
BBX  13 12 0 -2
BITMAP
00000000000000000000000000
0000C060000000000000000000
0060FFFFFFFFFFFFFFFFFFFF30
20F06020202020202020202000
80C02020202020202020C01000
1010E0FFFFFFFFFFFFFFFF2000
000000000000000030E0C01000
00000000000010A0F080000000
000000001080F0A02000000000
000020A0F0C03000000000E000
0000FFC040202020202020F000
0000FFFFFFFFFFFFFFFFFFA000
ENDCHAR
STARTCHAR  4E5F
ENCODING  20063
SWIDTH  1000 0
DWIDTH  14 0
BBX  13 12 0 -3
BITMAP
000000000010FF100000000000
0000A0100010FF100000002000
0000FF200020FF80A0C0F0FF00
2060FFC0E0FFFFE0A08060FF00
A0E0FFA06030FF10000020FF00
0000FF200010FF10000020FF00
0000FF200010FF10002030FF00
0000FF200010FF1020FFFFA000
0000FF20000040000000001060
0000FF201010101010101020FF
0000FFFFFFFFFFFFFFFFFFFFC0
00001010101010101010101000
ENDCHAR
STARTCHAR  4E60
ENCODING  20064
SWIDTH  1000 0
DWIDTH  14 0
BBX  12 11 1 -2
BITMAP
10202020202020202020A010
F0FFFFFFFFFFFFFFFFFFFF20
00000000000000000000FF20
0060C040000000000000FF20
001080F0C03000000000FF20
00000010803000001000FF20
00000000001060E08000FF20
0000001080F0C0400000FF20
0020A0F0C04000000000FF20
60F0A030000000202020FF20
20200000000040FFFFFFC000
ENDCHAR
STARTCHAR  4E61
ENCODING  20065
SWIDTH  1000 0
DWIDTH  14 0
BBX  12 12 1 -2
BITMAP
000000000010100000000000
0000000040E0600000000000
00000080F060000000001000
0030E0E02000000060E0C000
00E0FFFFFFFFFFFFE0601000
00102040C0FFC04000000000
0040C0F0A0300000000010E0
30FFFFFFFFFFFFFFFFFFFFF0
002020202020203080F0C020
000000001060A0F0C0400000
3060A0E0FFE0802000000000
80C080401000000000000000
ENDCHAR
STARTCHAR  4E66
ENCODING  20070
SWIDTH  1000 0
DWIDTH  14 0
BBX  13 11 0 -2
BITMAP
0000000000E010000000404000
0000000000FF2000000060F020
0040FFFFFFFFFFFFFFFFFF6010
0010202020FF30202030FF0000
0000000000FF20000020FF0000
0000000000FF20000020FF3000
A0FFFFFFFFFFFFFFFFFFFFFF20
0000000000FF2000000000FF20
0000000000FF2000000000FF20
0000000000FF2000102020FF10
0000000000FF2000A0FFFFC000
ENDCHAR
STARTCHAR  4E69
ENCODING  20073
SWIDTH  1000 0
DWIDTH  14 0
BBX  12 12 1 -3
BITMAP
000060100000006010000000
0000FF20101000FF20000000
0000FFFFFFFF20FF20000000
0000FF30101000FF20000000
0000FF20000000FF20000000
2020FF30206000FF20000000
FFFFFFFFFFFF00FF20000000
FF20000020FF00FF20000000
FF20000020FF00FF20000040
FF20000020FF00FF201020FF
FFFFFFFFFFC000FFFFFFFFC0
101010101000001010101000
ENDCHAR
STARTCHAR  4E70
ENCODING  20080
SWIDTH  1000 0
DWIDTH  14 0
BBX  13 11 1 -2
BITMAP
00F0FFFFFFFFFFFFFFFFFFFF00
0010404010108020101080F000
000060F0A020FF200030F04000
00308030A030FF200060A00000
0020C0F06000FF100000000000
000000403060E0000000000000
A0FFFFFFFFFFFFFFFFFFFFFF00
10202040F08020C0E030202000
001080F060000010A0F0600000
60F0C020000000000030E0C010
40400000000000000000006000
ENDCHAR
STARTCHAR  4E71
ENCODING  20081
SWIDTH  1000 0
DWIDTH  14 0
BBX  14 11 0 -2
BITMAP
002020202020408020E000000000
00FFFFFFFFFFE0A030FF00000000
00000010FF10000020FF00000000
20FFFFFFFFFFFFFF40FF00000000
00202020FF20202020FF00000000
00000010FF10004020FF00000000
00FFFFFFFFFFFFFF20FF00000000
00FF3020202030FF20FF00000000
00FF2000000020FF20FF00006000
00FF3020202030FF20FF2020FF10
00FFFFFFFFFFFFA020FFFFFFC000
ENDCHAR
STARTCHAR  4E73
ENCODING  20083
SWIDTH  1000 0
DWIDTH  14 0
BBX  13 12 0 -3
BITMAP
0020202020206030E010000000
00FFFFFFFFF0E060FF20000000
0060A0608000A030FF20000000
0010A040A080C000FF20000000
00F0FFFFFFFFFF60FF20000000
0010202030C0FF40FF20000000
00000010F0C02010FF20000000
106080A0FFE0FF80FF20000000
10C0A080FF403010FF20000040
00001030FF000000FF302030FF
0030FFFFA0000000FFFFFFFFA0
00000000000000000000000000
ENDCHAR
STARTCHAR  4E7E
ENCODING  20094
SWIDTH  1000 0
DWIDTH  14 0
BBX  14 13 0 -3
BITMAP
0000000000000000100000000000
000000A010000000E06000000000
00F0FFFFFFFFE030FFFFFFFFFF00
002030FF4030A0A0802020202000
00FFFFFFFFFFFF80102020204000
00FF30202030FF00A0FFFFFFFF00
00FFFFFFFFFFFF0000000080E000
00FF30202030FF00000030F03000
00FFFFFFFFF080000020E0800000
002020FF3020200010E0A000FF20
20FFFFFFFFFFFF20E0C01010FF20
000000FF20000040FFFFFFFFE000
0000001000000000101010000000
ENDCHAR
STARTCHAR  4E86
ENCODING  20102
SWIDTH  1000 0
DWIDTH  14 0
BBX  11 11 2 -2
BITMAP
FFFFFFFFFFFFFFFFFFFFE0
202020202020202060E0C0
00000000000010A0F08000
000000000060F0C0200000
0000000010FF6000000000
0000000010FF1000000000
0000000010FF1000000000
0000000010FF1000000000
0000000010FF1000000000
0000102020FF1000000000
0000A0FFFFC00000000000
ENDCHAR
STARTCHAR  4E88
ENCODING  20104
SWIDTH  1000 0
DWIDTH  14 0
BBX  13 12 1 -3
BITMAP
00102020202020202020200000
0080FFFFFFFFFFFFFFFFFF0000
000000001000000060F0800000
00000000A0A040E0C020000000
1020202020C0FF602020202000
A0FFFFFFFFFFFFFFFFFFFFFF00
000000000020FF00000060E000
000000000020FF000000C04000
000000000020FF000000000000
000000001030FF000000000000
00000040FFFFA0000000000000
00000000000000000000000000
ENDCHAR
STARTCHAR  4E89
ENCODING  20105
SWIDTH  1000 0
DWIDTH  14 0
BBX  14 13 0 -3
BITMAP
0000001000000000000000000000
000040E000000000000000000000
0010E0FFFFFFFFFFFFFFFF600000
00C0A0202020202080F080100000
0030E0FFFFFFFFFFFFFFFFF01000
000010202020FF30202020FF2000
002020202020FF30202020FF3000
30FFFFFFFFFFFFFFFFFFFFFFFF20
000010202020FF30202020FF1000
0000E0FFFFFFFFFFFFFFFFC00000
000000001010FF20000000000000
00000040FFFFC000000000000000
0000000010000000000000000000
ENDCHAR
STARTCHAR  4E8B
ENCODING  20107
SWIDTH  1000 0
DWIDTH  14 0
BBX  13 12 0 -3
BITMAP
002020202020E0302020202010
00FFFFFFFFFFFFFFFFFFFFFFA0
0000FFFFFFFFFFFFFFFFFF2000
0000FF403030FF403030FF1000
0000FFFFFFFFFFFFFFFFC06000
0060FFFFFFFFFFFFFFFFFFFF20
002030303030FF40303030FF30
20FFFFFFFFFFFFFFFFFFFFFFFF
0060FFFFFFFFFFFFFFFFFFE010
001020203030FF302020200000
00000000E0FFC0000000000000
00000000000000000000000000
ENDCHAR
STARTCHAR  4E8C
ENCODING  20108
SWIDTH  1000 0
DWIDTH  14 0
BBX  12 8 1 -1
BITMAP
00E0FFFFFFFFFFFFFFFFFF00
001020202020202020202000
000000000000000000000000
000000000000000000000000
000000000000000000000000
000000000000000000000000
60FFFFFFFFFFFFFFFFFFFFFF
102020202020202020202020
ENDCHAR
STARTCHAR  4E8D
ENCODING  20109
SWIDTH  1000 0
DWIDTH  14 0
BBX  14 12 0 -3
BITMAP
0010FFFFFFFFFFFFFFFFFFFF2000
0000202020202020202020200000
0000000000000000000000000000
0020202020202020202020202000
20FFFFFFFFFFFFFFFFFFFFFFFF20
00000000000020FF000000000000
00000000000020FF000000000000
00000000000020FF000000000000
00000000000020FF000000000000
00000000001020FF000000000000
0000000040FFFFC0000000000000
0000000000101000000000000000
ENDCHAR
STARTCHAR  4E8E
ENCODING  20110
SWIDTH  1000 0
DWIDTH  14 0
BBX  14 11 0 -2
BITMAP
0000202020202020202020200000
0000FFFFFFFFFFFFFFFFFFF00000
000000000000FF20000000000000
000000000000FF20000000000000
002020202020FF30202020202000
40FFFFFFFFFFFFFFFFFFFFFFFF20
000000000000FF20000000000000
000000000000FF20000000000000
000000000000FF20000000000000
000000102020FF20000000000000
00000080FFFFC000000000000000
ENDCHAR
STARTCHAR  4E8F
ENCODING  20111
SWIDTH  1000 0
DWIDTH  14 0
BBX  13 11 0 -2
BITMAP
00002020202020202020201000
0000FFFFFFFFFFFFFFFFFFE000
00000000000000000000000000
20FFFFFFFFFFFFFFFFFFFFFFFF
002020A0E02020202020202020
000030FF400000000000000000
0000A0E020202020202030C000
0000A0FFFFFFFFFFFFFFFFFF00
0000000000000000000020FF00
0000000000102020202030FF00
0000000000A0FFFFFFFFFFA000
ENDCHAR
STARTCHAR  4E91
ENCODING  20113
SWIDTH  1000 0
DWIDTH  14 0
BBX  14 12 0 -3
BITMAP
0000202020202020202020000000
0000FFFFFFFFFFFFFFFFFF400000
0000000000000000000000000000
0020202020202020202020202000
10FFFFFFFFFFFFFFFFFFFFFFFF10
0000000040F04000000000000000
00000020F0600000000000000000
000010E08000000000E040000000
0000C0A0000000000060F0200000
0080E0608080A0C0E0FFFFC00000
00A0E0E0A0A08060402020E04000
0000000000000000000000100000
ENDCHAR
STARTCHAR  4E92
ENCODING  20114
SWIDTH  1000 0
DWIDTH  14 0
BBX  14 11 0 -2
BITMAP
0020202020202020202020200000
00FFFFFFFFFFFFFFFFFFFFFF6000
0000000060C00000000000000000
00000000E0FFFFFFFFFFFF200000
00000080C02020202040FF100000
000010F03000000000A0A0000000
000020FFFFFFFFFFFFFF40000000
000000202020202080E000000000
0000000000000000C08000000000
0020202020202030FF3020202000
20FFFFFFFFFFFFFFFFFFFFFFFF10
ENDCHAR
STARTCHAR  4E93
ENCODING  20115
SWIDTH  1000 0
DWIDTH  14 0
BBX  12 11 1 -2
BITMAP
001020202020202020202000
00C0FFFFFFFFFFFFFFFFFF00
000000000000000000000000
000000000000000000000000
F0FFFFFFFFFFFFFFFFFFFFFF
102030FF20202020FF302020
000020FF00000000FF200000
000060C000000000FF200000
0030F04000000000FF200000
60F0800000000000FF200000
8060000000000000E0100000
ENDCHAR
STARTCHAR  4E94
ENCODING  20116
SWIDTH  1000 0
DWIDTH  14 0
BBX  14 11 0 -2
BITMAP
0010FFFFFFFFFFFFFFFFFFFFFF00
0000202040F02020202020202000
0000000060C00000000000000000
0000202080A02020202060000000
0020FFFFFFFFFFFFFFFFFF200000
00000000F03000000000FF200000
00000020F00000000000FF200000
00000060E00000000000FF200000
00000080A00000000000FF200000
002020C0802020202020FF302000
30FFFFFFFFFFFFFFFFFFFFFFFF40
ENDCHAR
STARTCHAR  4E95
ENCODING  20117
SWIDTH  1000 0
DWIDTH  14 0
BBX  13 12 1 -3
BITMAP
000000C01000000010C0000000
000010FF1000000020FF000000
A0FFFFFFFFFFFFFFFFFFFFFF00
102020FF3020202030FF202000
000010FF1000000020FF000000
000010FF1000000020FF000000
FFFFFFFFFFFFFFFFFFFFFFFF80
2020A0A02020202030FF202010
0010F0400000000020FF000000
00A0C0000000000020FF000000
20E020000000000020FF000000
00100000000000000000000000
ENDCHAR
STARTCHAR  4E98
ENCODING  20120
SWIDTH  1000 0
DWIDTH  14 0
BBX  14 11 0 -2
BITMAP
00FFFFFFFFFFFFFFFFFFFFFFC000
0020202020202020202020201000
0000202020202020202020400000
0000FFFFFFFFFFFFFFFFFFFF0000
0000FF2000000000000020FF0000
0000FFFFFFFFFFFFFFFFFFFF0000
0000FF3020202020202030FF0000
0000FF3020202020202030FF0000
0000FFFFFFFFFFFFFFFFFFA00000
0020202020202020202020202000
20FFFFFFFFFFFFFFFFFFFFFFFF20
ENDCHAR
STARTCHAR  4E9A
ENCODING  20122
SWIDTH  1000 0
DWIDTH  14 0
BBX  14 11 0 -2
BITMAP
00A0FFFFFFFFFFFFFFFFFFFFFF00
0010202030FF2020FF3020202000
0000000020FF0000FF2000000000
0030C00020FF0000FF2000A08000
0010F03020FF0000FF2010F06000
0000A08020FF0000FF2060F00000
000060E020FF0000FF20C0A00000
000010E030FF0000FF20E0300000
0000000020FF0000FF2000000000
0020202030FF2020FF3020202000
40FFFFFFFFFFFFFFFFFFFFFFFF40
ENDCHAR
STARTCHAR  4E9B
ENCODING  20123
SWIDTH  1000 0
DWIDTH  14 0
BBX  14 11 0 -2
BITMAP
00001000E0100010E00000000000
0020FF00FF200020FF0000104000
0020FF00FF301020FF0030E0C000
0020FF00FFFFA020FFC0E0800000
0020FF00FF200020FF4000006000
0020FF10FF808030FF101020FF10
00C0FFFFF0C0A040FFFFFFFFC000
0040603020202020202020200000
0000FFFFFFFFFFFFFFFFFFE00000
0020202020202020202020202000
20FFFFFFFFFFFFFFFFFFFFFFFF20
ENDCHAR
STARTCHAR  4E9F
ENCODING  20127
SWIDTH  1000 0
DWIDTH  14 0
BBX  13 12 1 -3
BITMAP
10FFFFFFFFFFFFFFFFFFFF6000
0020202020202030A0FFE03000
000000106010A0FFE060002000
20FFFFFFFF20FF60E0E0E0FF10
20FF2030FF20FF10604060FF00
20FF0020FF20FF20F060C0A000
20FF0020FF20FF0060FFF02000
20FFFFFFC020FF60E08080E010
00202010E0FFC0100000001000
10101010202010101010101010
FFFFFFFFFFFFFFFFFFFFFFFF80
10101010101010101010101000
ENDCHAR
STARTCHAR  4EA0
ENCODING  20128
SWIDTH  1000 0
DWIDTH  14 0
BBX  13 5 1 4
BITMAP
00000000008010000000000000
0000000000C0A0000000000000
20202020203060202020202010
FFFFFFFFFFFFFFFFFFFFFFFF80
00000000000000000000000000
ENDCHAR
STARTCHAR  4EA1
ENCODING  20129
SWIDTH  1000 0
DWIDTH  14 0
BBX  13 12 1 -2
BITMAP
00000000000000000000000000
000000000040C0000000000000
000000000000E0600000000000
FFFFFFFFFFFFFFFFFFFFFFFF80
2030FF20202020202020202010
0020FF00000000000000000000
0020FF00000000000000000000
0020FF00000000000000000000
0020FF00000000000000000000
0020FF00000000000000000000
0020FF20202020202020201000
0020FFFFFFFFFFFFFFFFFFA000
ENDCHAR
STARTCHAR  4EA2
ENCODING  20130
SWIDTH  1000 0
DWIDTH  14 0
BBX  14 12 0 -3
BITMAP
0000000000006000000000000000
002020202020E080202020202000
10FFFFFFFFFFFFFFFFFFFFFFFF20
0000002020202020208010000000
000000FFFFFFFFFFFFFF20000000
000000FF2000000000FF20000000
000000FF1000000000FF20000000
000030F00000000000FF20000000
0000A0A00000000000FF20104000
0060F0200000000000FF3030FF00
00E040000000000000FFFFFFA000
0010000000000000000000000000
ENDCHAR
STARTCHAR  4EA4
ENCODING  20132
SWIDTH  1000 0
DWIDTH  14 0
BBX  14 12 0 -2
BITMAP
0000000000002000000000000000
000000000000E080000000000000
20FFFFFFFFFFFFFFFFFFFFFFFF20
0020206020202020202080202000
000040F0300000000020F0600000
0030F080A010000010C080F04000
00406010A0F06020E0C010603000
000000000040F0FFA00000000000
0000000020C0E0A0F06000000000
00001080F0A0100040E0C0200000
0080F0C0300000000010A0F06000
0040400000000000000000403000
ENDCHAR
STARTCHAR  4EA5
ENCODING  20133
SWIDTH  1000 0
DWIDTH  14 0
BBX  14 12 0 -3
BITMAP
0000000000004020000000000000
002020202020A0C0202020202000
20FFFFFFFFFFFFFFFFFFFFFFFF10
00000060F0600000606000000000
0000A0E0401040C0E04010400000
0060FFFFFFFFFF801030E0800000
000030A0FFA0200080F060000000
00A0F0A0300040E0E02000000000
0030100040C0F0A0F0A020000000
002080E0E080100010A0F0801000
00A0C06000000000000030C04000
0000000000000000000000000000
ENDCHAR
STARTCHAR  4EA6
ENCODING  20134
SWIDTH  1000 0
DWIDTH  14 0
BBX  14 13 0 -3
BITMAP
0000000000000000000000000000
000000000030E030000000000000
002020202020A0E0202020202000
20FFFFFFFFFFFFFFFFFFFFFFFF20
00000000FF20000010FF00000000
00002000FF20000010FF00200000
0000E030FF10000010FF40E00000
0060C030F000000010FF00E06000
00E040A0A000000010FF0060C000
001020F03000000010FF00001000
0010E0800000001030FF00000000
0030A000000000E0FFA000000000
0000000000000000000000000000
ENDCHAR
STARTCHAR  4EA7
ENCODING  20135
SWIDTH  1000 0
DWIDTH  14 0
BBX  13 13 0 -3
BITMAP
00000000000000000000000000
000000000000A0600000000000
00F0FFFFFFFFFFFFFFFFFFFFFF
00202030602020202060302020
00000060E000000000E0600000
00002020E040202040F0202010
0020FFFFFFFFFFFFFFFFFFFFA0
0020FF00000000000000000000
0020FF00000000000000000000
0060E000000000000000000000
00A08000000000000000000000
20F03000000000000000000000
00400000000000000000000000
ENDCHAR
STARTCHAR  4EA8
ENCODING  20136
SWIDTH  1000 0
DWIDTH  14 0
BBX  14 13 0 -3
BITMAP
0000000000000000000000000000
000000000030E010000000000000
20FFFFFFFFFFFFFFFFFFFFFFFF30
0020203030303030303040602000
000020FFFFFFFFFFFFFFFFFF0000
000020FF20202020202030FF0000
000020FFFFFFFFFFFFFFFFA00000
00A0FFFFFFFFFFFFFFFFFFFF0000
0010202020203080E0F0A0300000
000000000000F0E0601000000000
000000001010FF10000000000000
00000040FFFFC000000000000000
0000000010100000000000000000
ENDCHAR
STARTCHAR  4EA9
ENCODING  20137
SWIDTH  1000 0
DWIDTH  14 0
BBX  14 13 0 -3
BITMAP
0000000000001000000000000000
000000000040E000000000000000
30FFFFFFFFFFFFFFFFFFFFFFFF30
0020202020202020202020302000
0020FFFFFFFFFFFFFFFFFFFF0000
0020FF202020FF30202030FF0000
0020FF000000FF20000020FF0000
0020FF202020FF30202030FF0000
0020FFFFFFFFFFFFFFFFFFFF0000
0020FF000000FF20000020FF0000
0020FF000000FF20000020FF0000
0020FFFFFFFFFFFFFFFFFFC00000
0000202020202020202010000000
ENDCHAR
STARTCHAR  4EAB
ENCODING  20139
SWIDTH  1000 0
DWIDTH  14 0
BBX  14 13 0 -3
BITMAP
0000000000000000000000000000
00000000000060A0000000000000
30FFFFFFFFFFFFFFFFFFFFFFFF40
0020303030303030303040FF2000
0000FFFFFFFFFFFFFFFFFFFF0000
0000FFFFFFFFFFFFFFFFFFC00000
0010303030303030303030200000
00A0FFFFFFFFFFFFFFFFFFFF0000
00000000000010C0C0A060100000
30FFFFFFFFFFFFFFFFFFFFFFFF20
00202020202040FF202020202000
0000000000E0FFA0000000000000
0000000000101000000000000000
ENDCHAR
STARTCHAR  4EAC
ENCODING  20140
SWIDTH  1000 0
DWIDTH  14 0
BBX  14 13 0 -3
BITMAP
0000000000001000000000000000
000000000040E010000000000000
20FFFFFFFFFFFFFFFFFFFFFFFF20
0010101010101010101020401000
0000FFFFFFFFFFFFFFFFFFFF0000
0000FF3020202020202030FF0000
0000FF3020202020202030FF0000
0000FFFFFFFFFFFFFFFFFFA00000
000000801000FF20008040000000
000080C00000FF200080F0200000
0060E0201010FF10000080E01000
00C03000A0FFC000000000A04000
0000000000000000000000000000
ENDCHAR
STARTCHAR  4EAD
ENCODING  20141
SWIDTH  1000 0
DWIDTH  14 0
BBX  14 12 0 -2
BITMAP
0000000000000000000000000000
00000000000060A0000000000000
30FFFFFFFFFFFFFFFFFFFFFFFF30
0020404040404040404040E02000
0000FFFFFFFFFFFFFFFFFFFF0000
0000FFFFFFFFFFFFFFFFFFC00000
0020303030303030303030206000
00FFFFFFFFFFFFFFFFFFFFFFFF10
00FF40FFFFFFFFFFFFFFFF40FF10
00100020202030FF202020001000
00000000002030FF000000000000
0000000000FFFFA0000000000000
ENDCHAR
STARTCHAR  4EAE
ENCODING  20142
SWIDTH  1000 0
DWIDTH  14 0
BBX  13 13 1 -3
BITMAP
00000000000000000000000000
0000000030E020000000000000
FFFFFFFFFFFFFFFFFFFFFFE000
202030303030303030FF301000
0010FFFFFFFFFFFFFFFF200000
0010FFFFFFFFFFFFFFE0000000
10102020202020202010103000
FFFFFFFFFFFFFFFFFFFFFFFF00
F020303030303030401020F000
0000FFFFFFFFFFFFFF20000000
30A0E00000000000FF2010E010
C0A0100000000000FFFFFFC000
00000000000000001010100000
ENDCHAR
STARTCHAR  4EB2
ENCODING  20146
SWIDTH  1000 0
DWIDTH  14 0
BBX  13 13 1 -3
BITMAP
00000000000010000000000000
000000000060E0000000000000
80FFFFFFFFFFFFFFFFFFFFFF00
10203080202020202080202000
000040F02000000080C0000000
FFFFFFFFFFFFFFFFFFFFFFFF80
202020202030FF202020202010
60FFFFFFFFFFFFFFFFFFFFF000
102040402030FF202060201000
0020E0A00020FF0010F0800000
40E0C0001030FF000030F06000
8080000060FFA000000030A000
00000000000000000000000000
ENDCHAR
STARTCHAR  4EB3
ENCODING  20147
SWIDTH  1000 0
DWIDTH  14 0
BBX  13 13 0 -3
BITMAP
00000000000000000000000000
002020202040E0202020202010
00FFFFFFFFFFFFFFFFFFFFFF60
0000FFFFFFFFFFFFFFFFFF2000
0000FF40303030303030FF1000
0000FFFFFFFFFFFFFFFFC03000
00FFFFFFFFFFFFFFFFFFFFFF00
00FF302020202020306030FF00
006010C0FFFFFFFFF0A0106000
000010304040FFF0F0FFFFFF30
20FFFFFFF0E0FF604030308000
002010000000FFFFFFFFFFA000
00000000000010101010100000
ENDCHAR
STARTCHAR  4EB5
ENCODING  20149
SWIDTH  1000 0
DWIDTH  14 0
BBX  14 12 0 -3
BITMAP
0000000000008060000000000000
30FFFFFFFFFFFFFFFFFFFFFFFF40
001020A010103030A04030801000
00A0FFFFFF10F0F0FFF0F0FF1000
001030FF40006060F00010FF1000
0080C0FFA000A0FFF06010FFE010
001030FF0040E06060A010FFE000
0060FFE01060A0F0600000100000
1080A0E0FFE0E0C00010A0C00000
10A0C0C0304020C0E0E0E0200000
0000C0FFFFE0000040C0FFE0A000
0000403010000000000010404000
ENDCHAR
STARTCHAR  4EBA
ENCODING  20154
SWIDTH  1000 0
DWIDTH  14 0
BBX  13 12 1 -3
BITMAP
000000000010A0000000000000
000000000020FF000000000000
000000000020FF000000000000
000000000060E0000000000000
0000000000C080000000000000
0000000040F020C02000000000
00000020F0600080E010000000
000010E0A0000000A0E0100000
0020E0A00000000000A0C01000
40F08000000000000000C0C000
A060000000000000000010C030
00000000000000000000000000
ENDCHAR
STARTCHAR  4EBB
ENCODING  20155
SWIDTH  1000 0
DWIDTH  14 0
BBX  5 12 4 -3
BITMAP
0000108010
000080E000
0030FF4000
30E0FF2000
A080FF2000
0000FF2000
0000FF2000
0000FF2000
0000FF2000
0000FF2000
0000FF2000
0000100000
ENDCHAR
STARTCHAR  4EBF
ENCODING  20159
SWIDTH  1000 0
DWIDTH  14 0
BBX  13 12 0 -3
BITMAP
00002080102020202020206010
0000A0A060FFFFFFFFFFFFFF20
0060FF2000000000000020FF10
30F0FF20000000000010E08000
6080FF200000000000A0C00000
0000FF2000000000A0C0100000
0000FF20000010C0C010000000
0000FF200020E0C01000000000
0000FF2060F080000000001080
0000FF20FF80202020202030FF
0000FF20FFFFFFFFFFFFFFFFA0
00001000000000000000000000
ENDCHAR
STARTCHAR  4EC0
ENCODING  20160
SWIDTH  1000 0
DWIDTH  14 0
BBX  13 11 0 -2
BITMAP
000020A000000010C000000000
0000A0A000000020FF00000000
0040FF3000000020FF00000000
10E0FF2000000020FF00000000
80A0FF20FFFFFFFFFFFFFFFFC0
0000FF2020202030FF20202010
0000FF2000000020FF00000000
0000FF2000000020FF00000000
0000FF2000000020FF00000000
0000FF2000000020FF00000000
0000FF2000000020FF00000000
ENDCHAR
STARTCHAR  4EC1
ENCODING  20161
SWIDTH  1000 0
DWIDTH  14 0
BBX  13 12 0 -3
BITMAP
00000080100000000000000000
000060E0102020202020202000
0020F04060FFFFFFFFFFFFFF00
10E0FF20000000000000000000
80A0FF20000000000000000000
0000FF20000000000000000000
0000FF20000000000000000000
0000FF20000000000000000000
0000FF20202020202020202020
0000FF40FFFFFFFFFFFFFFFFFF
0000FF20000000000000000000
00002000000000000000000000
ENDCHAR
STARTCHAR  4EC2
ENCODING  20162
SWIDTH  1000 0
DWIDTH  14 0
BBX  13 12 0 -3
BITMAP
000010800000A0100000000000
0000A0A00000FF200000000000
0040FF2080FFFFFFFFFFFFFFFF
30F0FF201020FF3020202030FF
6080FF200000FF1000000020FF
0000FF200010FF1000000020FF
0000FF200030E00000000020FF
0000FF200080A00000000020FF
0000FF2010E0400000000020FF
0000FF2080C0000000102040FF
0000FF20A02000000040F0E080
00000000000000000000000000
ENDCHAR
STARTCHAR  4EC3
ENCODING  20163
SWIDTH  1000 0
DWIDTH  14 0
BBX  13 12 0 -3
BITMAP
00000080102020202020202010
000060E000FFFFFFFFFFFFFFF0
0020F04000000000FF20000000
00C0FF2000000000FF20000000
A0E0FF2000000000FF20000000
3010FF2000000000FF20000000
0000FF2000000000FF20000000
0000FF2000000000FF20000000
0000FF2000000000FF20000000
0000FF2000001010FF10000000
0000FF200040FFFFE000000000
00001000000010100000000000
ENDCHAR
STARTCHAR  4EC4
ENCODING  20164
SWIDTH  1000 0
DWIDTH  14 0
BBX  13 11 0 -2
BITMAP
0000FFFFFFFFFFFFFFFFFFFFA0
0000FF30202020802020202010
0000FF20000020FF0000000000
0000FF20000020FF0000000000
0000FF20000020FF0000000000
0000FF20000060E00000000000
0020FF100000E0608020000000
0060E00000A0E000A0E0200000
00A08000A0E020000080F03000
30F030E0E0200000000080F030
10600060000000000000006010
ENDCHAR
STARTCHAR  4EC5
ENCODING  20165
SWIDTH  1000 0
DWIDTH  14 0
BBX  13 12 0 -3
BITMAP
000010A0101010101010104000
0000A0C040FFFFFFFFFFFFFF20
0060FF3000101010101010FF10
60F0FF2030A00000000060E000
6040FF2010E0A0000020F04000
0000FF200010C0C010E0800000
0000FF20000010C0F0C0000000
0000FF20000010C0F0C0100000
0000FF200020E0C010C0C01000
0000FF2060F080000000C0E010
0000FF20E0400000000000A040
00001000000000000000000000
ENDCHAR
STARTCHAR  4EC6
ENCODING  20166
SWIDTH  1000 0
DWIDTH  14 0
BBX  13 12 1 -3
BITMAP
00003080000010C00000000000
0000C080000010FF0000000000
0060FF10000010FF0000000000
20F0FF00000010FF6010000000
C0A0FF00000010FFC0E0300000
1020FF00000010FF0080F06000
0020FF00000010FF000040A000
0020FF00000010FF0000000000
0020FF00000010FF0000000000
0020FF00000010FF0000000000
0020FF00000010FF0000000000
00000000000000100000000000
ENDCHAR
STARTCHAR  4EC7
ENCODING  20167
SWIDTH  1000 0
DWIDTH  14 0
BBX  14 12 0 -3
BITMAP
000020800010A000000000000000
0000A0A00020FF00000040000000
0060FF20A0FFFFFFFFFFFF100000
40F0FF201030FF202020FF100000
6060FF200020FF000010FF100000
0000FF200040E0000010FF100000
0000FF200080A0000010FF100000
0000FF2000E040000010FF100000
0000FF2060E000000010FF101000
0000FF20E06000000010FF40FF00
0000FF60C00000000000F0F0A000
0000100000000000000000000000
ENDCHAR
STARTCHAR  4EC9
ENCODING  20169
SWIDTH  1000 0
DWIDTH  14 0
BBX  14 12 0 -3
BITMAP
0000108000202020202060000000
0000A0A000FFFFFFFFFFFF100000
0030FF3000FF20000010FF100000
10E0FF2000FF20000010FF100000
80C0FF2000FF20000010FF100000
1010FF2000FF10000010FF100000
0000FF2020FF00000010FF100000
0000FF2040E000000010FF100000
0000FF20A08000000010FF106010
0000FF30F02000000010FF20FF20
0000FF60A00000000010FFFFC000
0000100000000000000010000000
ENDCHAR
STARTCHAR  4ECA
ENCODING  20170
SWIDTH  1000 0
DWIDTH  14 0
BBX  13 13 0 -3
BITMAP
00000000000000000000000000
000030E0A0FFFFFFFFFFC00000
0000C080102020202020F04000
0060F0100030C010000060E000
30F040000000C0C0000000E060
60800000000010400000004060
0000E0FFFFFFFFFFFFFFFF2000
00002020202020202060FF1000
000000000000000060F0600000
0000000000000060F040000000
00000000000080F03000000000
000000000020C0200000000000
00000000000000000000000000
ENDCHAR
STARTCHAR  4ECB
ENCODING  20171
SWIDTH  1000 0
DWIDTH  14 0
BBX  13 13 0 -3
BITMAP
00000000000000000000000000
000000A0A0FFFFFFFFFF800000
000040F0202020202040F02000
0010E080000000000000A0C000
00C0C00010000000001010F040
10A01010FF10000000FF206080
00000010FF10000000FF200000
00000010FF10000000FF200000
00000060E000000000FF200000
000000E08000000000FF200000
000060E01000000000FF200000
0000C0400000000000FF200000
00000000000000000020000000
ENDCHAR
STARTCHAR  4ECD
ENCODING  20173
SWIDTH  1000 0
DWIDTH  14 0
BBX  13 12 0 -3
BITMAP
00001060102020202020201000
000080C060FFFFFFFFFFFFC000
0030F0400000FF200000808000
10E0FF200000FF200060E00000
60A0FF200000FF1000FFFFFFE0
0000FF200020FF0000202030FF
0000FF200060C00000000020FF
0000FF2000C0600000000020FF
0000FF2040F0100000000020FF
0000FF20E060000000001030FF
0000FF2060000000000060FFA0
00000000000000000000000000
ENDCHAR
STARTCHAR  4ECE
ENCODING  20174
SWIDTH  1000 0
DWIDTH  14 0
BBX  12 12 1 -3
BITMAP
000010A000000000A0100000
000020FF00000000FF200000
000020FF00000000FF200000
000020F000000010FF100000
000040E000000030F0000000
000080FF40000060C0000000
0000C0A0F04000A0E0100000
0030F01060E020F0C0C00000
00A080000010A0A010E08000
60E010000060F0100020F060
A040000000C04000000040A0
000000000000000000000000
ENDCHAR
STARTCHAR  4ED1
ENCODING  20177
SWIDTH  1000 0
DWIDTH  14 0
BBX  14 13 0 -3
BITMAP
0000001000000000000000000000
000000E080FFFFFFFFFFF0100000
000060F0102020202020A0A00000
0010E06000000000000020F02000
00C0A00000000000000000A0C000
30C010E0100000000040A010E010
000000FF20000040C0F080000000
000000FF3060E0F0801000000000
000000FFFFC06000000000000000
000000FF30000000000020E00000
000000FF30101010101030FF0000
000000FFFFFFFFFFFFFFFFA00000
0000001010101010101000000000
ENDCHAR
STARTCHAR  4ED3
ENCODING  20179
SWIDTH  1000 0
DWIDTH  14 0
BBX  13 12 0 -2
BITMAP
00000000000000000000000000
000010F080FFFFFFFFFFFF3000
0000A0C010202020202080A000
0030F03000000000000020F010
10E0800000000000000030C080
40C000FFFFFFFFFFFFFFFF4080
000000FF302020202030FF0000
000000FF200000000020FF0000
000000FF20000030FFFFC00000
000000FF20000000202000C010
000000FF30202020202020FF10
000000FFFFFFFFFFFFFFFFC000
ENDCHAR
STARTCHAR  4ED4
ENCODING  20180
SWIDTH  1000 0
DWIDTH  14 0
BBX  13 12 0 -3
BITMAP
00002060002020202020202000
0000A0A030FFFFFFFFFFFFFF40
0030FF20000000000010E0A010
00E0FF200000000020E0A00000
80C0FF2000000000F080000000
2020FF2020202020FF30202010
0000FF20FFFFFFFFFFFFFFFFFF
0000FF2000000000FF20000000
0000FF2000000000FF20000000
0000FF2000000000FF10000000
0000FF200000E0FFE000000000
00000000000010100000000000
ENDCHAR
STARTCHAR  4ED5
ENCODING  20181
SWIDTH  1000 0
DWIDTH  14 0
BBX  14 12 0 -3
BITMAP
000020A000000000E01000000000
000080C000000000FF1000000000
0020F04000000000FF1000000000
00C0FF1020202020FF3020202000
80F0FF10FFFFFFFFFFFFFFFFFF10
4040FF1000000000FF1000000000
0010FF1000000000FF1000000000
0010FF1000000000FF1000000000
0010FF1000000000FF1000000000
0010FF1000101010FF2010101000
0010FF1000FFFFFFFFFFFFFFE000
0000100000000000000000000000
ENDCHAR
STARTCHAR  4ED6
ENCODING  20182
SWIDTH  1000 0
DWIDTH  14 0
BBX  14 12 0 -2
BITMAP
0000000000000000000000000000
000030E000000000FF2000000000
0000A0A010800000FF2000200000
0030FF3020FF3060FFC0F0FF2000
00E0FF40E0FFFFE0FF8040FF2000
60E0FF2080FF1000FF2000FF2000
1020FF2020FF0000FF2000FF2000
0000FF2020FF0000FF2020FF2000
0000FF2020FF0000FF40FFC00000
0000FF2020FF0000200000001000
0000FF2020FF202020202030FF00
0000FF2020FFFFFFFFFFFFFFA000
ENDCHAR
STARTCHAR  4ED7
ENCODING  20183
SWIDTH  1000 0
DWIDTH  14 0
BBX  14 12 0 -3
BITMAP
000000A0200000000010C0000000
000080E0101010101030FF101000
0020F04080FFFFFFFFFFFFFFFF00
00C0FF20001010101030FF101000
80C0FF20006000000060C0000000
1010FF2020E0C02000C060000000
0000FF20000080F0A0E010000000
0000FF2000000080FFC010000000
0000FF20000060F060C0E0400000
0000FF2040E0E040000060F08000
0000FF20C080000000000030C020
0000100000000000000000000000
ENDCHAR
STARTCHAR  4ED8
ENCODING  20184
SWIDTH  1000 0
DWIDTH  14 0
BBX  13 12 0 -3
BITMAP
000010C0100000000010C00000
000080C0000000000020FF0000
0030FF30FFFFFFFFFFFFFFFFA0
10E0FF20202020202030FF2010
A0A0FF20004080000020FF0000
1000FF200030F0400020FF0000
0000FF20000080E01020FF0000
0000FF20000000C08020FF0000
0000FF20000000101020FF0000
0000FF20000000002030FF0000
0000FF2000000010FFFFA00000
00001000000000000000000000
ENDCHAR
STARTCHAR  4ED9
ENCODING  20185
SWIDTH  1000 0
DWIDTH  14 0
BBX  13 12 0 -3
BITMAP
00001060000000006000000000
000080A000000010FF00000000
0010F03040000010FF00000040
00A0FF10FF200010FF000020FF
60E0FF10FF200010FF000020FF
1030FF10FF200010FF000020FF
0000FF10FF200010FF000020FF
0000FF10FF200010FF000020FF
0000FF10FF200010FF000020FF
0000FF10FF301020FF101030FF
0000FF10FFFFFFFFFFFFFFFFFF
00001000000000000000000000
ENDCHAR
STARTCHAR  4EDD
ENCODING  20189
SWIDTH  1000 0
DWIDTH  14 0
BBX  13 13 1 -3
BITMAP
00000000000000000000000000
000080A0C0FFFFFFFFFF800000
0010F040102020202040F01000
00A0C000000000000000C08000
80E0100000000000000030F020
6020202020202020202020A040
0000FFFFFFFFFFFFFFFFE00000
000000000020FF000000000000
000000000020FF000000000000
000000000020FF000000000000
001010101020FF101010101000
10FFFFFFFFFFFFFFFFFFFFFF00
00101010101010101010101000
ENDCHAR
STARTCHAR  4EDE
ENCODING  20190
SWIDTH  1000 0
DWIDTH  14 0
BBX  13 12 0 -3
BITMAP
000010A0102020202020202080
000060E000FFFFFFFFFFFFFFFF
0010E060000000FF20000020FF
00A0FF20002000FF20000020FF
40F0FF2000E040FF20000020FF
1030FF2060E000FF10000020FF
0000FF20C06030F000000020FF
0000FF201010A0A000000020FF
0000FF200040F02000000020FF
0000FF2040F0600000001030FF
0000FF20806000000000E0FFA0
00001000000000000000000000
ENDCHAR
STARTCHAR  4EDF
ENCODING  20191
SWIDTH  1000 0
DWIDTH  14 0
BBX  14 12 0 -3
BITMAP
000000A020101010101030801000
000060E060FFFFFFFFFFF0C03000
0020F04000101030FF1000000000
10E0FF2000000020FF0000000000
80C0FF2000000020FF0000000000
0000FF2010101020FF1010101000
0000FF40FFFFFFFFFFFFFFFFFF00
0000FF2010101020FF1010101000
0000FF2000000020FF0000000000
0000FF2000000020FF0000000000
0000FF2000000020FF0000000000
0000100000000000100000000000
ENDCHAR
STARTCHAR  4EE1
ENCODING  20193
SWIDTH  1000 0
DWIDTH  14 0
BBX  13 13 0 -3
BITMAP
00000000001000000000000000
000060C020F000000000000000
0000E06080FFFFFFFFFFFFFFFF
0060FF10F06020202020202020
10E0FF30A01010101010104000
80E0FF0000F0FFFFFFFFFFFF20
1030FF00001010101010A0E010
0020FF000000000010C0E01000
0020FF0000000040E0A0100000
0020FF000010A0F060000030F0
0020FF0010F0C03020202040E0
0020FF0010F0F0F0F0F0F0F080
00001000000000000000000000
ENDCHAR
STARTCHAR  4EE3
ENCODING  20195
SWIDTH  1000 0
DWIDTH  14 0
BBX  14 12 0 -3
BITMAP
000010A0000000C0106020000000
000080C0000000FF2080F0400000
0020F040000000FF200060600000
00C0FF20000010FF6080A0C0A000
80C0FF30E0F0FFFFE0A080603000
1010FF20403010E0400000000000
0000FF20000000A0A00000000000
0000FF2000000030F02000000000
0000FF2000000000A0E020002000
0000FF200000000000A0F0A0E000
0000FF2000000000000040E06000
0000100000000000000000000000
ENDCHAR
STARTCHAR  4EE4
ENCODING  20196
SWIDTH  1000 0
DWIDTH  14 0
BBX  13 13 0 -3
BITMAP
00000000000000000000000000
000020E0A0FFFFFFFFFFA00000
0000A0A0102020202030F03000
0060F0100030E030000080C000
30F060000000A0F0100010E060
608000101010104010101060A0
0000E0FFFFFFFFFFFFFFFF0000
000010101010101030E0A00000
0000000000000020E0A0000000
00000020A04020E0A000000000
0000002080E0FFF06010000000
0000000000003080E030000000
00000000000000000000000000
ENDCHAR
STARTCHAR  4EE5
ENCODING  20197
SWIDTH  1000 0
DWIDTH  14 0
BBX  13 12 1 -3
BITMAP
10E0000000000000E010000000
20FF000000000000FF20000000
20FF008060000000FF20000000
20FF0030F0300020FF00000000
20FF000060E00060E000000000
20FF0000003000C08000000000
20FF0000000030F04080000000
20FF00000000C0A020F0400000
20FF10806060F0100060E01000
40FFF0A040F040000000C0A000
A0A0200040800000000020E010
00000000000000000000000000
ENDCHAR
STARTCHAR  4EE8
ENCODING  20200
SWIDTH  1000 0
DWIDTH  14 0
BBX  14 12 0 -3
BITMAP
000030A000000000000000000000
0000A0A000FFFFFFFFFFFFFFFF00
0030FF2000202020202020202000
10E0FF1000000000000000000000
80C0FF1000202020202020200000
1010FF1000FFFFFFFFFFFFFF1000
0000FF1000000000000000000000
0000FF1000000000000000000000
0000FF1000000000000000000000
0000FF1020202020202020202000
0000FF20F0F0F0F0F0F0F0F0F020
0000100000000000000000000000
ENDCHAR
STARTCHAR  4EEA
ENCODING  20202
SWIDTH  1000 0
DWIDTH  14 0
BBX  13 12 0 -3
BITMAP
000030A0000000400000000000
0000A0A0206000C0A00000A080
0030FF3030F04010E06030F020
10E0FF200060F0303020C08000
80C0FF20000080E02080E01000
1010FF20000000A0E0F0300000
0000FF2000000030FFC0000000
0000FF20000030F080E0800000
0000FF200040F0800020F06000
0000FF2060F06000000040F040
0000FF20A04000000000006080
00001000000000000000000000
ENDCHAR
STARTCHAR  4EEB
ENCODING  20203
SWIDTH  1000 0
DWIDTH  14 0
BBX  14 12 0 -2
BITMAP
0000002000000000000000000000
000060E0000000A0400000000000
0000E060000080E0100030000000
0080FF200060F0200060F0100000
40F0FF2040F0400040F040000000
6060FF40F0600020F06000000000
0000FF40800010E0800000000000
0000FF200000C0A0000000000000
0000FF2000A0C000000060800000
0000FF2080E01000001060FF3000
0000FF40FFF0E0F0FFFFF0F0C000
0000A02060403020100000106000
ENDCHAR
STARTCHAR  4EEC
ENCODING  20204
SWIDTH  1000 0
DWIDTH  14 0
BBX  13 12 0 -3
BITMAP
00003080108000000000000010
0000C08020E0A040E0E0E0E0FF
0060FF108040E02010101030FF
30F0FF20FF20000000000020FF
4060FF20FF20000000000020FF
0000FF20FF20000000000020FF
0000FF20FF20000000000020FF
0000FF20FF20000000000020FF
0000FF20FF20000000000020FF
0000FF20FF20000000002030FF
0000FF20FF2000000030FFFFA0
00000000000000000000000000
ENDCHAR
STARTCHAR  4EF0
ENCODING  20208
SWIDTH  1000 0
DWIDTH  14 0
BBX  13 11 0 -2
BITMAP
00004080000010603010101010
0000E080FFFFFFC040FFFFFFFF
0080FF10FF30100020FF1020FF
60F0FF20FF20000020FF0020FF
4040FF20FF20000020FF0020FF
0000FF20FF20000020FF0020FF
0000FF20FF20000020FF0020FF
0000FF20FF20000020FF0020FF
0000FF20FF4080A020FF1030FF
0000FF40FFFFC06020FFA0FFA0
0000FF206010000020FF000000
ENDCHAR
STARTCHAR  4EF2
ENCODING  20210
SWIDTH  1000 0
DWIDTH  14 0
BBX  13 11 0 -2
BITMAP
000030A000000010C000000000
0000A0A000000020FF00000000
0020FF4020202030FF20202040
00C0FF20FFFFFFFFFFFFFFFFFF
80E0FF20FF200020FF000020FF
3030FF20FF200020FF000020FF
0000FF20FF200020FF000020FF
0000FF20FF302030FF202030FF
0000FF20FFFFFFFFFFFFFFFFA0
0000FF2000000020FF00000000
0000FF2000000020FF00000000
ENDCHAR
STARTCHAR  4EF3
ENCODING  20211
SWIDTH  1000 0
DWIDTH  14 0
BBX  13 12 0 -3
BITMAP
000030A0A010000010A0000000
0000A080FF20000020FF000010
0040FF20FF20000020FF20C0C0
20E0FF20FFFFFF8020FFF08000
80A0FF20FF30201020FF300000
0000FF20FF20000020FF000000
0000FF20FF20000020FF000000
0000FF20FF20000020FF000000
0000FF20FF20103020FF0020FF
0000FF20FFC0FFA020FF2030FF
0000FF60C080200020F0F0F0A0
00001000000000000000000000
ENDCHAR
STARTCHAR  4EF5
ENCODING  20213
SWIDTH  1000 0
DWIDTH  14 0
BBX  13 12 0 -3
BITMAP
000030A0006060000000000000
0000A0A000E060202020202010
0020FF3060FFFFFFFFFFFFFF60
00C0FF20E0600010FF10000000
80E0FF40A0000010FF10000000
3020FF1000000010FF10000000
0000FF1010202020FF20202020
0000FF10E0FFFFFFFFFFFFFFFF
0000FF1000000010FF10000000
0000FF1000000010FF10000000
0000FF1000000000F010000000
00001000000000000000000000
ENDCHAR
STARTCHAR  4EF6
ENCODING  20214
SWIDTH  1000 0
DWIDTH  14 0
BBX  13 12 0 -3
BITMAP
000030A000A03000C010000000
0000A08010FF2000FF20000000
0040FF2080FFFFFFFFFFFFFF30
20F0FF20E0602020FF30202000
8080FF2080000000FF20000000
0000FF2000000000FF20000000
0000FF2000000000FF20000000
0000FF20FFFFFFFFFFFFFFFFC0
0000FF2020202020FF30202010
0000FF2000000000FF20000000
0000FF2000000000FF20000000
00002000000000000000000000
ENDCHAR
STARTCHAR  4EF7
ENCODING  20215
SWIDTH  1000 0
DWIDTH  14 0
BBX  14 12 0 -2
BITMAP
0000000000000000000000000000
000020A00080A0FFFFFFFFA00000
0010E08010F04020202030F01000
10C0FF20A0C00000000000A08000
60C0FF30E020200000002040F000
0000FF200010FF100000FF202000
0000FF200010FF100000FF200000
0000FF200020FF000000FF200000
0000FF200060E0000000FF200000
0000FF2000C080000000FF200000
0000FF2040F010000000FF200000
0000FF20608000000000FF200000
ENDCHAR
STARTCHAR  4EFB
ENCODING  20219
SWIDTH  1000 0
DWIDTH  14 0
BBX  13 13 0 -3
BITMAP
00000000000000000000000000
000010E0200000000000004040
0010E0A000E0FFFFFFFFFFE080
30E0FF2000102020FF30100000
6080FF2000000000FF20000000
0000FF2000000000FF20000000
0000FF20C0FFFFFFFFFFFFFFFF
0000FF2010202020FF30202020
0000FF2000000000FF20000000
0000FF2000000000FF20000000
0000FF2000202020FF30202020
0000FF2040FFFFFFFFFFFFFFFF
00002000000000000000000000
ENDCHAR
STARTCHAR  4EFD
ENCODING  20221
SWIDTH  1000 0
DWIDTH  14 0
BBX  14 13 0 -3
BITMAP
0000001000000000000000000000
000020F02060A0E0FFFFFFC00000
0000E0A010E04010202020F03000
00A0FF20A0C0000000000080C000
60E0FF40E010000000000010F030
0020FF2000102020202020406010
0000FF2000E0FFFFFFFFFFFF0000
0000FF200000FF20000020FF0000
0000FF200020FF10000020FF0000
0000FF200080C000000020FF0000
0000FF2040F03000001030FF0000
0000FF20E060000060FFFFA00000
0000200010000000000000000000
ENDCHAR
STARTCHAR  4EFF
ENCODING  20223
SWIDTH  1000 0
DWIDTH  14 0
BBX  13 12 0 -3
BITMAP
00000080100000206000000000
0000A0E020202030F030202020
00A0FF30E0FFFFFFFFFFFFFFFF
60E0FF200010FF100000000000
0000FF200010FF202020204000
0000FF200010FFFFFFFFFFFF20
0000FF200030F000000000FF20
0000FF200080C000000000FF20
0000FF2010E04000000000FF20
0000FF2080C00000001020FF10
0000FF20E02000000060FFC000
00001000000000000000000000
ENDCHAR
STARTCHAR  4F01
ENCODING  20225
SWIDTH  1000 0
DWIDTH  14 0
BBX  14 12 0 -2
BITMAP
0000000000000000000000000000
000010F080FFFFFFFFFFFF400000
0000A0E010202020202080E00000
0040FF4000000000000000E08000
10E0A000000000F010000040F020
00601010400000FF200000003000
00000020FF0000FF302020100000
00000020FF0000FFFFFFFF800000
00000020FF0000FF200000000000
00000020FF0000FF200000000000
00202030FF2020FF302020202000
20FFFFFFFFFFFFFFFFFFFFFFFF40
ENDCHAR
STARTCHAR  4F09
ENCODING  20233
SWIDTH  1000 0
DWIDTH  14 0
BBX  13 12 0 -3
BITMAP
000000A0100000802000000000
0000A0E0102020A0E020202020
00A0FF20A0FFFFFFFFFFFFFFFF
60E0FF20002020202020801000
0010FF2000FFFFFFFFFFFF2000
0000FF2000FF20000000FF2000
0000FF2000FF20000000FF2000
0000FF2000FF10000000FF2000
0000FF2040F000000000FF2010
0000FF20E08000000000FF40FF
0000FFA0C00000000000FFFFA0
00001010100000000000100000
ENDCHAR
STARTCHAR  4F0A
ENCODING  20234
SWIDTH  1000 0
DWIDTH  14 0
BBX  13 12 0 -2
BITMAP
00000010000000000000000000
000020E020202020202030E000
0000C0C020FFFFFFFFFFFFFF00
0080FF30000000FF200020FF00
60F0FF20202020FF302030FF10
1030FF20FFFFFFFFFFFFFFFFE0
0000FF20000010FF100020FF00
0000FF2020FFFFFFFFFFFFE000
0000FF200030F0402020100000
0000FF2010C080000000000000
0000FF20C0C000000000000000
0000C010800000000000000000
ENDCHAR
STARTCHAR  4F0D
ENCODING  20237
SWIDTH  1000 0
DWIDTH  14 0
BBX  13 11 0 -2
BITMAP
000010A0101010101010101010
0000C0C000FFFFFFFFFFFFFFFF
10C0FF20001010C08010101010
3080FF20000000F02000003000
0000FF2000F0FFFFFFFFFFFF00
0000FF20002080C0202030FF00
0000FF200000A080000020FF00
0000FF200000E040000020FF00
0000FF200010FF10000020FF00
0000FF203060F030303040FF30
0000FF40E0E0E0E0E0E0E0E0E0
ENDCHAR
STARTCHAR  4F0E
ENCODING  20238
SWIDTH  1000 0
DWIDTH  14 0
BBX  13 13 0 -3
BITMAP
00000000000000000000000000
000020E010000010C000000000
0010E0A0FFFFFFFFFFFFFFFF30
10C0FF2020202030FF20202000
60C0FF2000101020FF10104000
0000FF2060FFFFFFFFFFFFFF10
0000FF2000401010101080E000
0000FF2020F0C0200060F03000
0000FF200010A0F0C0F0300000
0000FF20000060E0F0E0400000
0000FF3060E0E0600060F08000
0000FF60C0600000000020A040
00001000000000000000000000
ENDCHAR
STARTCHAR  4F0F
ENCODING  20239
SWIDTH  1000 0
DWIDTH  14 0
BBX  13 12 0 -3
BITMAP
000010A010000010A000400000
0000A0C000000020FF00E06000
00A0FF2000000020FF00406000
60E0FF20FFFFFFFFFFFFFFFFA0
0000FF2010101040F010101010
0000FF2000000080C010000000
0000FF20000010F060E0200000
0000FF200000A0A00080C00000
0000FF200080E0100000E06000
0000FF2080E02000000040E010
0000FF20A02000000000008040
00001000000000000000000000
ENDCHAR
STARTCHAR  4F10
ENCODING  20240
SWIDTH  1000 0
DWIDTH  14 0
BBX  13 12 0 -3
BITMAP
000000A0200010A00080100000
0000A0E0000020FF10C0E02000
0080FF20000020FF0020806020
60E0FF2060A0C0FFF0FFE0C030
0010FF20808080FF2000000000
0000FF20000010FF100040E010
0000FF20000000E04060F06000
0000FF2000000080E0F0400000
0000FF20000060E0FFA0001060
0000FF2030C0E06020E0E0A0E0
0000FF2040801000000060C080
00001000000000000000000000
ENDCHAR
STARTCHAR  4F11
ENCODING  20241
SWIDTH  1000 0
DWIDTH  14 0
BBX  13 11 0 -2
BITMAP
0000008010000010A000000000
000080C000000020FF00000000
0040FF2020202030FF20202010
40F0FF20FFFFFFFFFFFFFFFFF0
2040FF200020FF30FF00400000
0000FF200060C020FF10F02000
0000FF2000C08020FF00A08000
0000FF2030FF2020FF0040E000
0000FF20A0A00020FF0000F030
0000FF30F0300020FF0000A080
0000FF60A0000020FF000030A0
ENDCHAR
STARTCHAR  4F17
ENCODING  20247
SWIDTH  1000 0
DWIDTH  14 0
BBX  13 12 1 -2
BITMAP
00000000000000000000000000
0000C0A0FFFFFFFFFFFFA00000
0060E010202020202030F04000
20F0604000000000400060E010
80A020FF00000000FF1000A020
000020FF00000000FF10000000
000040E000000020FF00000000
000080E060000080F0A0000000
0010F060F03010E060F0400000
00A0A00060E0A0C00060E01000
80E0100000A0E0100000A0A000
40100000004020000000104000
ENDCHAR
STARTCHAR  4F18
ENCODING  20248
SWIDTH  1000 0
DWIDTH  14 0
BBX  13 12 0 -3
BITMAP
000010A0100010C00010800000
0000A0C0000020FF0010E0A000
0080FF20202030FF202040A010
60F0FF20FFFFFFFFFFFFFFFFE0
1010FF20000030F00000000000
0000FF20000060C010E0000000
0000FF200000C08020FF000000
0000FF200030F01020FF000000
0000FF2000C0800020FF001060
0000FF2080E0100020FF2030FF
0000FF30E030000020FFFFFFA0
00000000000000000000000000
ENDCHAR
STARTCHAR  4F19
ENCODING  20249
SWIDTH  1000 0
DWIDTH  14 0
BBX  14 12 0 -3
BITMAP
000010A010000010A00000000000
0000C0A000000020FF0000000000
00A0FF1080400020FF0000606000
80E0FF2060E00020FF0020F04000
1010FF2000E08040E000E0800000
0000FF200030A080A030C0000000
0000FF20000010F0404000000000
0000FF200000A0C010E080000000
0000FF200060F0200020F0600000
0000FF2060F04000000040F04000
0000FF20E040000000000040C000
0000100000000000000000000000
ENDCHAR
STARTCHAR  4F1A
ENCODING  20250
SWIDTH  1000 0
DWIDTH  14 0
BBX  14 13 0 -3
BITMAP
0000001000000000000000000000
000030F0A0FFFFFFFFFFFFA00000
0000E08010202020202030F03000
0080E0100000000000000080C000
10C030A0FFFFFFFFFFFFFF10E010
0000001010101010101010000000
0010202020202020202020202000
00FFFFFFFFFFFFFFFFFFFFFFFF00
00000020F0600000000020000000
000000E0A00000000030F0100000
0000A0E03040606080A0F0A00000
0000F0FFF0E0C0C0A08080F02000
0000200000000000000000300000
ENDCHAR
STARTCHAR  4F1B
ENCODING  20251
SWIDTH  1000 0
DWIDTH  14 0
BBX  13 12 0 -3
BITMAP
00000040002020202020202010
000060F030FFFFFFFFFFFFFF80
0060FF4020FF00000000002000
40F0FF2020FF30E0100030F010
1020FF2020FF00A0E010E08000
0000FF2020FF0000C0F0C00000
0000FF2020FF000080FFA00000
0000FF2020FF00A0E040E08000
0000FF2020FF60C0200030F030
0000FF2020FF10101010102000
0000FF2020FFFFFFFFFFFFFFA0
00000000001010101010101010
ENDCHAR
STARTCHAR  4F1E
ENCODING  20254
SWIDTH  1000 0
DWIDTH  14 0
BBX  13 13 0 -3
BITMAP
00000000000000000000000000
000060A0F0FFFFFFFFFFE01000
0010E040101010101010C0A000
00A0C00000006010000020F040
20E040300000FF2000004060C0
001060E00000FF200060F01000
000000E06000FF2020F0600000
00000040C000FF2080A0000000
001010101010FF301010101010
00FFFFFFFFFFFFFFFFFFFFFFE0
000000000000FF200000000000
000000000000FF200000000000
00000000000000000000000000
ENDCHAR
STARTCHAR  4F1F
ENCODING  20255
SWIDTH  1000 0
DWIDTH  14 0
BBX  13 12 0 -3
BITMAP
0000006010000010C000000000
000080E020202030FF20202010
0080FF30FFFFFFFFFFFFFFFFC0
40C0FF2000000020FF00000000
0000FF2040FFFFFFFFFFFFFF00
0000FF2010202030FF20202000
0000FF2000000020FF00000030
0000FF20FFFFFFFFFFFFFFFFFF
0000FF2000000020FF000020FF
0000FF2000000020FF001030FF
0000FF2000000020FF0080FFA0
00000000000000001000000000
ENDCHAR
STARTCHAR  4F20
ENCODING  20256
SWIDTH  1000 0
DWIDTH  14 0
BBX  13 12 0 -2
BITMAP
00000010000000001000000000
000030F010000060E000000000
0020E080E0FFFFFFFFFFFFFF00
20E0FF20102060E02020202000
60C0FF202020C0A02020202020
0010FF30FFFFFFFFFFFFFFFFFF
0000FF2010E060000000000000
0000FF2030FFFFFFFFFFFFFF30
0000FF20002020202030E0E010
0000FF200060300030E0C01000
0000FF2000C0F0FFF0F0603000
0000E010000000206080C0A000
ENDCHAR
STARTCHAR  4F22
ENCODING  20258
SWIDTH  1000 0
DWIDTH  14 0
BBX  14 12 0 -3
BITMAP
0000006000102020202020201000
000080E010F0FFFFFFFFFFFFF000
0080FF40000060100000FF200000
40E0FF200040E0000000FF200000
0010FF2000E060202020FF302000
0000FF2000FFFFFFFFFFFFFFFF20
0000FF20000010F02000FF200000
0000FF200000A0A00000FF200000
0000FF200060E0100000FF200000
0000FF2060F040001020FF200000
0000FF2080600000C0FFC0000000
0000000000000000000000000000
ENDCHAR
STARTCHAR  4F24
ENCODING  20260
SWIDTH  1000 0
DWIDTH  14 0
BBX  13 11 0 -2
BITMAP
000040A0008060000000000000
0010E08040FFFFFFFFFFFFFFFF
30E0FF40F08020C01010101010
40A0FF40A00020FF0000000000
0000FF20A0FFFFFFFFFFFFE020
0000FF20102080E0202020FF20
0000FF200000C060000000FF20
0000FF200040F010000000FF20
0000FF2010E06000000000FF20
0000FF20A0A00000001020FF20
0000FF30A000000000F0FFC000
ENDCHAR
STARTCHAR  4F25
ENCODING  20261
SWIDTH  1000 0
DWIDTH  14 0
BBX  14 12 0 -2
BITMAP
0000000000100000000010000000
000030E010FF20000040F0200000
0020E08000FF200060F060000000
30E0FF2000FF20A0E04000000000
3080FF2000FF2060100000000000
0000FF40FFFFFFFFFFFFFFFFFF10
0000FF2020FF3020E08020202000
0000FF2000FF200060E010000000
0000FF2000FF200000C080000000
0000FF2000FF40806020F0400000
0000FF2030FFFFA0300060F03000
0000C01060802000000000601000
ENDCHAR
STARTCHAR  4F26
ENCODING  20262
SWIDTH  1000 0
DWIDTH  14 0
BBX  14 13 0 -3
BITMAP
0000000000000000000000000000
000020E010E080FFFFFFFFE00000
0010E08040F01020202020E06000
20E0FF20E060000000000060E010
40C0FF80E000000000000000E060
0000FF3020F010000000A0A01000
0000FF2000FF100010C0E0300000
0000FF2000FF1040E0C010000000
0000FF2000FFA0F0800000000000
0000FF2000FFC02000000010A000
0000FF2000FF302020202030FF00
0000FF2000FFFFFFFFFFFFFFE000
0000000000000000000000000000
ENDCHAR
STARTCHAR  4F27
ENCODING  20263
SWIDTH  1000 0
DWIDTH  14 0
BBX  14 13 0 -3
BITMAP
0000000000000000000000000000
000020E010C080FFFFFFF0200000
0010E08040F010101010A0C00000
20E0FF30E0600000000010E08000
40A0FF80C000000000003040E010
0000FF2000FFFFFFFFFFFF101000
0000FF2000FF30202020FF100000
0000FF2000FF20000000FF100000
0000FF2000FF20001020FF100000
0000FF2000FF2000A0FFC0106000
0000FF2000FF302020202030FF00
0000FF2000FFFFFFFFFFFFFFA000
0000100000000000000000000000
ENDCHAR
STARTCHAR  4F2A
ENCODING  20266
SWIDTH  1000 0
DWIDTH  14 0
BBX  13 12 0 -3
BITMAP
000010A010601010A000000000
0000A0C010E0C030FF00000000
00A0FF201040F060FF202020A0
60F0FF2060FFFFFFFFFFFFFFFF
1020FF2000000020FF000020FF
0000FF2000000060C0200020FF
0000FF20000000E060C04020FF
0000FF20000080E00020E040FF
0000FF200060F03000006040FF
0000FF2080F0400000102030FF
0000FF20A03000000060FFFFA0
00001000000000000000000000
ENDCHAR
STARTCHAR  4F2B
ENCODING  20267
SWIDTH  1000 0
DWIDTH  14 0
BBX  13 12 0 -2
BITMAP
00000000000000001000000000
000020A000000060E000000000
0010E0A0A0A0A0A0FFA0A0A0FF
30E0FF20FFC0A0A0A0A0A0C0FF
4060FF20FF20000000000020FF
0000FF20000000000000000000
0000FF20000000000000000000
0000FF20000000000000000000
0000FF20000000000000000000
0000FF20000000000000000000
0000FF20202020202020202010
0000FF20FFFFFFFFFFFFFFFFF0
ENDCHAR
STARTCHAR  4F2F
ENCODING  20271
SWIDTH  1000 0
DWIDTH  14 0
BBX  13 12 0 -3
BITMAP
000000A010000030A000000000
0000A0C0002020E0A020202080
00A0FF2020FFFFFFFFFFFFFFFF
60E0FF2020FF000000000020FF
0000FF2020FF000000000020FF
0000FF2020FF101010101030FF
0000FF2020FFFFFFFFFFFFFFFF
0000FF2020FF000000000020FF
0000FF2020FF000000000020FF
0000FF2020FF101010101030FF
0000FF2020FFFFFFFFFFFFFFA0
00001000001010101010100000
ENDCHAR
STARTCHAR  4F30
ENCODING  20272
SWIDTH  1000 0
DWIDTH  14 0
BBX  13 12 0 -3
BITMAP
000010A010000010FF10000000
0000C0C020202020FF20202020
10A0FF20F0FFFFFFFFFFFFFFFF
60C0FF2000000010FF10000000
0000FF2000000010FF10000000
0000FF2020FFFFFFFFFFFFFF10
0000FF2020FF2020202020FF20
0000FF2020FF0000000000FF20
0000FF2020FF0000000000FF20
0000FF2020FF1010101010FF10
0000FF2020FFFFFFFFFFFFE000
00000000001010101010100000
ENDCHAR
STARTCHAR  4F32
ENCODING  20274
SWIDTH  1000 0
DWIDTH  14 0
BBX  13 12 0 -3
BITMAP
000040A000202020202030E000
0020E06020FFFFFFFFFFFFFF10
40E0FF1020FF0000000010FF00
6060FF2020FFFFFFFFFFFFE000
0000FF2020FF20202020200000
0000FF2020FF20F0000020C020
0000FF2030F020FF0040E0A000
0000FF2040E020FFA0F0600000
0000FF2080A020FFA020004010
0000FF20E06020FF101010FF20
0000FF40E01020FFFFFFFFE000
00000000000000101010100000
ENDCHAR
STARTCHAR  4F34
ENCODING  20276
SWIDTH  1000 0
DWIDTH  14 0
BBX  13 12 0 -2
BITMAP
00000000000000000000000000
000020E010400010E010003010
0010E0A010E04010FF1010E060
20E0FF200040E010FF10A0A000
3080FF2000003010FF10201000
0000FF2000FFFFFFFFFFFFFFA0
0000FF2000202020FF20202010
0000FF2000000010FF10000000
0000FF2020202030FF20202020
0000FF20E0FFFFFFFFFFFFFFFF
0000FF2000000010FF10000000
0000FF2000000010FF10000000
ENDCHAR
STARTCHAR  4F36
ENCODING  20278
SWIDTH  1000 0
DWIDTH  14 0
BBX  14 13 0 -3
BITMAP
0000002000000000000000000000
000030F02080A0FFFFFFFF800000
0010E0A010F04010202040F01000
10E0FF20A0C00060400000A0A000
40A0FF30E0200040F0800020E000
0000FF2000000000206000000000
0000FF2080FFFFFFFFFFFFFF0000
0000FF20102020202020C0E00000
0000FF200010000010E0C0100000
0000FF200080E080E0A010000000
0000FF20001060C0FFC040000000
0000FF20000000002080C0000000
0000000000000000000000000000
ENDCHAR
STARTCHAR  4F38
ENCODING  20280
SWIDTH  1000 0
DWIDTH  14 0
BBX  13 11 1 -2
BITMAP
000030A000000010C000000000
0020E08020202030FF20206010
20E0FF00FFFFFFFFFFFFFFFF20
A0A0FF00FF200020FF0000FF20
0020FF00FF302030FF2020FF20
0020FF00FFFFFFFFFFFFFFFF20
0020FF00FF200020FF0000FF20
0020FF00FF200020FF0000FF10
0020FF00FFFFFFFFFFFFFFE000
0020FF0020202030FF20200000
0020FF0000000020FF00000000
ENDCHAR
STARTCHAR  4F3A
ENCODING  20282
SWIDTH  1000 0
DWIDTH  14 0
BBX  13 12 0 -3
BITMAP
00000080100000000000000030
000080E030F0F0F0F0F0F0F0FF
0080FF301020202020202020FF
40C0FF20C0FFFFFFFFFFFF20FF
0000FF200020202020208020FF
0000FF2010FFFFFFFFFFFF20FF
0000FF2010FF00000020FF20FF
0000FF2010FF00000020FF20FF
0000FF2010FFFFFFFFFFC020FF
0000FF200020202020301030FF
0000FF200000000040FFFFFFC0
00000000000000000010100000
ENDCHAR
STARTCHAR  4F3C
ENCODING  20284
SWIDTH  1000 0
DWIDTH  14 0
BBX  14 12 0 -3
BITMAP
000010A010000000001080000000
0000A0C020FF20A00020FF000000
00A0FF2020FF00F03020FF000000
40E0FF2020FF00A08020FF000000
0000FF2020FF0040E020FF000000
0000FF2020FF00004040E0000000
0000FF2020FF000000A0A0100000
0000FF2020FF000010F060E00000
0000FF2020FF80A080C000E06000
0000FF2020FFE060F0200060E010
0000FF2080C0108060000000C030
0000000000000000000000000000
ENDCHAR
STARTCHAR  4F3D
ENCODING  20285
SWIDTH  1000 0
DWIDTH  14 0
BBX  13 12 0 -3
BITMAP
000010A010A010000000000000
0000A0A010FF402040E0E0E0FF
0080FF20A0FFFFFFFFFF4040FF
30E0FF2000FF2020FFFF2020FF
0010FF2000FF2020FFFF2020FF
0000FF2010FF1020FFFF2020FF
0000FF2040E00020FFFF2020FF
0000FF2060A00020FFFF2020FF
0000FF20A0800020FFFF2020FF
0000FF20E0201030FFFF2020FF
0000FF30C000C0FFA0FFFFFFC0
00000000000000000010101000
ENDCHAR
STARTCHAR  4F43
ENCODING  20291
SWIDTH  1000 0
DWIDTH  14 0
BBX  13 11 1 -2
BITMAP
000010A0101010101010104000
0010C0A0FFFFFFFFFFFFFFFF20
10C0FF00FF301030FF1010FF20
60C0FF00FF200020FF0000FF20
0020FF00FF302030FF2020FF20
0020FF00FFFFFFFFFFFFFFFF20
0020FF00FF200020FF0000FF20
0020FF00FF200020FF0000FF20
0020FF00FF200020FF0000FF20
0020FF00FF403040FF3030FF10
0020FF00F0F0F0F0F0F0F0A000
ENDCHAR
STARTCHAR  4F46
ENCODING  20294
SWIDTH  1000 0
DWIDTH  14 0
BBX  13 13 0 -3
BITMAP
00000000000000000000000000
000020E0100000000000000000
0010E08020FFFFFFFFFFF0A000
20E0FF2020FF2020202030FF00
80A0FF2020FF0000000020FF00
0000FF2020FFFFFFFFFFFFFF00
0000FF2020FF2020202030FF00
0000FF2020FF0000000020FF00
0000FF2020FF2020202030FF00
0000FF2020FFFFFFFFFFFFA000
0000FF20202020202020202020
0000FF80FFFFFFFFFFFFFFFFFF
00004000000000000000000000
ENDCHAR
STARTCHAR  4F4D
ENCODING  20301
SWIDTH  1000 0
DWIDTH  14 0
BBX  13 12 0 -3
BITMAP
00000060100000603000000000
000080E0202020A0A020202000
0080FF30FFFFFFFFFFFFFFFF20
60E0FF20001000000000201000
0010FF2030E000000000A08000
0000FF2000E040000020F02000
0000FF200080A0000080A00000
0000FF200020F01000E0400000
0000FF200000C06060E0000000
0000FF2010101010E060101010
0000FF30FFFFFFFFFFFFFFFFFF
00000000101010101010101010
ENDCHAR
STARTCHAR  4F4E
ENCODING  20302
SWIDTH  1000 0
DWIDTH  14 0
BBX  14 11 0 -2
BITMAP
000010A010101010101020404000
0000A0C020FFFFFFFFFFF0E08000
10C0FF2020FF000010FF10000000
4080FF2020FF000010FF10000000
0000FF2020FFFFFFFFFFFFFF8000
0000FF2020FF202020FF30201000
0000FF2020FF000000E040000000
0000FF2020FF10A010A0A0000000
0000FF2020FFE0A06030F0406000
0000FF2080F06000C08060FFF020
0000C01060200000208000404000
ENDCHAR
STARTCHAR  4F4F
ENCODING  20303
SWIDTH  1000 0
DWIDTH  14 0
BBX  13 12 0 -3
BITMAP
00000080100000404000000000
0000A0E010202080E020202020
00A0FF3060FFFFFFFFFFFFFFFF
40C0FF2000000000FF10000000
0000FF2000000000FF10000000
0000FF2000FFFFFFFFFFFFFFC0
0000FF2000202020FF20202010
0000FF2000000000FF10000000
0000FF2000000000FF10000000
0000FF2010101010FF20101010
0000FF20F0FFFFFFFFFFFFFFFF
00000000001010101010101010
ENDCHAR
STARTCHAR  4F50
ENCODING  20304
SWIDTH  1000 0
DWIDTH  14 0
BBX  13 12 0 -3
BITMAP
00000040001060000000000000
000060E03030FF202020202010
0060FF40FFFFFFFFFFFFFFFFA0
40E0FF200060E0000000000000
0010FF2000A0A0202020202000
0000FF2010F0FFFFFFFFFFFF20
0000FF2080C00000FF20000000
0000FF40F0200000FF20000000
0000FF6040000000FF20000000
0000FF2010202020FF30202020
0000FF2080FFFFFFFFFFFFFFFF
00001000000000000000000000
ENDCHAR
STARTCHAR  4F51
ENCODING  20305
SWIDTH  1000 0
DWIDTH  14 0
BBX  13 12 0 -3
BITMAP
00000060100060100000000000
000080E02020FF302020202020
0080FF30A0FFFFFFFFFFFFFFFF
40E0FF200030FF000000000000
0000FF200080C0000000003000
0000FF2000E0FFFFFFFFFFFF20
0000FF2080FFFF20202020FF20
0000FF40FF80FF00000000FF20
0000FF306020FF00000000FF20
0000FF200020FF10101010FF10
0000FF200020FFFFFFFFFFC000
00000000000010101010000000
ENDCHAR
STARTCHAR  4F53
ENCODING  20307
SWIDTH  1000 0
DWIDTH  14 0
BBX  13 12 0 -3
BITMAP
000020A010000010C000000000
0010C0A010101030FF10101010
10C0FF20FFFFFFFFFFFFFFFFA0
40A0FF200000E060FF30800000
0000FF200030F020FF20FF1000
0000FF200080C020FF00E06000
0000FF2000E06020FF0080C000
0000FF2040F01020FF0020F010
0000FF20C0A0A0FFFFFF80E060
0000FF60FF301030FF201080A0
0000FF4080000020FF00002060
00001000000000000000000000
ENDCHAR
STARTCHAR  4F55
ENCODING  20309
SWIDTH  1000 0
DWIDTH  14 0
BBX  13 12 0 -3
BITMAP
000010A0202020202020202020
0000C0C060FFFFFFFFFFFFFFFF
20C0FF2000000000003000FF20
3080FF2020FFFFFFFFFF20FF20
0000FF2020FF202020FF20FF20
0000FF2020FF000000FF20FF20
0000FF2020FF000000FF20FF20
0000FF2020FF202020FF20FF20
0000FF2020FFFFFFFFC000FF20
0000FF2000000000101010FF20
0000FF2000000000F0FFFFC000
00000000000000000010000000
ENDCHAR
STARTCHAR  4F57
ENCODING  20311
SWIDTH  1000 0
DWIDTH  14 0
BBX  14 13 0 -3
BITMAP
0000000000000000000000000000
000020E010000000C00000000000
0010E0A0A0A0A0A0F0A0A0A0E000
20E0FF20FFA0A0A0A0A0A0A0FF10
40A0FF20FF20000000000010FF10
0000FF200010FF00000030A00000
0000FF200020FF000060F0800000
0000FF200020FF30C0F040000000
0000FF200020FFF0801000000000
0000FF200020FF10000000601000
0000FF200020FF10101010FF2000
0000FF200020FFFFFFFFFFE00000
0000100000001010101010000000
ENDCHAR
STARTCHAR  4F58
ENCODING  20312
SWIDTH  1000 0
DWIDTH  14 0
BBX  14 12 0 -2
BITMAP
0000001000000000000000000000
000080E080FFFFFFFFFFFF600000
0040F04010202020202040F03000
10F060000000000000000080E010
003000E0FFFFFFFFFFFFFF006000
0000002020202020202020000000
0020202020202020202020202000
00FFFFFFFFFFFFFFFFFFFFFFFF10
00000060400020FF002030000000
000040F0200020FF0040E0200000
0040F040001030FF000080E02000
006040000080FFA0000000802000
ENDCHAR
STARTCHAR  4F59
ENCODING  20313
SWIDTH  1000 0
DWIDTH  14 0
BBX  14 12 0 -2
BITMAP
0000000000000000000000000000
000060A0A0FFFFFFFFFFFF600000
0010E06010101010101040F02000
0080E00000000000000000A0A000
00E030E0FFFFFFFFFFFFFF20E010
00000020202030FF202020000000
00202020202030FF202020202000
00FFFFFFFFFFFFFFFFFFFFFFFF10
00000080400020FF002060000000
000040F0200020FF0030F0400000
0040F040001030FF000060F03000
006040000080FFA0000000804000
ENDCHAR
STARTCHAR  4F5A
ENCODING  20314
SWIDTH  1000 0
DWIDTH  14 0
BBX  13 11 0 -2
BITMAP
000020C000402010E000000000
0000C08010E06030FF20202000
0080FF2080FFFFFFFFFFFFFF20
60E0FF60F0200020FF00000000
0010FF2020000020FF00000000
0000FF20FFFFFFFFFFFFFFFFC0
0000FF20202020F06040202010
0000FF200000A0C010F0600000
0000FF200080E0200030F06000
0000FF20A0E03000000040F040
0000FF30C02000000000004080
ENDCHAR
STARTCHAR  4F5B
ENCODING  20315
SWIDTH  1000 0
DWIDTH  14 0
BBX  13 12 0 -3
BITMAP
000010A01000E02000E0100000
0000C0E02020FF3020FF30C010
0080FF60FFFFFFFFFFFFFFFF20
60E0FF202020FF3020FF30FF10
0010FF20FFFFFFFFFFFFFFC000
0000FF40F000FF1000FF200000
0000FF60E040F02020FF3030E0
0000FF60FFFFFFFFFFFFFFFFFF
0000FF2020F0300000FF2020FF
0000FF20E080000000FF20F0C0
0000FF80C000000000FF201000
00000000000000000000000000
ENDCHAR
STARTCHAR  4F5C
ENCODING  20316
SWIDTH  1000 0
DWIDTH  14 0
BBX  14 12 0 -3
BITMAP
0000004000004000000000000000
000080E01080F020202020202000
0080FF4060FFFFFFFFFFFFFFFF40
40A0FF20C06020FF000000000000
0000FF10000020FFFFFFFFFF8000
0000FF10000020FF202020201000
0000FF10000020FF000000000000
0000FF10000020FF101010101000
0000FF10000020FFFFFFFFFFC000
0000FF10000020FF000000000000
0000FF10000020FF000000000000
0000600000001060000000000000
ENDCHAR
STARTCHAR  4F5D
ENCODING  20317
SWIDTH  1000 0
DWIDTH  14 0
BBX  13 12 0 -3
BITMAP
000010A0102040000000000000
0000A0E010C0602020202030C0
0080FF4080FFFFFFFFFFFFFFFF
40E0FF60F080202020204020FF
0010FF2020FFFFFFFFFFFF20FF
0000FF2000FF20000020FF20FF
0000FF2000FF20000020FF20FF
0000FF2000FF30202030FF20FF
0000FF2000FFFFFFFFFFA020FF
0000FF200000000000101030FF
0000FF200000000000F0FFFFA0
00001000000000000000000000
ENDCHAR
STARTCHAR  4F5E
ENCODING  20318
SWIDTH  1000 0
DWIDTH  14 0
BBX  13 11 0 -2
BITMAP
00000060102020202020202000
0000A0E040FFFFFFFFFFFFFF20
10A0FF30000000000000000000
40A0FF20FFFFFFFFFFFFFFFF80
0000FF202030A0202020202010
0000FF20FFFFFFFFFFFFFFFFFF
0000FF2030F030202030FF3020
0000FF2060FFA04030E0A00000
0000FF200020C0FFFFE0100000
0000FF3080E0F08060C0F0A020
0000E030A06010000000208030
ENDCHAR
STARTCHAR  4F5F
ENCODING  20319
SWIDTH  1000 0
DWIDTH  14 0
BBX  13 12 0 -2
BITMAP
00000010001000000000000000
000020E020A080000000004000
0010E0A060FFFFFFFFFFFFFF20
20E0FF40F08030202030E0E010
2080FF406080FFA080F0A01000
0000FF200040C0FFF0E0601000
0000FF60E0F080200060C0F080
0000FF304020C0804010003030
0000FF20001060A0E0FFE00000
0000FF2060E0A0603010300000
0000FF20104080C0F0F0C06000
0000C010000000000030604000
ENDCHAR
STARTCHAR  4F60
ENCODING  20320
SWIDTH  1000 0
DWIDTH  14 0
BBX  14 12 0 -3
BITMAP
0000004000201000000000000000
000080E010E08020202020201000
00A0FF4080FFFFFFFFFFFFFFE000
40E0FF40F0400000E01000E06000
0000FF2020000000FF2000100000
0000FF200080A000FF20A0600000
0000FF2000E04000FF2060E00000
0000FF2040F00000FF2010F03000
0000FF20C0800000FF2000A08000
0000FF30E0101010FF100040F000
0000FF200000E0FFC00000002000
0000100000000000000000000000
ENDCHAR
STARTCHAR  4F63
ENCODING  20323
SWIDTH  1000 0
DWIDTH  14 0
BBX  13 12 0 -3
BITMAP
000000A0102020202020202080
0000A0E020FFFFFFFFFFFFFFFF
00A0FF2020FF0000FF200020FF
60E0FF2020FF2020FF302030FF
0010FF2020FFFFFFFFFFFFFFFF
0000FF2020FF0000FF200020FF
0000FF2030FF2020FF302030FF
0000FF2060FFFFFFFFFFFFFFFF
0000FF20A0A00000FF200020FF
0000FF20F0400000FF201030FF
0000FF40C0000000F010C0F0A0
00001000000000000000000000
ENDCHAR
STARTCHAR  4F64
ENCODING  20324
SWIDTH  1000 0
DWIDTH  14 0
BBX  14 12 0 -3
BITMAP
0000008020202020202020202000
0000A0C0C0FFFFFFFFFFFFFFFF00
0080FF2000808000000000000000
60F0FF2000A08020202060100000
0020FF2000C0FFFFFFFFFF200000
0000FF2000E040000000FF200000
0000FF2000E030A06000FF200000
0000FF2000F02040F020FF200000
0000FF2010FF00006030FF204000
0000FF2020FFA0E02000FF30FF10
0000FF20A0E080400000FFFFC000
0000100000000000000000000000
ENDCHAR
STARTCHAR  4F65
ENCODING  20325
SWIDTH  1000 0
DWIDTH  14 0
BBX  14 13 0 -3
BITMAP
0000000000000000000000000000
000020E0A0FFFFFFFFFFFFA00000
0000C0A010101010101030F06000
00A0E0100000000000000060F030
008020E0FFFFFFFFFFFFFF006020
0000002020203020202030000000
000010A01040E0000000C0600000
000000C06000E0400030F0100000
00000040E00080C000A0A0000000
00000000E06010E020F030000000
000010106060101080E010101000
0060FFFFFFFFFFFFFFFFFFFFFF00
0000000000000000000000000000
ENDCHAR
STARTCHAR  4F67
ENCODING  20327
SWIDTH  1000 0
DWIDTH  14 0
BBX  13 13 0 -3
BITMAP
00000010000040000000000000
000020F02000FF200000000000
0010E0C00000FF302020201000
00A0FF300000FFFFFFFFFF6000
40A0FF200000FF200000000000
0000FF20C0FFFFFFFFFFFFFFFF
0000FF20102020202020202020
0000FF200000FF200000000000
0000FF200000FF30E060000000
0000FF200000FF2040F0C02000
0000FF200000FF200020C0A000
0000FF200000FF200000001000
00001000000010000000000000
ENDCHAR
STARTCHAR  4F69
ENCODING  20329
SWIDTH  1000 0
DWIDTH  14 0
BBX  13 12 0 -3
BITMAP
000010A020202020202020A010
0010C0A020FFFFFFFFFFFFFF20
20E0FF2020FFFFFFFFFFFFFF20
40A0FF2020FF2020FF3020FF20
0000FF2020FFFFFFFFFFF0FF20
0000FF2020FFFF30FF40FFFF20
0000FF2020FFFF20FF30FFFF20
0000FF2020FFFF20FF30FFFF20
0000FF2040E0FF20FF30FFFF20
0000FF20C0A0FF20FFA0C0FF20
0000FF30E0301000FF2000FFE0
00001000000000001000000000
ENDCHAR
STARTCHAR  4F6C
ENCODING  20332
SWIDTH  1000 0
DWIDTH  14 0
BBX  14 13 0 -3
BITMAP
0000001000000000000000000000
000030F010000010A00000300000
0020E08000FFFFFFFFFFFFF01000
20E0FF2000202030FF30F0600000
40C0FF2000000020FFC0A0000000
0000FF20FFFFFFFFFFFFFFFFFF00
0000FF20202060F0A02020202000
0000FF2030A0E060001080300000
0000FF60F0F03030A0F0C0300000
0000FF3020E0E0F0A02000400000
0000FF2000E08020202020FF2000
0000FF2000E0FFFFFFFFFFC00000
0000100000000000000000000000
ENDCHAR
STARTCHAR  4F6F
ENCODING  20335
SWIDTH  1000 0
DWIDTH  14 0
BBX  13 12 0 -3
BITMAP
000010C0106080000000A02000
0010C0A00030F0100040E00000
10C0FF20FFFFFFFFFFFFFFFF40
40C0FF2020202030FF20202010
0000FF2010101030FF10101000
0000FF20A0FFFFFFFFFFFFFF00
0000FF2000101020FF10101000
0000FF2000000020FF00000000
0000FF2020202030FF20202010
0000FF20FFFFFFFFFFFFFFFFE0
0000FF2000000020FF00000000
00008010000000108000000000
ENDCHAR
STARTCHAR  4F70
ENCODING  20336
SWIDTH  1000 0
DWIDTH  14 0
BBX  13 12 0 -3
BITMAP
000020A0102020202020202020
0010C0A0A0FFFFFFFFFFFFFFFF
10C0FF20000010F03000002000
40A0FF2010FFFFFFFFFFFFFF20
0000FF2010FF2020202020FF20
0000FF2010FF1000000000FF20
0000FF2010FFFFFFFFFFFFFF20
0000FF2010FF2020202020FF20
0000FF2010FF1000000000FF20
0000FF2010FF2010101010FF10
0000FF2010FFFFFFFFFFFFE000
00000000001010101010100000
ENDCHAR
STARTCHAR  4F73
ENCODING  20339
SWIDTH  1000 0
DWIDTH  14 0
BBX  13 12 0 -3
BITMAP
0000003000000010E000000000
000040F020202030FF20202000
0040F060C0FFFFFFFFFFFFFF00
40E0FF2010101020FF10101010
0000FF20FFFFFFFFFFFFFFFFC0
0000FF20101010108010101010
0000FF2010202030FF20202000
0000FF20C0FFFFFFFFFFFFFF00
0000FF2000000020FF00000000
0000FF2010101020FF10101010
0000FF40FFFFFFFFFFFFFFFFF0
00001000101010101010101010
ENDCHAR
STARTCHAR  4F74
ENCODING  20340
SWIDTH  1000 0
DWIDTH  14 0
BBX  14 12 0 -3
BITMAP
0000008020202020202020202000
0010C0E060FFFFFFFFFFFFFFFF00
30E0FF2000FF2000000020FF0000
2060FF2000FFFFFFFFFFFFFF0000
0000FF2000FF3020202030FF0000
0000FF2000FF2000000020FF0000
0000FF2000FFFFFFFFFFFFFF0000
0000FF2000FF3020202030FF0000
0000FF2000FF2000001040FF8020
0000FF2030FFA0C0E0FFFFFFC030
0000FF20A0E0A080603020FF0000
0000400000000000000010600000
ENDCHAR
STARTCHAR  4F76
ENCODING  20342
SWIDTH  1000 0
DWIDTH  14 0
BBX  13 12 0 -3
BITMAP
0000004000000010E000000000
000060E030202030FF20202010
0060FF40FFFFFFFFFFFFFFFFA0
40C0FF2000000020FF00000000
0000FF20FFFFFFFFFFFFFFFF00
0000FF20202020202020202000
0000FF2020FFFFFFFFFFFFF010
0000FF2020FF2020202020FF20
0000FF2020FF0000000000FF20
0000FF2020FF2020202020FF10
0000FF2020FFFFFFFFFFFFC000
00001000000000000000000000
ENDCHAR
STARTCHAR  4F7B
ENCODING  20347
SWIDTH  1000 0
DWIDTH  14 0
BBX  13 13 0 -3
BITMAP
00000000000000000000000000
000020E00000C01010C0000000
0010E0803000FF2020FF003000
10C0FF60F010FF2020FF20F040
60C0FF20A080FF2020FF808000
0000FF201000FF2020FF000000
0000FF200020FF1020FF300000
0000FF2060F0FF1020FFF08000
0000FF40F0A0E00020FF30E060
0000FF2010E0600020FF001030
0000FF20A0C0000020FF2030FF
0000FF40C010000020FFFFFFA0
00000000000000000000000000
ENDCHAR
STARTCHAR  4F7C
ENCODING  20348
SWIDTH  1000 0
DWIDTH  14 0
BBX  13 11 1 -2
BITMAP
000020A0000000801000000000
0010E080202020C0E020202010
00C0FF00FFFFFFFFFFFFFFFFE0
80E0FF000040A0000020A00000
1020FF0030F060000010C0C010
0020FF10F0806000006080C080
0020FF002030E0A060F0400000
0020FF00000010E0FF60000000
0020FF000010A0E0A0F0400000
0020FF1080F0A0100060F08000
0020FF20C0400000000030C010
ENDCHAR
STARTCHAR  4F7E
ENCODING  20350
SWIDTH  1000 0
DWIDTH  14 0
BBX  13 13 0 -3
BITMAP
00000000000000000000000000
000030E01080A0FFFFFFC00000
0020E08000E060202020F04000
20E0FF1080E00000000080E000
4080FF30F0FFFFFFFFFFFFE060
0000FF6080FF30202020FF4060
0000FF1000FFFFFFFFFFFF1000
0000FF1000FF30202020FF1000
0000FF1000FF30202020FF1000
0000FF1000FFFFFFFFFFFF2000
0000FF1000FF20001020FF1000
0000FF1000FF2000C0FFC00000
00001000001000000000000000
ENDCHAR
STARTCHAR  4F7F
ENCODING  20351
SWIDTH  1000 0
DWIDTH  14 0
BBX  14 12 0 -3
BITMAP
000010A010000000601000000000
0000C0C0C0FFFFFFFFFFFFFFFF00
10A0FF2010303030FF4030602000
60C0FF2020FFFFFFFFFFFFFF2000
0000FF2020FF0000FF2000FF2000
0000FF2020FF2020FF3020FF2000
0000FF2020FFFFFFFFFFFFC00000
0000FF2030601080C00000000000
0000FF2040E0F0F0800000000000
0000FF201080F0A0E0F0A0400000
0000FF20E0C03000003080E0E010
0000601020000000000000002000
ENDCHAR
STARTCHAR  4F83
ENCODING  20355
SWIDTH  1000 0
DWIDTH  14 0
BBX  14 12 0 -3
BITMAP
0000008010202020202020401000
000080E020FFFFFFFFFFFFFF2000
0080FF3020FF0000000000FF2000
40E0FF2020FF1010101010FF2000
0000FF2020FFFFFFFFFFFFC00000
0000FF2000401000200040000000
0000FF2000FF2020FF00FF200000
0000FF2000FF1020FF00FF200000
0000FF2060E00020FF00FF204000
0000FF40F0600020FF00FF30FF10
0000FFC080000020FF00FFFFC000
0000100000000000100010100000
ENDCHAR
STARTCHAR  4F84
ENCODING  20356
SWIDTH  1000 0
DWIDTH  14 0
BBX  13 12 0 -3
BITMAP
00000040002020202020202010
000060F020FFFFFFFFFFFFFFC0
0060FF400000A0C01000403000
40E0FF200060C0101020A0E010
0010FF2000FFFFFFF0E0C0E0A0
0000FF2000201000C010001000
0000FF2000FFFFFFFFFFFFFF20
0000FF2000202020FF30202000
0000FF2000000000FF20000000
0000FF2010202020FF30202020
0000FF2080F0F0F0F0F0F0F0F0
00001000000000000000000000
ENDCHAR
STARTCHAR  4F88
ENCODING  20360
SWIDTH  1000 0
DWIDTH  14 0
BBX  13 12 1 -3
BITMAP
000020C0106080000000000000
0010E08040FFFFFFFFFFFFFF10
20E0FF10F0606020202080FF10
60C0FF003030F08080E0F06000
0020FF1060A0F0FFE060100000
0020FF30E0A0F0E02020206010
0020FF0030E0FFFFFFFFFFFF20
0020FF00C0804000000060FF10
0020FF000040F08030C0E04000
0020FF001040C0FFF080100000
0020FF40FFE0A0601000000000
00002000100000000000000000
ENDCHAR
STARTCHAR  4F89
ENCODING  20361
SWIDTH  1000 0
DWIDTH  14 0
BBX  13 12 0 -3
BITMAP
000010A010000040A000000000
0000C0C030FFFFFFFFFFFFFFFF
00A0FF200040F0A02020E0A020
60F0FF2030E0E020202060FF40
1020FF20E080FFFFFFFFFF80C0
0000FF20F0FFFFFFFFFFFFFFFF
0000FF201060FF402020202020
0000FF2000C0C0202020204000
0000FF2000E0FFFFFFFFFFFF00
0000FF2000000010101020FF00
0000FF200000A0FFFFFFFFC000
00001000000010101010100000
ENDCHAR
STARTCHAR  4F8B
ENCODING  20363
SWIDTH  1000 0
DWIDTH  14 0
BBX  13 12 0 -3
BITMAP
00003060E0E0E0E0E0000020FF
0000C08030F0603030000020FF
20C0FF2030FF10003020FF20FF
4080FF2080FFFFFFFF30FF20FF
0000FF20E0402020FF30FF20FF
0000FF80C0100010FF30FF20FF
0000FF4020C0C080C020FF20FF
0000FF200020E0FF4020FF20FF
0000FF200020E0800020FF20FF
0000FF2060F0800000002030FF
0000FF60E04000000030FFF0A0
00001000000000000000000000
ENDCHAR
STARTCHAR  4F8D
ENCODING  20365
SWIDTH  1000 0
DWIDTH  14 0
BBX  13 13 0 -3
BITMAP
00000000000000000000000000
000020E0100000108000000000
0010E0A020FFFFFFFFFFFFFF00
00C0FF2000202030FF20202000
60E0FF2020202030FF20202020
0020FF30FFFFFFFFFFFFFFFFFF
0000FF20202020202020FF3010
0000FF20F0FFFFFFFFFFFFFFE0
0000FF20006030000000FF2000
0000FF200060F0A01000FF2000
0000FF20000020A02000FF2000
0000FF2000000000F0FFE00000
00000000000000001010000000
ENDCHAR
STARTCHAR  4F8F
ENCODING  20367
SWIDTH  1000 0
DWIDTH  14 0
BBX  14 12 0 -3
BITMAP
000010A010408010C01000000000
0000C0C000E08020FF3020201000
10A0FF2080FFFFFFFFFFFFFF8000
60C0FF30F0400010FF1000000000
0000FF2010000010FF1000000000
0000FF2080FFFFFFFFFFFFFFFF00
0000FF201030F030FF2060302000
0000FF200080A010FF10C0A00000
0000FF2020F02010FF1030FF2000
0000FF20C0800010FF1000A0A000
0000FF40C0100010F0100020C010
0000000000000000000000000000
ENDCHAR
STARTCHAR  4F91
ENCODING  20369
SWIDTH  1000 0
DWIDTH  14 0
BBX  13 12 0 -3
BITMAP
000030C00010E0000000000000
0000C080C0FFFFFFFFFFFFFFFF
0080FF201060F0202020202020
60FFFF2000C0E020202020A010
1040FF2040FFFFFFFFFFFFFF20
0000FF20E0E0FF20202020FF20
0000FFA0E030FFFFFFFFFFFF20
0000FF301020FF20202020FF20
0000FF200020FFFFFFFFFFFF20
0000FF200020FF00000010FF10
0000FF200020FF000060FFE000
00000000000000000000100000
ENDCHAR
STARTCHAR  4F94
ENCODING  20372
SWIDTH  1000 0
DWIDTH  14 0
BBX  13 12 0 -3
BITMAP
00000080100060300000000000
0000A0E00030F0400000404000
00A0FF3020E080102030A0E000
60E0FF2080FFFFFFF0F0E0F080
0000FF20204020108000002000
0000FF2000E08030FF20202000
0000FF2080FFFFFFFFFFFFFF00
0000FF2080200020FF00000000
0000FF20FFFFFFFFFFFFFFFFE0
0000FF2020202030FF20202020
0000FF2000000020FF00000000
00000000000000000000000000
ENDCHAR
STARTCHAR  4F97
ENCODING  20375
SWIDTH  1000 0
DWIDTH  14 0
BBX  13 11 0 -2
BITMAP
00000080202020202020202080
0000A0C0FFFFFFFFFFFFFFFFFF
00A0FF20FF20202020202020FF
60E0FF20FF40FFFFFFFFFF60FF
0000FF20FF20202020206020FF
0000FF20FF20FFFFFFFFFF20FF
0000FF20FF20FF200020FF20FF
0000FF20FF20FF201020FF20FF
0000FF20FF20FFFFFFFFC020FF
0000FF20FF20101020303040FF
0000FF20F010000040F0F0E080
ENDCHAR
STARTCHAR  4F9B
ENCODING  20379
SWIDTH  1000 0
DWIDTH  14 0
BBX  13 11 0 -2
BITMAP
000010A01020F0000010F00000
0000C0C02030FF202030FF2010
10C0FF20FFFFFFFFFFFFFFFF60
40C0FF200020FF000020FF0000
0000FF200020FF000020FF0000
0000FF200020FF000020FF0000
0000FF20FFFFFFFFFFFFFFFFFF
0000FF20208040202020804020
0000FF2030F03000000080A000
0000FF20E0600000000010F030
0000C020800000000000006040
ENDCHAR
STARTCHAR  4F9D
ENCODING  20381
SWIDTH  1000 0
DWIDTH  14 0
BBX  14 12 0 -3
BITMAP
0000004000000040300000000000
000080E0202020A0C02020202000
0060FF30FFFFFFFFFFFFFFFFFF10
60F0FF200010F040100000000000
0020FF2000A0C040E00030C06000
0000FF2060FF2000E0C0F0801000
0000FF60F0FF200060FF30000000
0000FF4040FF200000E080000000
0000FF2000FF20303040F0400000
0000FF2000FFC0F0800080E02000
0000FF2060F08010000000A0A000
0000400010000000000000000000
ENDCHAR
STARTCHAR  4FA0
ENCODING  20384
SWIDTH  1000 0
DWIDTH  14 0
BBX  13 12 0 -2
BITMAP
00000000000000001000000000
000020E010000020FF00000000
0010E08080FFFFFFFFFFFFFF00
20E0FF2010402030FF20204000
40A0FF2040F02020FF0060E000
0000FF2000C0C030F010E04000
0000FF2000204080A000600000
0000FF20FFFFFFFFFFFFFFFFFF
0000FF202020C0C020C0802020
0000FF2000A0E0200030F08000
0000FF30A0E02000000040FF80
0000F020A01000000000006060
ENDCHAR
STARTCHAR  4FA3
ENCODING  20387
SWIDTH  1000 0
DWIDTH  14 0
BBX  13 11 0 -2
BITMAP
000010A0101010101010104000
0010E0A020FFFFFFFFFFFFFF10
20E0FF2020FF1010101020FF10
80A0FF2020FF0000000010FF00
0000FF2020FFFFFFFFFFFFE000
0000FF20103030303030304000
0000FF20FFFFFFFFFFFFFFFF20
0000FF20FF200000000000FF20
0000FF20FF200000000000FF20
0000FF20FF403030303030FF10
0000FF20F0F0F0F0F0F0E0A000
ENDCHAR
STARTCHAR  4FA5
ENCODING  20389
SWIDTH  1000 0
DWIDTH  14 0
BBX  14 12 0 -3
BITMAP
0000008010304000000000000000
000080E010A0E06080A0C0E02000
0080FF3080F0FFE0A08060C03000
60E0FF20000060F04080E0C03000
0010FF20001060E0FFFF60204000
0000FF2080FFE08060E0F0E0A000
0000FF2030302020202060804000
0000FF20E0FFFFFFFFFFFFFFFF00
0000FF200020F0300020FF000000
0000FF2030E0A0000020FF10F020
0000FF20E08000000020FFFFE000
0000000000000000000010000000
ENDCHAR
STARTCHAR  4FA6
ENCODING  20390
SWIDTH  1000 0
DWIDTH  14 0
BBX  13 13 1 -3
BITMAP
00000000000000200000000000
000020A0100000FF2000000000
0010E0A0000000FFFFFFFFF000
30E0FF00000000FF3020202000
6080FF00FFFFFFFFFFFFFFFF00
0020FF00FF302060202030FF00
0020FF00FF2000E0300020FF00
0020FF00FF2000F0300020FF00
0020FF00FF2080E0200020FF00
0020FF00A080F030C0E030A000
0020FF30C0E030001080E04000
0020FF4080100000000030C000
00000000000000000000000000
ENDCHAR
STARTCHAR  4FA7
ENCODING  20391
SWIDTH  1000 0
DWIDTH  14 0
BBX  14 11 0 -2
BITMAP
000010A01010101000000010A000
0000C0A0FFFFFFFFFF204010FF10
00A0FF20FF206010FF20FF30FF10
30E0FF20FF20FF20FF20FF30FF10
0000FF20FF20FF20FF20FF30FF10
0000FF20FF20FF20FF20FF30FF10
0000FF20FF30FF10FF20FF30FF10
0000FF20FF80E000FF20FF30FF10
0000FF20A0F080C0A010FF30FF10
0000FF20C0C000C0C0102030FF00
0000FF30C0100010C040FFF0A000
ENDCHAR
STARTCHAR  4FA8
ENCODING  20392
SWIDTH  1000 0
DWIDTH  14 0
BBX  14 11 0 -2
BITMAP
0000008010202020202030801000
0000A0C040FFFFFFFFFFF0A02000
10A0FF3000000020FF0000000000
40A0FF20FFFFFFFFFFFFFFFFE000
0000FF202030E0E020F0C0201000
0000FF2060F0C0100020C0E04000
0000FF30E060800000108060E000
0000FF200020FF000020FF000000
0000FF200060E0000020FF000000
0000FF2030F060000020FF000000
0000FF20808000000020FF000000
ENDCHAR
STARTCHAR  4FA9
ENCODING  20393
SWIDTH  1000 0
DWIDTH  14 0
BBX  14 13 0 -3
BITMAP
0000000000000000000000000000
000010C010A0A0FFFFFFFFFF3000
0010C0A020F0302020202080A000
00C0FF20A0A0000000000010F020
60E0FF20A0302020202020208020
0010FF200080FFFFFFFFFFFF0000
0000FF2000101010101010101000
0000FF20F0FFFFFFFFFFFFFFFF00
0000FF201010E0A0101020401000
0000FF200080E010000080C00000
0000FF2030FFA080A0C0E0FF4000
0000FF2060E0C0A080604060A000
0000000000000000000000000000
ENDCHAR
STARTCHAR  4FAA
ENCODING  20394
SWIDTH  1000 0
DWIDTH  14 0
BBX  14 12 0 -2
BITMAP
0000000000000000100000000000
000020E010000060C00000000000
0010E08080FFFFFFFFFFFFFFFF00
20E0FF20108040202040E0C02000
40A0FF2000A0FFA080F0A0000000
0000FF20001060FFFFF060100000
0000FF20C0F0E0802060E0F08000
0000FF204030A0000010A0408000
0000FF200020FF000010FF100000
0000FF200080C0000010FF100000
0000FF2060F030000010FF100000
0000F020A03000000010FF100000
ENDCHAR
STARTCHAR  4FAC
ENCODING  20396
SWIDTH  1000 0
DWIDTH  14 0
BBX  13 12 0 -2
BITMAP
00000000000000000000000000
000040C000000010C000000000
0000E080C0C0C0C0FFC0C0C0FF
00A0FF30FF6080FF80606080FF
60E0FF208000C0A04010001080
0010FF2000A0C000C0A010A060
0000FF30C0FF200030F0E0C020
0000FF60A0FF20000080E00000
0000FF2000FF20000010F04000
0000FF2000FF40A0C00060E000
0000FF2010FFFFC0400000E080
0000E02010A030000000003060
ENDCHAR
STARTCHAR  4FAE
ENCODING  20398
SWIDTH  1000 0
DWIDTH  14 0
BBX  14 13 0 -3
BITMAP
0000000000000000000000000000
000030E000A06000000000000000
0000C08020FFFFFFFFFFFFFFFF10
0080FF20C0A03030303030602000
30F0FF60C0A0FFFFFFFFFFFF2000
0010FF2000C06060600000FF2000
0000FF2020E06060F0A020FF3000
0000FF20FFFFFFFFFFFFFFFFFF40
0000FF2000FF1060600000FF2000
0000FF2010FF2060FF8020FF2000
0000FF2020FFFFFFFFFFFFFF1000
0000FF20000000000010FFC00000
0000200000000000000000000000
ENDCHAR
STARTCHAR  4FAF
ENCODING  20399
SWIDTH  1000 0
DWIDTH  14 0
BBX  14 12 0 -2
BITMAP
0000000000000000000000000000
000020E010202020202020200000
0010E08000F0FFFFFFFFFFE00000
00C0FF1010202020202080C02000
60F0FF20E0FFFFFFFFFFFFFFFF00
1020FF2010E04020202020201000
0000FF20A0FFFFFFFFFFFFFF6000
0000FF2080100010FF1000000000
0000FF20E0FFFFFFFFFFFFFFFF00
0000FF201020A0E030F0A0201000
0000FF2040E0C0200020C0E04000
0000FF20C060000000000060A000
ENDCHAR
STARTCHAR  4FB5
ENCODING  20405
SWIDTH  1000 0
DWIDTH  14 0
BBX  13 13 0 -3
BITMAP
00000020000000000000003000
000040F080FFFFFFFFFFFFFF10
0020E0A010203030303030FF10
20E0FF200080FFFFFFFFFFFF10
3060FF2060FFFFFFFFFFFFE000
0000FF20102020202020201030
0000FF20FFFFFFFFFFFFFFFFFF
0000FF20F030303030303080F0
0000FF200040FFFFFFFFFFFF00
0000FF200080A0402080F0A000
0000FF200040E0FFFFFFC03000
0000FF40E0FFE0804060C0F0C0
00006010301000000000001030
ENDCHAR
STARTCHAR  4FBF
ENCODING  20415
SWIDTH  1000 0
DWIDTH  14 0
BBX  13 11 0 -2
BITMAP
000030A0202020202020202010
0010E080FFFFFFFFFFFFFFFF80
00A0FF2000202030FF2020F020
40E0FF2020FFFFFFFFFFFFFF20
0000FF2020FFFFFFFFFFFFFF20
0000FF2020FF2060E02020FF20
0000FF2020FFFFFFFFFFFFE000
0000FF20308060F03020100000
0000FF2080E0FFE08030000000
0000FF40A0E04080C0F0F0A040
0000E060801000000000408060
ENDCHAR
STARTCHAR  4FC3
ENCODING  20419
SWIDTH  1000 0
DWIDTH  14 0
BBX  14 12 0 -3
BITMAP
000020A000202020202020A01000
0010C0A020FFFFFFFFFFFFFF2000
10C0FF1020FF0000000000FF2000
40A0FF1020FF0000000000FF2000
0000FF1020FFFFFFFFFFFFE00000
0000FF1000101010FF3010000000
0000FF1000606000FF3020200000
0000FF1000C06000FFFFFFFF3000
0000FF1040FF1000FF2000000000
0000FF20E0F0A030FF4030303010
0000FF60C01080C0E0E0E0E0E030
0000000000000000000000000000
ENDCHAR
STARTCHAR  4FC4
ENCODING  20420
SWIDTH  1000 0
DWIDTH  14 0
BBX  14 12 0 -3
BITMAP
0000106000001040006010000000
000080C00060F0A000FF30E02000
0060FF20C0E0FF2000FF20A0C000
40F0FF003020FF3020FF30308010
0030FF00FFFFFFFFFFFFFFFFFF60
0020FF000000FF2000FF20303000
0020FF000010FFE060E060E08000
0020FF10A0F0FF6000A0FFA00000
0020FF008020FF2010C0FF401000
0020FF001020FF20C0C080F0E040
0020FF0060FFC00080000080C000
0000200000000000000000000000
ENDCHAR
STARTCHAR  4FC5
ENCODING  20421
SWIDTH  1000 0
DWIDTH  14 0
BBX  14 13 0 -3
BITMAP
0000001000000000400010000000
000040F010000020FF00C0800000
0030F06000000020FF0020C02000
40F0FF30FFFFFFFFFFFFFFFFFF00
2060FF2040302030FF2020202000
0000FF20A0E02020FF100060C000
0000FF2000A0E040FFC080F04000
0000FF20000060E0FFE0F0400000
0000FF200030E0A0FF30F0400000
0000FF2060F08020FF0060F02000
0000FF60E0401040FF0000A0C000
0000FF20100080F080000000A020
0000100000000000000000000000
ENDCHAR
STARTCHAR  4FCA
ENCODING  20426
SWIDTH  1000 0
DWIDTH  14 0
BBX  13 12 0 -3
BITMAP
000010C01000A0300000200000
0000C0C000A0E0100000E08000
10C0FF2080FFC0C0E0E0F0FF40
40C0FF2080A080604040606020
0000FF2020F060000000C0A000
0000FF30E0A0E060202080E080
0000FF3080C0FFFFFFFFFF3020
0000FF20C0E060000060F01000
0000FF204040E0F0C0F0400000
0000FF204080E0F0A0F0E08020
0000FF60E0A06000001060C080
00002000000000000000000000
ENDCHAR
STARTCHAR  4FCE
ENCODING  20430
SWIDTH  1000 0
DWIDTH  14 0
BBX  13 12 0 -3
BITMAP
0000A01000002020202030A000
0000FF200000FFFFFFFFFFFF00
0010FF100000FF20000020FF00
0080F0A00000FF30202030FF00
40F060E0A000FFFFFFFFFFFF00
80606020A010FF20000020FF00
0000FF200000FF30202030FF00
0000FF100000FFFFFFFFFFFF00
0040FF600000FF20000020FF00
30F080E08010FF30101030FF10
A0600020E0C0FFFFFFFFFFFFFF
00000000000000000000000000
ENDCHAR
STARTCHAR  4FCF
ENCODING  20431
SWIDTH  1000 0
DWIDTH  14 0
BBX  14 13 0 -3
BITMAP
0000002000000000400000000000
000040F020C02000FF200030C000
0040F0600080C000FF2010E08000
40F0FF1000006000FF2000803000
2060FF1020FFFFFFFFFFFFFFFF00
0000FF1020FF202020202030FF00
0000FF1020FF202020202030FF00
0000FF1020FFFFFFFFFFFFFFFF00
0000FF1020FF202020202030FF00
0000FF1020FFFFFFFFFFFFFFFF00
0000FF1020FF000000001030FF00
0000FF1010FF00000000C0FFA000
0000000000000000000010100000
ENDCHAR
STARTCHAR  4FD0
ENCODING  20432
SWIDTH  1000 0
DWIDTH  14 0
BBX  13 12 0 -3
BITMAP
00003080101010206000001080
0000E080E0FFFFFFC0204020FF
20C0FF200000FF200020FF20FF
3060FF20FFFFFFFFFF40FF20FF
0000FF2060C0FF403020FF20FF
0000FF2080A0FFA0A020FF20FF
0000FF20A080FF80C020FF20FF
0000FF20E040FF60E020FF20FF
0000FF20FF20FF40FF20FF20FF
0000FF60E000FF20FF204030FF
0000FF80A000F020A030FFFFA0
00000000000000000000000000
ENDCHAR
STARTCHAR  4FD1
ENCODING  20433
SWIDTH  1000 0
DWIDTH  14 0
BBX  13 12 0 -3
BITMAP
00000060002020202020202010
0000A0E000FFFFFFFFFFFFFFFF
0080FF30000080202080F0C040
60E0FF202020A0F0FFA0402060
0000FF20FFFFFFFFFFFFFFFFFF
0000FF20FF301010FF301020FF
0000FF20FFFFFFFFFFFFFFFFFF
0000FF20FF201010FF201020FF
0000FF20FFFFFFFFFFFFFFFFFF
0000FF20FF301010FF301030FF
0000FF20FF200000E01060FFC0
00000000000000000000101000
ENDCHAR
STARTCHAR  4FD7
ENCODING  20439
SWIDTH  1000 0
DWIDTH  14 0
BBX  13 13 0 -3
BITMAP
00000020000010000010000000
000040F01020E02000C0600000
0030F06010E0A0000030F06000
30E0FF30E0A00000000040F040
6080FF308080A0FFFFFFC04020
0000FF2030F030202020E08000
0000FF30E0600000000020F060
0000FF4080E0E0E0E0E0FF6030
0000FF2000FF40303030FF2000
0000FF2000FF20000000FF2000
0000FF2000FF40202020FF2000
0000FF2000FFFFFFFFF0C00000
00001000000000000000000000
ENDCHAR
STARTCHAR  4FD8
ENCODING  20440
SWIDTH  1000 0
DWIDTH  14 0
BBX  13 12 0 -3
BITMAP
00000080202020202020408000
000060E0A0FFFFFFFFFFE08010
0030F040006000303000106000
30F0FF2020F08080E010C0A000
3080FF20106060208080F03000
0000FF20A0FFFFFFFFFFFFFF00
0000FF2000000010A0A0601000
0000FF20FFFFFFFFFFFFFFFFF0
0000FF2020202030FF20202010
0000FF2000001030FF00000000
0000FF200000C0F0A000000000
00001000000000000000000000
ENDCHAR
STARTCHAR  4FDA
ENCODING  20442
SWIDTH  1000 0
DWIDTH  14 0
BBX  13 12 0 -3
BITMAP
00000080102020202020204010
0000A0E020FFFFFFFFFFFFFF20
00A0FF3020FF0010FF0000FF20
40C0FF2020FFFFFFFFFFFFFF20
0000FF2020FF2030FF2020FF20
0000FF2020FFFFFFFFFFFFE000
0000FF2000202030FF20100000
0000FF2030FFFFFFFFFFFFFF20
0000FF2000202030FF20202000
0000FF2020202030FF20202020
0000FF20F0F0F0F0F0F0F0F0F0
00000000000000000000000000
ENDCHAR
STARTCHAR  4FDC
ENCODING  20444
SWIDTH  1000 0
DWIDTH  14 0
BBX  13 13 0 -3
BITMAP
00000000000000002000000000
000020E010202030FF20204010
0020E08020FFFFFFFFFFFFFF20
40E0FF2020FFFFFFFFFFFFFF20
2060FF2020FF2030FF2020FF20
0000FF2020FFFFFFFFFFFFE000
0000FF20203030303030302020
0000FF60FFFFFFFFFFFFFFFFFF
0000FF2000A080202020208000
0000FF2000F0FFFFFFFFFFFF00
0000FF2000000010101030FF00
0000FF20000000E0FFFFFFA000
00000000000000001010000000
ENDCHAR
STARTCHAR  4FDD
ENCODING  20445
SWIDTH  1000 0
DWIDTH  14 0
BBX  14 12 0 -3
BITMAP
0000006000202020202020E01000
000080E030FFFFFFFFFFFFFF2000
0080FF4020FF0000000000FF2000
40E0FF2020FF1010101010FF2000
0000FF2020FFFFFFFFFFFFE00000
0000FF2020202030FF2020202000
0000FF40FFFFFFFFFFFFFFFFFF10
0000FF200020F030FF10C0200000
0000FF2000A0A020FF00A0A00000
0000FF2080E01020FF0010F06000
0000FF20C0200020FF0000608000
0000100000000000000000000000
ENDCHAR
STARTCHAR  4FDE
ENCODING  20446
SWIDTH  1000 0
DWIDTH  14 0
BBX  14 13 0 -3
BITMAP
0000000000000000000000000000
000080A0E0FFFFFFFFFFFFC00000
0010E06010202020202020E03000
0080E0202020202020202080A000
10F040F0FFFFFFFFFFFFFF10A000
00102020202020C0004000E01000
0020FFFFFFFFFFFF20FF00FF2000
0020FFFFFFFFFFFF20FF00FF2000
0020FF20202030FF20FF00FF2000
0020FFFFFFFFFFFF20FF00FF2000
0020FF20202030FF003000FF2000
0020FF000080FFC000A0FFE00000
0000100000101000001010000000
ENDCHAR
STARTCHAR  4FDF
ENCODING  20447
SWIDTH  1000 0
DWIDTH  14 0
BBX  13 11 0 -2
BITMAP
00000080100030800000000000
0000A0C00040F0600000308000
00A0FF2030F0E080A0C0E0FF20
60E0FF2040C0A0A0806040A060
0010FF2010E040202020202000
0000FF20A0FFFFFFFFFFFFFF30
0000FF2080200030F000000000
0000FF20FFFFFFFFFFFFFFFFE0
0000FF202060F0C020E0C03010
0000FF30C0F080000020A0F060
0000C010801000000000004060
ENDCHAR
STARTCHAR  4FE1
ENCODING  20449
SWIDTH  1000 0
DWIDTH  14 0
BBX  13 12 0 -2
BITMAP
00000000000000001000000000
000020E010000020E000000000
0010E0A0C0FFFFFFFFFFFFFFFF
10C0FF20102020202020202020
40C0FF2010FFFFFFFFFFFFFF60
0000FF20003030303030303010
0000FF2010FFFFFFFFFFFFFF60
0000FF20002020202020206010
0000FF2010FFFFFFFFFFFFFF20
0000FF2010FF1000000000FF20
0000FF2010FF3020202020FF20
0000FF2010FFFFFFFFFFF0C000
ENDCHAR
STARTCHAR  4FE3
ENCODING  20451
SWIDTH  1000 0
DWIDTH  14 0
BBX  13 11 1 -2
BITMAP
0000108010202020202030E000
0000A0C020FFFFFFFFFFFFFF00
20C0FF1020FF0000000020FF00
40A0FF0020FFFFFFFFFFFFC000
0010FF00002020202020200000
0010FF00FFFFFFFFFFFFFFFF10
0010FF0020202030FF20202000
0010FF00FFFFFFFFFFFFFFFFA0
0010FF002030C0E040FFA02010
0010FF1080F0A0100040E0E040
0010E010A03000000000008040
ENDCHAR
STARTCHAR  4FE6
ENCODING  20454
SWIDTH  1000 0
DWIDTH  14 0
BBX  14 12 0 -3
BITMAP
0000004000101040101010101000
000060F060FFFFFFFFFFFFFFFF10
0040F040002020FF302020202000
40E0FF2000FFFFFFFFFFFFFF8000
0000FF80FFFFFFFFFFFFFFFFFF00
0000FF202030FF30202040202000
0000FF200080E0202020FF302000
0000FF2060FFFFFFFFFFFFFFFF00
0000FF30A080C0601000FF200000
0000FF20000040A06010FF100000
0000FF2000000000C0F0C0000000
0000100000000000000000000000
ENDCHAR
STARTCHAR  4FE8
ENCODING  20456
SWIDTH  1000 0
DWIDTH  14 0
BBX  14 12 0 -3
BITMAP
0000006010202020202020202000
000080E040FFFFFFFFFFFFFFFF00
0080FF30006010FF10FF20106000
40E0FF2000E060FF10FF30E0C000
0010FF20004060FF20FF40A03000
0000FF2020FFFFFFFFFFFFFFFF00
0000FF2020FF0000000000000000
0000FF2020FF0000000000000000
0000FF2040E00000000000000000
0000FF20C0800000000000000000
0000FF40F0200000000000000000
0000200010000000000000000000
ENDCHAR
STARTCHAR  4FE9
ENCODING  20457
SWIDTH  1000 0
DWIDTH  14 0
BBX  13 12 0 -3
BITMAP
000020A0102020202020202020
0000C0A0A0FFFFFFFFFFFFFFFF
10C0FF20000020FF0020FF0020
40A0FF20FFFFFFFFFFFFFFFFFF
0000FF20FF3030FF2030FF30FF
0000FF20FF2040F00030F020FF
0000FF20FF20C0FF6060FF40FF
0000FF20FF80FF80C0E0C0E0FF
0000FF20FFFFA00080C00060FF
0000FF20FFA01000A0201030FF
0000FF20FF2000000000E0FFC0
00000000200000000000101000
ENDCHAR
STARTCHAR  4FEA
ENCODING  20458
SWIDTH  1000 0
DWIDTH  14 0
BBX  13 12 0 -3
BITMAP
000020A0202020202020202020
0000C0A0E0FFFFFFFFFFFFFFFF
00A0FF10202020A010202020A0
60E0FF10FFFFFFFF30FFFFFFFF
0010FF10FF2010FF30FF2020FF
0000FF10FFE080FF30FFE060FF
0000FF10FFA0A0FF30FFA0A0FF
0000FF10FF60E0FF30FF60E0FF
0000FF10FF2060FF30FF2060FF
0000FF10FF2010FF20FF1020FF
0000FF10FF20FFE010FF20FFC0
00000000000010000010001000
ENDCHAR
STARTCHAR  4FED
ENCODING  20461
SWIDTH  1000 0
DWIDTH  14 0
BBX  14 12 0 -2
BITMAP
0000002000000000000000000000
000040F020E0A0FFFFFFFFF01000
0030F06080C01020202020C08000
40F0FF40F020000000000030F010
2040FF2030FFFFFFFFFFFFE02000
0000FF2000202040302020300000
0000FF2000C030C0800030E00000
0000FF2000A08060C00080A00000
0000FF200060E010FF20E0400000
0000FF200010F0306060E0000000
0000FF202030804030E0A0303000
0000FF20E0F0F0F0F0F0F0F0F000
ENDCHAR
STARTCHAR  4FEE
ENCODING  20462
SWIDTH  1000 0
DWIDTH  14 0
BBX  13 12 0 -2
BITMAP
00000000000000000000000000
000030E0100040801010104010
0010E0800010E0FFFFFFFFFF10
10C0FF40FFA0E0A04040E08000
20A0FF40FF2020C0FFFFC01000
0000FF40FF40C0F0A080E0F0A0
0000FF40FF60603080F0802060
0000FF40FF0080FFA080E04000
0000FF40FF003080E0E080A040
0000FF40FF00A0C080A0F0A020
0000FF40FF1060C0F0A0300000
0000E0201030C0602000000000
ENDCHAR
STARTCHAR  4FEF
ENCODING  20463
SWIDTH  1000 0
DWIDTH  14 0
BBX  13 13 0 -3
BITMAP
00000000000000000000000000
000040A000000000E020000000
0010E060FFFFFFFFFFFFFFFFF0
10C0FF20FF3020606020208020
40C0FF20FF2060FF801010FF30
0000FF20FFC0FFFFFFFFFFFFF0
0000FF20FF4080FF000000FF20
0000FF20FF1020FF808000FF20
0000FF30FF0020FF20F020FF20
0000FF60E00020FF006030FF20
0000FFA0A00020FF000000FF20
0000F0C0400020FF0000FFE000
00000000000000000000100000
ENDCHAR
STARTCHAR  4FF1
ENCODING  20465
SWIDTH  1000 0
DWIDTH  14 0
BBX  13 12 0 -3
BITMAP
00000080102020202020208000
0010A0A020FFFFFFFFFFFFFF00
20E0FF2020FFFFFFFFFFFFFF00
40A0FF2020FF3030303040FF00
0000FF2020FFFFFFFFFFFFFF00
0000FF2020FF2020202040FF00
0000FF2020FFFFFFFFFFFFFF00
0000FF2030FF2020202030FF20
0000FF40FFFFFFFFFFFFFFFFFF
0000FF2030F060000000E0A000
0000FF20E0800000000020E060
00006010100000000000001000
ENDCHAR
STARTCHAR  4FF3
ENCODING  20467
SWIDTH  1000 0
DWIDTH  14 0
BBX  13 12 0 -3
BITMAP
000010A0100010C000C0100000
0000C0C0102030FF00FF302010
00A0FF20E0FFFFFF00FFFFFFE0
40E0FF20000020FF00FF200000
0000FF20101030FF00FF301010
0000FF2080FFFFFF00FFFFFF80
0000FF20000020FF00FF200000
0000FF20000020FF00FF200000
0000FF20E0FFFFFF00FFFFFFE0
0000FF20102030FF00FF302010
0000FF20000020FF00FF200000
00000000000000200020000000
ENDCHAR
STARTCHAR  4FF8
ENCODING  20472
SWIDTH  1000 0
DWIDTH  14 0
BBX  14 12 0 -2
BITMAP
0000002000000000400000000000
000040F040202030FF2020202000
0030F0A0C0FFFFFFFFFFFFFFFF00
40F0FF2000FFFFFFFFFFFFFFF000
2060FF20002020A0A02020201000
0000FF80FFFFFFFFFFFFFFFFFF00
0000FF202060FF606040F0E02000
0000FF2060FFA020F04040F0A000
0000FF60F0A0FFFFFFFFFFFFC030
0000FF2020202020F04020202000
0000FF20A0FFFFFFFFFFFFFFE000
0000FF2000000000F03000000000
ENDCHAR
STARTCHAR  4FFA
ENCODING  20474
SWIDTH  1000 0
DWIDTH  14 0
BBX  14 11 0 -2
BITMAP
0000004000000000300000000000
000060F030202040F06020202000
0060FF40C0FFFFFFFFFFFFFFFF00
40C0FF2040A0C040601080E06000
0000FF40E0FFFFFFFFFFFFF08010
0000FF2020FF2030FF2030FF0000
0000FF2020FFFFFFFFFFFFFF0000
0000FF2020FF2030FF2040FF0000
0000FF2020FFFFFFFFFFFFC00000
0000FF2000202030FF404030FF10
0000FF2000000010FFFFFFFFC000
ENDCHAR
STARTCHAR  4FFE
ENCODING  20478
SWIDTH  1000 0
DWIDTH  14 0
BBX  13 12 0 -2
BITMAP
00000010000000000000000000
000040F0100040C00000003000
0020F06020FFFFFFFFFFFFFF20
10E0FF2020FF2030FF2020FF20
60E0FF2020FF2030FF2020FF20
0020FF2020FFFFFFFFFFFFFF20
0000FF2020FF1040F01010FF10
0000FF2020FFFFFFFFFFFFC000
0000FF20000080E030E0000000
0000FF3040C0F06040FF404040
0000FF40E0E0E0E0E0FFE0E0E0
0000FF200000000010FF000000
ENDCHAR
STARTCHAR  500C
ENCODING  20492
SWIDTH  1000 0
DWIDTH  14 0
BBX  13 11 1 -2
BITMAP
00004080000000803000000000
0010E060C0C0C0E0E0C0C0C0FF
10C0FF00FF60606060606060FF
4080FF0020FFFFFFFFFF801000
0020FF0020FF20202020FF2000
0020FF0020FF20202020FF1000
0020FF0020FFFFFFFFFFC00000
0020FF0020FFFFFFFFFFFFF000
0020FF0020FF2020202030FF00
0020FF0020FF1010101030FF00
0020FF0020FFFFFFFFFFFFA000
ENDCHAR
STARTCHAR  500D
ENCODING  20493
SWIDTH  1000 0
DWIDTH  14 0
BBX  14 12 0 -2
BITMAP
0000000000000000000000000000
000020C010000010E01000000000
0000C0A030FFFFFFFFFFFFFFFF00
00A0FF2000306010101040601000
60E0FF200060E0000000A0A00000
0020FF202020E0402040FF402000
0000FF20FFFFFFFFFFFFFFFFFF00
0000FF2000202020202020C01000
0000FF2010FFFFFFFFFFFFFF1000
0000FF2010FF1000000010FF1000
0000FF2010FF2020202020FF1000
0000FF2010FFFFFFFFFFFFC00000
ENDCHAR
STARTCHAR  500F
ENCODING  20495
SWIDTH  1000 0
DWIDTH  14 0
BBX  14 11 0 -2
BITMAP
000010A020006080101010401000
0000A0C00010E0FFFFFFFFFF2000
10A0FF30C060C0A0301080C00000
60C0FF30FF0020C0FFE0E0200000
0000FF30FF2080C0FFC0E0E08010
0000FF30FF40C08030804060A000
0000FF30FF00202030FFE0802000
0000FF30FF60FFFFFFFFFFFFFF00
0000FF30FF000040F060A0200000
0000FF30FF30A0F06000A0F08000
0000E01000608010000000606000
ENDCHAR
STARTCHAR  5012
ENCODING  20498
SWIDTH  1000 0
DWIDTH  14 0
BBX  14 12 0 -3
BITMAP
0000106000000000000000003000
0000A0E0FFFFFFFFFF20A010FF20
0080FF3000E080202000FF20FF20
60E0FF2080E000A0A000FF20FF20
0020FF20F0F0F0FFF010FF20FF20
0000FF208040A0204010FF20FF20
0000FF202020FF302000FF20FF20
0000FF20F0FFFFFFFF00FF20FF20
0000FF200000FF200000FF20FF20
0000FF203060FFE0F0602020FF20
0000FF60E0C080603020FFFFC000
0000100000000000000000000000
ENDCHAR
STARTCHAR  5014
ENCODING  20500
SWIDTH  1000 0
DWIDTH  14 0
BBX  13 13 0 -3
BITMAP
00000000000000000000000000
000020E030FFFFFFFFFFFFF0A0
0010E0A020FF101010101040F0
10C0FF2020FF202020202040E0
60E0FF2020FFFFFFFFFFFFFFA0
0010FF2020FF000010A0000000
0000FF2020FFFF2020FF0020FF
0000FF2030F0FFA0A0FFA0A0FF
0000FF2040E0808080FF8080E0
0000FF2080E0E00020FF0010E0
0000FF20A0A0FF6080FF6080FF
0000FF20C040C0C0C0C0C0C0F0
00000000000000000000000000
ENDCHAR
STARTCHAR  5018
ENCODING  20504
SWIDTH  1000 0
DWIDTH  14 0
BBX  13 13 1 -3
BITMAP
00000000000000002000000000
000020A040A00020FF0000A030
0010E0A010F06020FF0060E010
20E0FF000040A020FF00A04000
4080FF00FFFFFFFFFFFFFFFFFF
0020FF00FF30202020208030FF
0020FF00FF20FFFFFFFFFF20FF
0020FF00FF20FF302030FF20FF
0020FF00FF20FF100020FF20FF
0020FF00FF20FFFFFFFFC020FF
0020FF00FF20202020101030FF
0020FF00FF2000000000FFFFC0
00002000000000000000101000
ENDCHAR
STARTCHAR  5019
ENCODING  20505
SWIDTH  1000 0
DWIDTH  14 0
BBX  13 13 0 -3
BITMAP
00000010000000000000000000
000080C00000FFFFFFFFFFFF80
0030FF6000001010101030FF30
20E0FF1060E0FFFFFFFFFFFF60
40C0FF20FF1040202020202010
0010FF20FF00E0A02020202010
0010FF20FF60FFFFFFFFFFFFE0
0010FF20FF80401030FF101010
0010FF20FFE0FFFFFFFFFFFFFF
0010FF20FF000060F040C02000
0010FF20FF10A0F0400080E030
0010FF1000C0C02000000030A0
00000000001000000000000000
ENDCHAR
STARTCHAR  501A
ENCODING  20506
SWIDTH  1000 0
DWIDTH  14 0
BBX  13 13 0 -3
BITMAP
00000000000000000000000000
000030E010000040E010000000
0010E080FFFFFFFFFFFFFFFF80
10E0FF202080F06020E0FF8010
60E0FF30F0E03000000080FFA0
0010FF30802020202020204040
0000FF60FFFFFFFFFFFFFFFFFF
0000FF2020FFFFFFFFFF20FF20
0000FF2020FF202020FF10FF20
0000FF2020FFFFFFFFE000FF20
0000FF2000202020201010FF20
0000FF20000000E0FFFFFFE000
00000000000000101010100000
ENDCHAR
STARTCHAR  501C
ENCODING  20508
SWIDTH  1000 0
DWIDTH  14 0
BBX  14 12 0 -3
BITMAP
000010C02020202020202020C010
0000A0A020FFFFFFFFFFFFFFFF10
0080FF2020FF1020FF302010FF10
40E0FF2020FFE0FFFFFFFF10FF10
0000FF2020FFFFFFFFFFFFA0FF10
0000FF2020FF101010108030FF10
0000FF2020F0FFFFFFFFFF30FF10
0000FF2040E0FF302020F030FF10
0000FF2080C0FFFFFFFFE010FF10
0000FF20A080202020202020FF10
0000FF20C04000000000FFFFC000
0000000000000000000010000000
ENDCHAR
STARTCHAR  501F
ENCODING  20511
SWIDTH  1000 0
DWIDTH  14 0
BBX  13 12 0 -3
BITMAP
000010A01000C0100010C00000
0000C0A080FFFFFFFFFFFFFF00
00A0FF201020FF302030FF2000
60E0FF201010FF201020FF1010
0010FF40FFFFFFFFFFFFFFFFFF
0000FF20102020202020208010
0000FF2010FFFFFFFFFFFFFF10
0000FF2010FF2020202020FF10
0000FF2010FFFFFFFFFFFFFF10
0000FF2010FF2020202030FF10
0000FF2010E0E0E0E0E0E0A000
00001000000000000000000000
ENDCHAR
STARTCHAR  5021
ENCODING  20513
SWIDTH  1000 0
DWIDTH  14 0
BBX  13 12 0 -3
BITMAP
00001080102020202020204000
0010E0A020FFFFFFFFFFFFFF20
40E0FF2020FFFFFFFFFFFFFF20
6080FF2020FF2020202020FF10
0000FF2020FFFFFFFFFFFFE000
0000FF20001010101010000030
0000FF20F0F0F0F0F0F0F0F0FF
0000FF20FF30202020202030FF
0000FF20FFFFFFFFFFFFFFFFFF
0000FF20FF30202020202030FF
0000FF20F0F0F0F0F0F0F0F0A0
00001000000000000000000000
ENDCHAR
STARTCHAR  5025
ENCODING  20517
SWIDTH  1000 0
DWIDTH  14 0
BBX  14 13 0 -3
BITMAP
0000000000000000000000000000
000020E010000060A00000000000
0010E0A0E0E0E0E0FFE0E0E0FF10
20E0FF40FF60806060606060FF10
3080FF308060F0200020F0608000
0000FF2080F04000000040F08000
0000FF2080300000000000306000
0000FF2000FFFFFFFFFFFF600000
0000FF2000202020FF2020000000
0000FF2000000010FF1000000000
0000FF2020202030FF2020201000
0000FF20FFFFFFFFFFFFFFFFE000
0000000000000000000000000000
ENDCHAR
STARTCHAR  5026
ENCODING  20518
SWIDTH  1000 0
DWIDTH  14 0
BBX  14 11 0 -2
BITMAP
000010C020A01010E00040800000
0010C0A010C0A030FF20E0800000
10C0FF20FFFFFFFFFFFFFFFF2000
40A0FF20202020E0A02020202000
0000FF60FFFFFFFFFFFFFFFFFF10
0000FF200080F0402030F0800000
0000FF2080FFFFFFFFFFFFFF6000
0000FF80E0FF10002020FF40E030
0000FF3010FF1020FFFFC0004000
0000FF2000FF302020202030FF00
0000FF2000FFFFFFFFFFFFFFA000
ENDCHAR
STARTCHAR  5028
ENCODING  20520
SWIDTH  1000 0
DWIDTH  14 0
BBX  13 12 0 -3
BITMAP
00000080101010101010102040
0000A0E020FFFFFFFFFFFFFFFF
10A0FF3020FF202020202030FF
40C0FF2020FFFFFFFFFFFFFFA0
0000FF2020FF000010FF100000
0000FF2020FFF0FFFFFFFFFFFF
0000FF2020F0102020FF202040
0000FF2040E0FFFFFFFFFFFFFF
0000FF2080A0FF3020202030FF
0000FF20E060FF3010101030FF
0000FF40E010FFFFFFFFFFFFA0
00000000000010101010100000
ENDCHAR
STARTCHAR  5029
ENCODING  20521
SWIDTH  1000 0
DWIDTH  14 0
BBX  13 12 0 -3
BITMAP
0000308020202030C020202000
0010E080FFFFFFFFFFFFFFFF20
30E0FF2020FFFFFFFFFFFFFF00
4080FF2020303040FF30303010
0000FF20FFFFFFFFFFFFFFFFC0
0000FF2020E0E0E0E0E0E0FF00
0000FF2020FF4040404040FF00
0000FF2020FFFFFFFFFFFFFF00
0000FF2020FFFFFFFFFFFFFF00
0000FF2020FF2020202040FF00
0000FF2020FF000000C0FFA000
00000000000000000000000000
ENDCHAR
STARTCHAR  502A
ENCODING  20522
SWIDTH  1000 0
DWIDTH  14 0
BBX  13 12 0 -3
BITMAP
000020C0301060A01020204010
0010E0A0FFFFE04080F0F0FF20
30E0FF20FF200000000000FF20
2060FF20FFFFFF6080FFFFFF20
0000FF20FF302010102020FF20
0000FF20FF302020202020FF20
0000FF20FFFFFFFFFFFFFFC000
0000FF200000FF2000FF200000
0000FF200080E00000FF200040
0000FF30A0F0300000FF3030FF
0000FF80A020000000FFFFFFA0
00001000000000000010100000
ENDCHAR
STARTCHAR  502C
ENCODING  20524
SWIDTH  1000 0
DWIDTH  14 0
BBX  13 12 0 -3
BITMAP
000010C010000030A010101010
0010C0A000000040FFFFFFFFC0
10C0FF2020202060E020204000
40C0FF20FFFFFFFFFFFFFFFF20
0000FF20FF302020202020FF20
0000FF20FFFFFFFFFFFFFFFF20
0000FF20FF302020202020FF10
0000FF20FFFFFFFFFFFFFFC000
0000FF2020202030FF20202020
0000FF20FFFFFFFFFFFFFFFFFF
0000FF2000000020FF00000000
00000000000000001000000000
ENDCHAR
STARTCHAR  502D
ENCODING  20525
SWIDTH  1000 0
DWIDTH  14 0
BBX  13 11 0 -2
BITMAP
00001060102020202020306000
0000A0C060FFFFFFFFFFF0C010
0080FF3010101030FF10101010
60E0FF20FFFFFFFFFFFFFFFF80
0010FF2060F04020FF0060F040
0000FF20A0306040E000004080
0000FF20FFFFFFFFFFFFFFFFFF
0000FF2020E0A0202020A0FF20
0000FF2020A0F0E0A0F0E04000
0000FF2060A0E0F0A0E0F0A040
0000E020C0804000000040A080
ENDCHAR
STARTCHAR  502E
ENCODING  20526
SWIDTH  1000 0
DWIDTH  14 0
BBX  13 12 0 -3
BITMAP
00000080102020202020206000
000080E020FFFFFFFFFFFFFF20
0080FF3020FF2030FF2020FF20
60E0FF2020FFFFFFFFFFFFFF20
0010FF2020FF2030FF2020FF10
0000FF2020FFFFFFFFFFFFC000
0000FF2010101030FF10101010
0000FF20FFFFFFFFFFFFFFFFE0
0000FF200040E020FF10F04000
0000FF2040F04020FF0060F020
0000FF30F0600020FF0000A0A0
00004000100000003000001000
ENDCHAR
STARTCHAR  503A
ENCODING  20538
SWIDTH  1000 0
DWIDTH  14 0
BBX  13 12 0 -2
BITMAP
00000000000000000000000000
000020E010202020C020202020
0020E08000FFFFFFFFFFFFFFFF
30E0FF2010FFFFFFFFFFFFFF10
40A0FF2010303030FF40303020
0000FF2080FFFFFFFFFFFFFFFF
0000FF2020FFFFFFFFFFFFFF00
0000FF2020FF2030C02030FF00
0000FF2020FF0060F01020FF00
0000FF2010C060F080F0A08000
0000FF2060E0E0400040C0FFA0
0000A010606000000000002060
ENDCHAR
STARTCHAR  503C
ENCODING  20540
SWIDTH  1000 0
DWIDTH  14 0
BBX  14 13 0 -3
BITMAP
0000000000000000000000000000
000020E010000010E01000000000
0010E0A0FFFFFFFFFFFFFFFF4000
10C0FF2020202020FF3020601000
40C0FF2020FFFFFFFFFFFFFF1000
0000FF2020FF3030303040FF1000
0000FF2020FFFFFFFFFFFFFF1000
0000FF2020FFFFFFFFFFFFFF1000
0000FF2020FF2020202020FF1000
0000FF2020FFFFFFFFFFFFFF1000
0000FF2030FF3030303030FF2000
0000FF60FFFFFFFFFFFFFFFFFF40
0000000010101010101010101000
ENDCHAR
STARTCHAR  503E
ENCODING  20542
SWIDTH  1000 0
DWIDTH  14 0
BBX  13 11 0 -2
BITMAP
000030A0100000102020202020
0020E080FF2000E0FFFFFFFFFF
40E0FF20FFFFA010E0E0FFF0FF
4060FF20FF301020FF404040FF
0000FF20FF200020FF20FF20FF
0000FF20FF200020FF20FF20FF
0000FF20FF200020FF40F020FF
0000FF20FF201020FFA0A060FF
0000FF20FFC0E010E0F060FFC0
0000FF40FFC02060F0400080C0
0000E040600000604000000060
ENDCHAR
STARTCHAR  5043
ENCODING  20547
SWIDTH  1000 0
DWIDTH  14 0
BBX  14 13 0 -3
BITMAP
0000001000000000000000000000
000040E0FFFFFFFFFFFFFFFFFF00
0030F080FF303030303030602000
30F0FF20FF20FFFFFFFFFFFF2000
1040FF20FF20FFFFFFFFFFFF1000
0000FF20FF20FFFFFFFFFFE00000
0000FF20FF2020E0402020000000
0000FF20FF20FFFFFFFFFFFFC000
0000FF20FF20A0F0A060A0FF2000
0000FF20FF2080F0FFFFFFA03000
0000FF20FF30C080602060A06000
0000FF20FFFFFFFFFFFFFFFFFF10
0000100010101010101010101000
ENDCHAR
STARTCHAR  5047
ENCODING  20551
SWIDTH  1000 0
DWIDTH  14 0
BBX  14 12 0 -3
BITMAP
00002080202020A010202030A000
0020E080FFFFFFFF30FFFFFFFF00
30F0FF20FF2000FF20101020FF00
1040FF20FFFFFFE020FFFFFFC000
0000FF20FF301000003030304000
0000FF20FF30201030FFFFFFFF00
0000FF20FFFFFFE000300030FF00
0000FF20FF20000020E0A0C0A000
0000FF20FFFFFFF00020F0F01000
0000FF20FF30202020C0C0C0C000
0000FF20FF20000060800010C020
0000100010000000000000000000
ENDCHAR
STARTCHAR  5048
ENCODING  20552
SWIDTH  1000 0
DWIDTH  14 0
BBX  13 12 0 -3
BITMAP
000010A0102020202020204000
0020E0A020FFFFFFFFFFFFFF20
40F0FF2020FFFFFFFFFFFFFF20
4080FF2020FF3030303030FF10
0000FF2020FFFFFFFFFFFFC000
0000FF2000A0A02020202030A0
0000FF20A0FFFFFFFFFFFFFFFF
0000FF30C0FF0060E0E02020FF
0000FF2020FF80C01060A020FF
0000FF2020FFFFFFFFC00020FF
0000FF10002020202010E0FFC0
00000000000000000000101000
ENDCHAR
STARTCHAR  504C
ENCODING  20556
SWIDTH  1000 0
DWIDTH  14 0
BBX  14 12 0 -3
BITMAP
000020C01010E0000000E0100000
0020E08080E0FFE0E0E0FFE0E000
30E0FF102060FF404040FF604000
0030FF100000FF20000000000000
0000FF20FFFFFFFFFFFFFFFFFF30
0000FF102060F020202020202000
0000FF1000C0C02020202030C000
0000FF1060FFFFFFFFFFFFFFFF00
0000FF40F0C0FF0000000020FF00
0000FF104020FF2020202030FF00
0000FF100020FFFFFFFFFFFFA000
0000100000000000000000000000
ENDCHAR
STARTCHAR  504E
ENCODING  20558
SWIDTH  1000 0
DWIDTH  14 0
BBX  14 12 0 -3
BITMAP
000020A010202020202020C01000
0030E08020FFFFFFFFFFFFFF2000
40E0FF1020FFFFFFFFFFFFFF2000
0010FF1020FF2020FF3020FF1000
0000FF1020FFFFFFFFFFFFE00000
0000FF1020303030303030202000
0000FF20FFFFFFFFFFFFFFFFFF10
0000FF1000FF200030F010606000
0000FF1000FF200000A0F0E08000
0000FF1000FFA0A00010E0A01000
0000FF1060FFA030000010E08000
0000300010200000000000000000
ENDCHAR
STARTCHAR  504F
ENCODING  20559
SWIDTH  1000 0
DWIDTH  14 0
BBX  13 13 0 -3
BITMAP
00000000000000000000000000
000030C000000000E040000060
0030E080FFFFFFFFFFFFFFFFFF
30F0FF20FF30101010101030FF
1040FF20FFFFFFFFFFFFFFFFC0
0000FF20FF3020202020202020
0000FF20FF30FFFFFFFFFFFFFF
0000FF20FF30FF30FF30FF30FF
0000FF30FF20FF30FF30FF30FF
0000FF60E020FFFFFFFFFFFFFF
0000FFA08020FF20FF20FF30FF
0000FF803020FF10801080E0A0
00001000000010000000000000
ENDCHAR
STARTCHAR  5055
ENCODING  20565
SWIDTH  1000 0
DWIDTH  14 0
BBX  14 12 0 -3
BITMAP
000020A020C0000010C000202000
0020E0A020FFFFFF60FFE0FFA000
30E0FF2020FF202020FF60200000
1080FF2020FF60C040FF2030E000
0000FF20A0F0C06030FFFFFFA000
0000FF2020202080A02020A01000
0000FF2030FFFFFFFFFFFFFF2000
0000FF2030F02020202020FF2000
0000FF2030FFFFFFFFFFFFFF2000
0000FF2030F01010101010FF1000
0000FF2030FFFFFFFFFFFFE00000
0000100000101010101010000000
ENDCHAR
STARTCHAR  505A
ENCODING  20570
SWIDTH  1000 0
DWIDTH  14 0
BBX  14 13 0 -3
BITMAP
0000000000200000002000000000
000040C000FF200000E080000000
0020F06000FF200010FF60201000
20E0FFE0FFFFFFFF40FFFFFFE000
2060FF2020FF3020A0A00020FF00
0010FF1000FF203020E03060E000
0010FF20FFFFFFFF20A0E0C0A000
0010FF20FF2020FF2020F0FF3000
0010FF20FF0000FF2000E0F00000
0010FF20FF0000FF2060F0E04000
0010FF20FF1010FF40F06060A000
0010FF20FFFFFFC060A000008000
0000100010100000000000000000
ENDCHAR
STARTCHAR  505C
ENCODING  20572
SWIDTH  1000 0
DWIDTH  14 0
BBX  13 12 0 -3
BITMAP
000020A0100000608000000000
0010E0A0FFFFFFFFFFFFFFFF80
20E0FF2020303030303040C010
30A0FF2000FFFFFFFFFFFFFF00
0000FF2000FFFFFFFFFFFFC000
0000FF20203030303030302040
0000FF30FFFFFFFFFFFFFFFFFF
0000FF30A020202020202020A0
0000FF20E0FFFFFFFFFFFFFF00
0000FF2000001010FF10000000
0000FF200000FFFFE000000000
00001000000010100000000000
ENDCHAR
STARTCHAR  5065
ENCODING  20581
SWIDTH  1000 0
DWIDTH  14 0
BBX  14 12 0 -3
BITMAP
0000404020200010106020102000
0020E080FFFF20E0FFFFFFFFFF00
20E0FF0000FF202020FF3030FF10
20A0FF0060E000FFFFFFFFFFFFC0
0020FF00A06000E0FFFFFFFFE000
0020FF00F0A0202020FF30200000
0020FF00C0FF40FFFFFFFFFFFF00
0020FF0040FF203030FF40303000
0020FF0080C0A0FFFFFFFFFFFF00
0020FF20F0A0201010FF30101010
0020FF8080C0FFFFFFFFFFFFFFC0
0000100000000010101010101000
ENDCHAR
STARTCHAR  506C
ENCODING  20588
SWIDTH  1000 0
DWIDTH  14 0
BBX  13 12 0 -2
BITMAP
00000000000000000000000000
000060E00080A0000000000000
0060FF4040FFFFFFFFFFFFF020
60F0FF20F0A040E040C080FF20
1040FF60C040FFF060E010FF20
0020FF0010A0E0A0FFC000FF20
0020FF00A0C02080C08020FF20
0020FF00100020E01010FFC000
0020FF00101060208000104000
0020FF00E080FF10C08020FF30
0020FF40FF30FF20203020C060
0020FF80A020FFFFFFFFFFFF80
ENDCHAR
STARTCHAR  5076
ENCODING  20598
SWIDTH  1000 0
DWIDTH  14 0
BBX  13 12 0 -3
BITMAP
00000060002020202020206010
0010C0C020FFFFFFFFFFFFFF20
20E0FF2020FF2030FF2020FF20
60A0FF2020FFFFFFFFFFFFFF20
0000FF2020FFFFFFFFFFFFE000
0000FF2000202030FF20201040
0000FF20FFFFFFFFFFFFFFFFFF
0000FF20FF301030FF308030FF
0000FF20FF40A0E0FFF0F020FF
0000FF20FF30806040308040FF
0000F010F02000000000C0FFC0
00000000000000000000101000
ENDCHAR
STARTCHAR  5077
ENCODING  20599
SWIDTH  1000 0
DWIDTH  14 0
BBX  14 12 0 -3
BITMAP
000020A010200020202020100000
0030E0A040FF80FFFFFFFFE02000
40F0FF20E0FFFFFFFFFFFFA0C000
0020FF80C0202020402020403000
0000FF2020FFFFFFFFFF20FF2000
0000FF2020FF3040FFFF20FF2000
0000FF2020FFFFFFFFFF20FF2000
0000FF2020FF2030FFFF20FF2000
0000FF2020FFFFFFFFFF20FF2000
0000FF2020FF0020FF2010FF2000
0000F01010FF00F0C0FFFFC00000
0000000000000010001010000000
ENDCHAR
STARTCHAR  507B
ENCODING  20603
SWIDTH  1000 0
DWIDTH  14 0
BBX  13 11 0 -2
BITMAP
0000003000400010A000004020
000080F010C0A010FF1060FF60
00A0FF400030E040FF20E08010
40E0FF2000FFFFFFFFFFFFFFE0
0000FF2020A0E020FF1080E020
0000FF20A0A02010FF10004080
0000FF20FFFFFFFFFFFFFFFFC0
0000FF202080E0302030A0FF10
0000FF200030C0FFC0F0C03000
0000FF2040A0E0F0A0E0F0A030
0000C0104080400000003080A0
ENDCHAR
STARTCHAR  507E
ENCODING  20606
SWIDTH  1000 0
DWIDTH  14 0
BBX  13 11 0 -2
BITMAP
000020A010000000C010000000
0020E0A000FFFFFFFFFFFFFFE0
30F0FF200030E020E030E03010
0030FF20E0FFFFFFFFFFFFFFFF
0000FF202030E0202020E03020
0000FF2010E0E0E0E0E0E0FF20
0000FF2020FF3030C03030FF20
0000FF2020FF0040F02000FF20
0000FF2010A080F080F0A0A010
0000FF2080F0E0400020A0F080
0000A010604000000000002060
ENDCHAR
STARTCHAR  507F
ENCODING  20607
SWIDTH  1000 0
DWIDTH  14 0
BBX  13 12 0 -3
BITMAP
000020C020801020FF0010A010
0030E08020C0E030FF10E0A010
30F0FF20E0E0F0E0FFE0F0E0FF
1040FF20FF60404040404060FF
0000FF20202020202020202020
0000FF2020FFFFFFFFFFFFFF00
0000FF20202020202020202010
0000FF20FFFFFFFFFFFFFFFFA0
0000FF200010C0E01000400000
0000FF2010E0C0202040F06000
0000FF20A0FFFFFFF0E0E0E020
00008010304020100000003000
ENDCHAR
STARTCHAR  5080
ENCODING  20608
SWIDTH  1000 0
DWIDTH  14 0
BBX  13 12 0 -3
BITMAP
00000030000000600000000000
000080E0102020E0202020A010
10A0FF3020FFFFFFFFFFFFFF20
30C0FF2020FF2040FF2020FF20
0000FF2020FFFFFFFFFFFFFF20
0000FF2020FF2030FF2020FF10
0000FF2020FFFFFFFFFFFFC000
0000FF20000000A0F020E06060
0000FF20000080E0FFA0FFFFFF
0000FF2040E0C010FF40303020
0000FF30E0600000FFFFFFFF80
00001000000000000000000000
ENDCHAR
STARTCHAR  5085
ENCODING  20613
SWIDTH  1000 0
DWIDTH  14 0
BBX  14 12 0 -3
BITMAP
000020A010000020F00040A00000
0010E0A0FFFFFFFFFFFFFFFFA000
10E0FF2020303040FF3030FF2000
30C0FF2020FFFFFFFFFFFFFF1000
0000FF2020FFFFFFFFFFFFFF1000
0000FF2020FF3040FF3030FF1000
0000FF2020FFFFFFFFFFFFFF1000
0000FF2020202020202030A02000
0000FF20FFFFFFFFFFFFFFFFFF20
0000FF200040A020001020FF0000
0000FF200010808030FFFFC00000
0000100000000000001010000000
ENDCHAR
STARTCHAR  5088
ENCODING  20616
SWIDTH  1000 0
DWIDTH  14 0
BBX  13 11 0 -2
BITMAP
00001040202020202020202010
0000C0A0FFFFFFFFFFFFFFFF80
10C0FF20002030FF20FF30A010
40E0FF2020FFFFFFFFFFFFFF20
0000FF2020FF30FF20FF30FF20
0000FF2020FFFFFFFFFFFFC000
0000FF2010202020F020202020
0000FF20F0FFFFFFFFFFFFFFFF
0000FF200060C010FF10C06000
0000FF2080E01010FF1040F040
0000FF40A0100010FF10008080
ENDCHAR
STARTCHAR  508D
ENCODING  20621
SWIDTH  1000 0
DWIDTH  14 0
BBX  13 13 0 -3
BITMAP
00000000000000000000000000
000030C010000010E000000000
0030E080FFFFFFFFFFFFFFFF40
30F0FF202020C0602030F04000
1060FF20C0C0E0E0C0E0FFC0FF
0000FF20FF606060A0606060FF
0000FF2020202030F030202040
0000FF30FFFFFFFFFFFFFFFFFF
0000FF200020FF202020204000
0000FF200040FFFFFFFFFFFF00
0000FF2010E08000001030FF00
0000FF20A0C000000080FFA000
00001000100000000000000000
ENDCHAR
STARTCHAR  50A3
ENCODING  20643
SWIDTH  1000 0
DWIDTH  14 0
BBX  14 12 0 -3
BITMAP
000020C010000010800000000000
0020E080FFFFFFFFFFFFFFFF3000
20E0FF2030303040FF3030300000
2080FF20A0FFFFFFFFFFFFFF0000
0000FF30FFFFFFFFFFFFFFFFFF00
0000FF2020A0FF804020C0E03000
0000FF60E0FF8020FF0060FFE020
0000FF3060A0F060FF80E0606000
0000FF2000006030FF4030000000
0000FF2060E0E060FF60F0C04000
0000FF40C06010FFA00020A0C000
0000100000000010000000000000
ENDCHAR
STARTCHAR  50A5
ENCODING  20645
SWIDTH  1000 0
DWIDTH  14 0
BBX  14 12 0 -3
BITMAP
000020C040600010FF0010801000
0020E08020E08020FF20E0C00000
30F0FF30C0E0E0C0FFC0FFE0FF10
1060FF40FF80808080808080FF10
0000FF3080FFFFFFFFFFFFF0A000
0000FF2000FF3020202030FF0000
0000FF2000FF3020202030FF0000
0000FF2000FFFFFFFFFFFFA00000
0000FF200030FF6000FF20001000
0000FF2060F0A00000FF2020FF00
0000FF20E060000000FFFFFFC000
0000100000000000001010100000
ENDCHAR
STARTCHAR  50A7
ENCODING  20647
SWIDTH  1000 0
DWIDTH  14 0
BBX  13 12 0 -3
BITMAP
00001080000000408000000000
0010C0A0E0E0E0E0FFE0E0E0FF
20E0FF10FF60606060606060F0
1040FF1000FFFFFFFFFFFFA000
0010FF1000FF30202020000000
0010FF1000FFFFFFFFFFFFFF20
0010FF1000FF30202030FF2000
0010FF1020FF30202030FF2020
0010FF60FFFFFFFFFFFFFFFFFF
0010FF1010A0E0000040F04000
0010FF10F0C02000000060E030
00006000100000000000001000
ENDCHAR
STARTCHAR  50A8
ENCODING  20648
SWIDTH  1000 0
DWIDTH  14 0
BBX  14 13 0 -3
BITMAP
0000000000000000000000000000
000060C010000000004000100000
0060FF80E04040FFFFFFFFFF3000
30E0FF408060002030FFE0600000
0000FFFFFF20FFFFFFFFFFFFFF10
0000FF20FF202080FFE020202000
0000FF20FF2080FFFF6020400000
0000FF20FF60FFFFFFFFFFFF1000
0000FF20FF2020FF302020FF1000
0000FF20FF2000FFFFFFFFFF1000
0000FF30FFE040FF302020FF1000
0000FFC0A03000FFFFFFFFC00000
0000100000000000000000000000
ENDCHAR
STARTCHAR  50A9
ENCODING  20649
SWIDTH  1000 0
DWIDTH  14 0
BBX  14 12 0 -3
BITMAP
0000606000000000606040000000
0020F04020206010F060F0201000
10E0FF30FFFFFF80FFFFFFFFFF60
1080FF001020FFE0FF10FF201000
0020FF40E040E020FFFFFFFFFF20
0020FF00E0E0A020FF20FF302000
0020FF0080FF4020FF20FF302000
0020FF0040FF2020FFFFFFFFFF20
0020FF00C0FF8020FF00FF200000
0020FF60F040F020FF30FF403010
0020FF606000A040FFE0E0E0E040
0000000000000000200000000000
ENDCHAR
STARTCHAR  50AC
ENCODING  20652
SWIDTH  1000 0
DWIDTH  14 0
BBX  13 11 0 -2
BITMAP
00000040000000006010000000
000080E000FF2000FF2000FF10
0080FF3000FFA0A0FFA0A0FF10
30C0FF2000C08080C0A080E010
0000FF2040FFFFFFFFFFFFFF30
0000FF40F0FF202030FF202000
0000FF3060FFFFFFFFFFFFFF80
0000FF2020FF202030FF202010
0000FF2020FFFFFFFFFFFFFF80
0000FF2020FF404060FF404010
0000FF2020FFE0E0E0E0E0E020
ENDCHAR
STARTCHAR  50B2
ENCODING  20658
SWIDTH  1000 0
DWIDTH  14 0
BBX  14 13 0 -3
BITMAP
0000000000000000000000000000
000060C010201010002030000000
0040F040FFFFFFFFE0A0FFFFFF80
30F0FF2030C0803010E04030FF10
1060FF20FFFFFFFF60800020FF00
0000FF2020A0802010306030F000
0000FF20FFFFFFFFE060F080C000
0000FF20808020C01000E0FF6000
0000FF2080FFFFFF200060FF2000
0000FF20C04000FF2000A0FF6000
0000FF60E00000FF1040F060E000
0000FFA06040FFE000C06000C040
0000000000001000000000000000
ENDCHAR
STARTCHAR  50BA
ENCODING  20666
SWIDTH  1000 0
DWIDTH  14 0
BBX  13 13 0 -3
BITMAP
00000010000000000000000000
000040E01060A0000080301010
0060FF6020F0FFFFC0E0FFFFC0
40F0FF40E0806080C0A08060A0
0020FFC0A080FFF06060E0E030
0000FF20E0C0F0C00000C0C000
0000FF40E0FFC0FFFFFFFFE060
0000FF80A03010202020202060
0000FF10FFFFFFFFFFFFFFFF40
0000FF102030A020A080604000
0000FF1040E0A010A08060F030
0000FF10E06000C0F030006060
00001000000000100000000000
ENDCHAR
STARTCHAR  50BB
ENCODING  20667
SWIDTH  1000 0
DWIDTH  14 0
BBX  13 12 0 -3
BITMAP
000020C01030C0000000003000
0030E080FFFFFFFFFFFFFFFF20
30F0FF10FF80F0C0A0F0A0FF20
0020FF10FF60E0E0C0F080FF10
0000FF10FFFFFFFFFFFFFFE000
0000FF10C0F060202030F0A000
0000FF80E0A0FF40101060E0A0
0000FF60C0FFFFFFFFFFFF3030
0000FF1080C0A06060E0C01000
0000FF2040C0FFFFFFFF804010
0000FFA0E0C080301060A0E080
00000000000000000000000000
ENDCHAR
STARTCHAR  50CF
ENCODING  20687
SWIDTH  1000 0
DWIDTH  14 0
BBX  14 12 0 -3
BITMAP
000020A01000C060101010100000
0020E08010C0FFFFFFFFFFE00000
30F0FF20E0E030202020E0801000
3080FF2040FFFFFFFFFFFFFFFF00
0000FF2020FF2030FF402030FF00
0000FF2020FFFFFFFFFFFFFFA000
0000FF2080E0E080F0A000406000
0000FF204060A0F0A0FFF0E06000
0000FF20E0E08080E0FF80C00000
0000FF2060A0F0C060FF00E08000
0000FF20C0802060FFC00030A000
0000000000000000100000000000
ENDCHAR
STARTCHAR  50D6
ENCODING  20694
SWIDTH  1000 0
DWIDTH  14 0
BBX  13 12 0 -3
BITMAP
000020A020202020E030202020
0030E080C0FFFFFFFFFFFFFFFF
40F0FF1040FFFFFFFFFFFFFFFF
0020FF1020F0F0F0F0F0F0FF40
0010FF1020FF3030303030FF20
0010FF1020FFFFFFFFFFFFE000
0010FF10108080303030A04010
0010FFA0FFFFFFFFFFFFFFFFFF
0010FF1030FFFFFFFFFFFFE020
0010FF1020FF2020202020FF20
0010FF1020FFFFFFFFFFFFE000
00002000001010101010100000
ENDCHAR
STARTCHAR  50DA
ENCODING  20698
SWIDTH  1000 0
DWIDTH  14 0
BBX  14 13 0 -3
BITMAP
0000000000000000000000000000
000040E000000030E00000000000
0040F060FFFFFFFFFFFFFFFFFF30
40FFFF10403020E080F080206000
2080FF10A0E0A0F010A0FFA0E000
0010FF1030FFFF602020A0FF8000
0010FF40F0FFFFFFFFFFFFFFE020
0010FF1020FFFFFFFFFFFFFF0000
0010FF1020FFFFFFFFFFFFE00000
0010FF1000603030FF2060600000
0010FF1080F04020FF1060FF6000
0010FF30C03060FFC0000040A000
0000100000000010000000000000
ENDCHAR
STARTCHAR  50E6
ENCODING  20710
SWIDTH  1000 0
DWIDTH  14 0
BBX  14 12 0 -3
BITMAP
000030C00030A000000080603000
0020F060FFFFFFFFE000E0A0E000
20E0FF10303030302020E0403000
30A0FF10FFFFFFFF40FFFFFFFF30
0010FF10FF2000FF2000F0100000
0010FF10FFFFFFF01000FFA00000
0010FF104040FF600020FFA00000
0010FF10F040FFF02060F0A00000
0010FF30E020FFE060A0A0A00000
0010FF80A030FFA0C0E060C0E010
0010FF4030F0A04080A040F0C000
0000100000000000000000000000
ENDCHAR
STARTCHAR  50E7
ENCODING  20711
SWIDTH  1000 0
DWIDTH  14 0
BBX  14 12 0 -3
BITMAP
0000006000406000000000800000
0000A0E02060F0302020C0E06000
20C0FF20FFFFFFFFFFFFFFFFFF00
2080FF20FF208020FF208080FF00
0000FF20FF308080FF40F060FF00
0000FF20FFFFFFFFFFFFFFFFA000
0000FF200020202020202030C000
0000FF2020FFFFFFFFFFFFFFFF00
0000FF2020FFFFFFFFFFFFFFFF00
0000FF2020FF202020202040FF00
0000FF2020FFFFFFFFFFFFFFC000
0000100000101010101010100000
ENDCHAR
STARTCHAR  50EC
ENCODING  20716
SWIDTH  1000 0
DWIDTH  14 0
BBX  14 12 0 -2
BITMAP
0000001000000000100000000000
000060E000C06040C00000000000
0060FF4060FFFFFFFFFFFFFFFF40
40FFFF60FFFF1010FF3010101000
0030FF60A0FFFFFFFFFFFFFFE000
0000FF2020FF2020FF3020201000
0000FF2020FFFFFFFFFFFFFFE000
0000FF2020FF2020FF3020202000
0000FF2020FFFFFFFFFFFFFFFF40
0000FF2010802020203020203000
0000FF2080E040A060E010C0C000
0000F030C02000A010C04020C020
ENDCHAR
STARTCHAR  50ED
ENCODING  20717
SWIDTH  1000 0
DWIDTH  14 0
BBX  14 12 0 -3
BITMAP
0000004010202020002020202000
0000A0E0E0FFFFFF30FFFFFFFF00
10C0FF2080A0A0203080C0802000
30A0FF20FFFFFFFFA0FFFFFFFF20
0000FF2080E0E0A030A0C0FF2000
0000FF40E030F0C080E020FFFF00
0000FF2010203020202020606000
0000FF2080FFFFFFFFFFFFFF8000
0000FF2080FFFFFFFFFFFFFF8000
0000FF2080A02020202020A08000
0000FF2080FFFFFFFFFFFFFF4000
0000100010101010101010100000
ENDCHAR
STARTCHAR  50EE
ENCODING  20718
SWIDTH  1000 0
DWIDTH  14 0
BBX  13 12 0 -3
BITMAP
0000608020202040A020202010
0020F080FFFFFFFFFFFFFFFF80
10E0FF202040E0202020F04020
40C0FF40FFFFFFFFFFFFFFFFFF
0000FF2020FFFFFFFFFFFFFF20
0000FF2020FF3040FF3030FF20
0000FF2020FFFFFFFFFFFFFF20
0000FF2020FFFFFFFFFFFFE000
0000FF2020303040FF30302000
0000FF20FFFFFFFFFFFFFFFF60
0000FF40FFFFFFFFFFFFFFFFFF
00000000101010101010101010
ENDCHAR
STARTCHAR  50F3
ENCODING  20723
SWIDTH  1000 0
DWIDTH  14 0
BBX  13 11 0 -2
BITMAP
00001060202020202020202010
0030E0C0FFFFFFFFFFFFFFFF60
40F0FF20FFFFFFFFFFFFFFE010
0010FF20FF3030FF10FF30FF20
0000FF20FF3030FF20FF30FF20
0000FF20FFFFFFFFFFFFFFC000
0000FF2040C02010E000606000
0000FF2030E0E030FF20E04010
0000FF20FFFFFFFFFFFFFFFFC0
0000FF2060FFA020FF10E08000
0000FF20C0400010F00020A020
ENDCHAR
STARTCHAR  50F5
ENCODING  20725
SWIDTH  1000 0
DWIDTH  14 0
BBX  13 12 0 -3
BITMAP
000040A0FFFFFFFFFFFFFFFFC0
0030F06000000000000000A000
20E0FF00FFFFFFFFFFFFFFFF00
40A0FF00FFE0E0E0FFE0E0FF00
0020FF00FFFFFFFFFFFFFFC000
0020FFA0FFFFFFFFFFFFFFFFFF
0020FF0000000000000000A000
0020FF00FFFFFFFFFFFFFFFF00
0020FF00FFE0E0E0FFE0E0FF00
0020FF00FFFFFFFFFFFFFFC000
0020FFA0FFFFFFFFFFFFFFFFFF
00000000000000000000000000
ENDCHAR
STARTCHAR  50FB
ENCODING  20731
SWIDTH  1000 0
DWIDTH  14 0
BBX  14 12 0 -3
BITMAP
0000306020202040100060200000
0010E080FFFFFFFF60FFFFFFFF00
10C0FF10FF2000FF206020404000
40E0FF20FF3020FF20E060A08000
0010FF20FFFFFFC0108080F06000
0000FF20FF302080C0FFFFFFFF00
0000FF30FFFFFFFF1000A0800000
0000FF40F0FF20FF2020A0802000
0000FF60E0FF20FF40FFFFFFFF10
0000FF80A0FF30FF1000A0800000
0000FFA080FFFFC00000A0800000
0000100000100000000000000000
ENDCHAR
STARTCHAR  5106
ENCODING  20742
SWIDTH  1000 0
DWIDTH  14 0
BBX  14 12 0 -3
BITMAP
0000408010A010A00040C0000000
0020E060E0FFE0FFE080FFF0F010
20E0FF1040FF40FF30E06040FF00
1060FF10A010000020800020FF00
0000FF60FFFFFFFFFF608040E000
0000FF8080204030FF40F0A0A000
0000FF10FFFFFF30FF00C0FF4000
0000FF10FF30FF30FF0060FF1000
0000FF10FF30FF30FF00C0FF6000
0000FF10FFFFE030FF40F080E000
0000FF100000E0FFA0C08000C010
0000000000000000001000000000
ENDCHAR
STARTCHAR  5107
ENCODING  20743
SWIDTH  1000 0
DWIDTH  14 0
BBX  13 12 0 -3
BITMAP
000020C0FFFFFFFFFFFFFFF020
0030E080FF3030FF20FF30FF20
40F0FF20FFFFFFFFFFFFFFE000
2080FF20303030303030302020
0000FF40FFFFFFFFFFFFFFFFFF
0000FF20FFFFFFFFFFFFFFFF20
0000FF20FF302020202020FF20
0000FF20FFFFFFFFFFFFFFC000
0000FF202080FF6010F060A060
0000FF60FFC0FF606040FFE020
0000FF3060E0F0C0600040F040
00004010103000000000002000
ENDCHAR
STARTCHAR  510B
ENCODING  20747
SWIDTH  1000 0
DWIDTH  14 0
BBX  13 12 0 -3
BITMAP
00003080308020101020202000
0030E080E0FFFFFFFFFFFFFF00
40F0FF80FFFFFFFFFFFFFFFF80
1040FF20FF30C0A04040C0A010
0000FF20FF40FF40A08060F000
0000FF20FFF0F0F0F0F0F0F060
0000FF20FF20FFFFFFFFFFFF10
0000FF20FF10FFFFFFFFFFFF20
0000FF30FF20FFFFFFFFFFFF20
0000FF80E020FF40404040FF10
0000FFE06020FFFFFFFFFFC000
00001030000000000000000000
ENDCHAR
STARTCHAR  5112
ENCODING  20754
SWIDTH  1000 0
DWIDTH  14 0
BBX  14 13 0 -3
BITMAP
0000000000000000000000000000
00003080FFFFFFFFFFFFFFFF3000
0020E08030303030FF4030304000
20E0FF10FFFFFFFFFFFFFFFFFF10
10A0FF10FF40C080FFA0C020FF10
0010FF10FF20C080FF80C010FF10
0010FF104020F0A0FFC0F0104000
0010FF10FFFFFFFFFFFFFFFFFF00
0010FF10202020A0A0202030A000
0010FF10FFFFFFFFFFFFFFFFFF00
0010FF10FF2020FF00FF2030FF00
0010FF10FF2010FF00FF10E0A000
0000000010000000000000000000
ENDCHAR
STARTCHAR  5121
ENCODING  20769
SWIDTH  1000 0
DWIDTH  14 0
BBX  13 12 0 -3
BITMAP
000020A000101010101020A000
0020E08020FFFFFFFFFFFFFF00
30F0FF2020FFFFFFFFFFFFFF00
0030FF2020FF0020FF0020FF00
0000FF2020FFFFFFFFFFFFC000
0000FF20203040A020303020A0
0000FF30FFFFFFFF20FFFFFFFF
0000FF30FFFF40FF20FFFF40FF
0000FF30FFFFFFFF20FFFFFFFF
0000FF30FFFF40FF20FFFF40FF
0000FF30FFFFFFC020FFFFFFC0
00001000101000000010100000
ENDCHAR
STARTCHAR  513F
ENCODING  20799
SWIDTH  1000 0
DWIDTH  14 0
BBX  14 12 0 -3
BITMAP
00000000C010000010C000000000
00000000FF20000020FF00000000
00000000FF20000020FF00000000
00000000FF20000020FF00000000
00000010FF10000020FF00000000
00000040F000000020FF00000000
00000080A000000020FF00000000
000010F04000000020FF00000000
0000A0C00000000020FF00008010
0080E0200000000020FF1010FF20
00C030000000000020FFFFFFC000
0000000000000000001010000000
ENDCHAR
STARTCHAR  5140
ENCODING  20800
SWIDTH  1000 0
DWIDTH  14 0
BBX  14 12 0 -3
BITMAP
30FFFFFFFFFFFFFFFFFFFFFFFF30
00202020FF302020FF3020202000
00000000FF200000FF2000000000
00000000FF200000FF2000000000
00000010FF100000FF2000000000
00000040E0000000FF2000000000
000000A080000000FF2000000000
000020FF20000000FF2000000000
0000C0A000000000FF2000008010
00A0E01000000000FF201010FF10
00C0200000000000FFFFFFFFC000
0000000000000000101010100000
ENDCHAR
STARTCHAR  5141
ENCODING  20801
SWIDTH  1000 0
DWIDTH  14 0
BBX  14 12 0 -3
BITMAP
0000000030600000000000000000
00000030F0600000000000000000
000020E0800000000020F0400000
0020E080000000102030C0E01000
00C0FFE0E0F0FFFFFFF0E0E0C000
00406040FF402010FF2000106000
00000010FF100000FF2000000000
00000080C0000000FF2000000000
000030F040000000FF2000000000
0060F06000000000FF301030FF00
00C0400000000000FFFFFFFFC000
0000000000000000101010000000
ENDCHAR
STARTCHAR  5143
ENCODING  20803
SWIDTH  1000 0
DWIDTH  14 0
BBX  14 11 0 -2
BITMAP
0000101010101010101010100000
0010FFFFFFFFFFFFFFFFFFFF1000
0000000000000000000000000000
0020202020202020202020202000
00FFFFFFFFFFFFFFFFFFFFFFFF00
00000000FF20000020FF00000000
00000030F000000020FF00000000
000000A0A000000020FF00000000
000080E01000000020FF00004010
10A0E0300000000020FF1010FF20
20C020000000000020FFFFFFC000
ENDCHAR
STARTCHAR  5144
ENCODING  20804
SWIDTH  1000 0
DWIDTH  14 0
BBX  14 12 0 -3
BITMAP
0000202020202020202020400000
0000FFFFFFFFFFFFFFFFFFFF0000
0000FF2000000000000020FF0000
0000FF2000000000000020FF0000
0000FF2000000000000020FF0000
0000FFFFFFFFFFFFFFFFFFC00000
00002020FF302020FF3010000000
00000040E0000000FF2000000000
000020E060000000FF2000003000
0060F08000000000FF302030FF00
00E0600000000000FFFFFFFFA000
0000000000000000000000000000
ENDCHAR
STARTCHAR  5145
ENCODING  20805
SWIDTH  1000 0
DWIDTH  14 0
BBX  12 13 1 -3
BITMAP
000000000000200000000000
000000000030E01000000000
C0FFFFFFFFFFFFFFFFFFFFFF
10202060F030202020202020
000020F06000000000A04000
0000E0A02040606080C0E010
0040FFFFFFF0E0E0FFA0E080
00103040FF000020FF002010
00000080C0000020FF000000
000060F020000020FF000000
10A0F04000000020FF2030FF
60C0300000000020FFFFFFA0
000000000000000000000000
ENDCHAR
STARTCHAR  5146
ENCODING  20806
SWIDTH  1000 0
DWIDTH  14 0
BBX  13 12 1 -3
BITMAP
00000010E0000010E000000000
10600020FF000020FF00402000
20E08020FF000020FF10E03000
0030F040FF000020FF80800000
00002020FF000020FF10000000
000040C0FF000020FF80100000
40E0F0E0C0000020FFC0E02000
406020E040000020FF00601000
0010C0A000000020FF00004000
30E0C00000000020FF2020FF10
8080000000000020FFFFFFE000
00000000000000000000000000
ENDCHAR
STARTCHAR  5148
ENCODING  20808
SWIDTH  1000 0
DWIDTH  14 0
BBX  14 12 0 -3
BITMAP
00003060000010A0000000000000
0000A080202030FF202020200000
0040FFFFFFFFFFFFFFFFFFFF3000
00E06000000010FF000000000000
00200000000010FF000000000000
00FFFFFFFFFFFFFFFFFFFFFFFF30
00202020FF30202020FF30202000
00000040E000000000FF20000000
000030F06000000000FF20001000
10A0F0600000000000FF3010FF20
20A030000000000000FFFFFFC000
0000000000000000001010000000
ENDCHAR
STARTCHAR  5149
ENCODING  20809
SWIDTH  1000 0
DWIDTH  14 0
BBX  13 12 0 -3
BITMAP
000000000000A0100000000000
0040A0000000FF20000020A000
0020E0C01000FF200020E08000
000010A0A000FF2000C0800000
102020202020FF302020202020
A0FFFFFFFFFFFFFFFFFFFFFFFF
00000020FF00000020FF000000
00000060E000000020FF000000
000020E06000000020FF000030
0060F0800000000020FF2030FF
30E060000000000020FFFFFFA0
00000000000000000000000000
ENDCHAR
STARTCHAR  514B
ENCODING  20811
SWIDTH  1000 0
DWIDTH  14 0
BBX  14 13 0 -3
BITMAP
0000000000000010000000000000
00000000000020FF000000000000
00F0FFFFFFFFFFFFFFFFFFFFFF00
00102020202030FF202040202000
000020FFFFFFFFFFFFFFFF200000
000020FF202020202020FF200000
000020FF000000000000FF200000
000020FFFFFFFFFFFFFFE0000000
0000001060F03010FF3000000000
00000060F0600000FF2000006010
0060C0E040000000FF301010FF20
00E0801000000000FFFFFFFFC000
0000000000000000101010000000
ENDCHAR
STARTCHAR  514D
ENCODING  20813
SWIDTH  1000 0
DWIDTH  14 0
BBX  13 12 0 -2
BITMAP
00000000000000000000000000
000010E0400000000000000000
0010C0FFFFFFFFFFFFFFFF3000
10C0C0202020202030E0A06010
1080FFFFFFFFFFFFFFFFFFFF20
0000FF30202030FF202020FF20
0000FF20000020FF000000FF10
0000FFFFFFFFFFFFFFFFFFE000
0000202030E0E0304020200000
00000030E0E02020FF00000000
0040A0F080000020FF101030F0
00C0802000000020FFFFFFFFA0
ENDCHAR
STARTCHAR  5151
ENCODING  20817
SWIDTH  1000 0
DWIDTH  14 0
BBX  12 12 1 -3
BITMAP
000060100000000000600000
0000A0A00000000080A00000
002040E020202020F060A010
00FFFFFFFFFFFFFFFFFFFF10
00FF2000000000000010FF10
00FF3020202020202020FF10
00FFFFFFFFFFFFFFFFFFC000
000010FF10000020FF000000
0000A0C000000020FF000000
40C0E02000000020FF2030FF
C080000000000020FFFFFFA0
000000000000000000000000
ENDCHAR
STARTCHAR  5154
ENCODING  20820
SWIDTH  1000 0
DWIDTH  14 0
BBX  13 13 1 -3
BITMAP
00000000000000000000000000
000000A0600000000000000000
0000A0FFFFFFFFFFFFFF800000
10C0E04030303080FFC0304000
40C0FFFFFFFFFFFFFFFFFFFF00
0010FF000000FF20000020FF00
0010FF000010FF10000020FF00
0010FFFFFFFFFFFFFFFFFFC000
0000202060F040802020200000
00000080F06000FF2040F04000
0060E0E0400000FF30108060C0
20E06000000000FFFFFFFFFFA0
00000000000000000000000000
ENDCHAR
STARTCHAR  5155
ENCODING  20821
SWIDTH  1000 0
DWIDTH  14 0
BBX  14 12 0 -3
BITMAP
0000202020200000202020300000
0020FFFFFFFF1020FFFFFFFF2000
0020FF0010FF2040FF0000FF2000
0020FF0010FFFFFFFF0000FF2000
0020FF0000000000000000FF2000
0020FF2020202020202020FF1000
0020FFFFFFFFFFFFFFFFFFC00000
0000000020FF0000FF2000000000
00000010A0C00000FF2000008010
003080F0C0100000FF302020FF10
00E0A04000000000FFFFFFFFC000
0000000000000000000000000000
ENDCHAR
STARTCHAR  5156
ENCODING  20822
SWIDTH  1000 0
DWIDTH  14 0
BBX  13 13 1 -3
BITMAP
00000000000000000000000000
0000000000A040000000000000
FFFFFFFFFFFFFFFFFFFFFFFF00
2020A0402020202030A0202000
00A0E0302000000020E0A00000
80E020A0E0000030A020E0A000
1020A0E020001040F0E0201000
0060FFF0F0FFFFFFE0E0A00000
00304060FF2000FF2000000000
000010C0A00000FF2000000000
1060E0C0100000FF201020E000
80C06000000000FFFFFFFFC000
00000000000000101010100000
ENDCHAR
STARTCHAR  515A
ENCODING  20826
SWIDTH  1000 0
DWIDTH  14 0
BBX  13 12 1 -3
BITMAP
000080000010E0000010800000
0000E0800020FF0030E0A00000
10A0E0FFA0A0FFA0F0FFC0C000
20FF8080808080808080A0F000
20FF2020202020202020F0F000
0000FFFFFFFFFFFFFFFFFF0000
0000FF30202020202030FF0000
0000FFFFFFFFFFFFFFF0800000
00000060FF6000FF2000000000
1060C0F0600000FF200000FF20
60E08020000000FFFFFFFFE000
00000000000000202020100000
ENDCHAR
STARTCHAR  515C
ENCODING  20828
SWIDTH  1000 0
DWIDTH  14 0
BBX  13 12 1 -3
BITMAP
00103020003060000010201000
10FFC040FFFFFFFFE080FFFF00
10FF1010FF202030FF0020FF00
10FF1010FF202030FF0020FF00
10FF1010FFFFFFFFFF0020FF00
10FF1010FF202030FF0020FF00
20FFE060FFFFFFFFA01030FF00
A0C0600020A000C01060FFA000
00000010C0A000FF2000000000
1040A0F0A01000FF301010FF10
80E0A030000000FFFFFFFFC000
00000000000000101010000000
ENDCHAR
STARTCHAR  5162
ENCODING  20834
SWIDTH  1000 0
DWIDTH  14 0
BBX  14 13 0 -3
BITMAP
0000000010000000000010000000
00000020FF0000000020FF000000
00A0FFFFFFFFFFA0FFFFFFFFFF00
00102030FF2040102030FF402000
0020FFFFFFFFFF20FFFFFFFF2000
0020FF202030FF20FF2020FF2000
0020FF000020FF20FF0000FF1000
0020FFFFFFFFA020FFFFFFE00000
0000E0E0FF20000060E0FF200000
0010FF80FF206000C080FF200000
00A0F020FFF0E080E010FF30FF10
00C04010E04000A03000FFFFC000
0000000000000000000000000000
ENDCHAR
STARTCHAR  5165
ENCODING  20837
SWIDTH  1000 0
DWIDTH  14 0
BBX  13 11 1 -2
BITMAP
00000000602000000000000000
0000000080E000000000000000
0000000000E080000000000000
000000000030FF400000000000
000000000080F0E01000000000
0000000030F040A0A000000000
00000010E0800010E060000000
000010E0A000000040F0200000
0020E0A0000000000080C00000
60F08000000000000000E08000
6040000000000000000030A000
ENDCHAR
STARTCHAR  5168
ENCODING  20840
SWIDTH  1000 0
DWIDTH  14 0
BBX  13 12 1 -2
BITMAP
00000000000000000000000000
0000E060FFFFFFFFFFFFA00000
00A0E010202020202020F04000
80E0200000000000000060E000
4030202020202020202020E040
0060FFFFFFFFFFFFFFFFFF1000
000000000020FF000000000000
00E0FFFFFFFFFFFFFFFFFF0000
001010101030FF101010100000
000000000020FF000000000000
102020202030FF202020202000
A0FFFFFFFFFFFFFFFFFFFFFF00
ENDCHAR
STARTCHAR  516B
ENCODING  20843
SWIDTH  1000 0
DWIDTH  14 0
BBX  14 12 0 -3
BITMAP
00000000C010000010C000000000
00000000FF20000020FF00000000
00000000FF20000020FF00000000
00000000FF20000020FF00000000
00000000FF10000010FF00000000
00000020FF00000000FF20000000
00000060C000000000C060000000
000000E0600000000060E0000000
000080E0000000000000E0800000
0060F03000000000000030F06000
00C040000000000000000040C000
0000000000000000000000000000
ENDCHAR
STARTCHAR  516C
ENCODING  20844
SWIDTH  1000 0
DWIDTH  14 0
BBX  14 12 0 -2
BITMAP
0000001000000000000000000000
000000E080FFFFFFFFFFF0200000
000080E0102020202020A0C00000
0020F04000000000000010F06000
10E080000030400000000060E010
1080000000E08000000000006010
0000000080E00000000000000000
00000040F0200000002020000000
000010E0600000000080C0000000
0000A0A0000020406080FF600000
0030FFE0E0FFFFE0C0A0A0E01000
0020806040200000000000600000
ENDCHAR
STARTCHAR  516D
ENCODING  20845
SWIDTH  1000 0
DWIDTH  14 0
BBX  14 11 0 -2
BITMAP
000000000020A000000000000000
000000000010E0A0000000000000
0010101010102080101010101000
20FFFFFFFFFFFFFFFFFFFFFFFF20
0010101010101010101010101000
00000000C030000010E020000000
00000060E000000000A0A0000000
000010F0600000000020F0300000
0000C0A000000000000080C00000
0080E01000000000000010E06000
10C020000000000000000060A000
ENDCHAR
STARTCHAR  516E
ENCODING  20846
SWIDTH  1000 0
DWIDTH  14 0
BBX  14 12 0 -2
BITMAP
0000000000000000000000000000
000020E040FFFFFFFFFFFF600000
0000C08000202020202060F03000
10C0C0000000000000000080E010
008010A0FFFFFFFFFFFFFF006000
00000010C0A02020202020000000
00000040F0100000000000000000
000000E0A02020202020A0100000
000010FFFFFFFFFFFFFFFF200000
00000000000000000000FF200000
00000000000020202020FF100000
000000000040FFFFFFFFC0000000
ENDCHAR
STARTCHAR  5170
ENCODING  20848
SWIDTH  1000 0
DWIDTH  14 0
BBX  13 11 0 -2
BITMAP
00000030000000000030000000
000010F06000000080E0000000
00202060FF202040FF40202000
00FFFFFFFFFFFFFFFFFFFFFF10
00000000000000000000000000
00000000000000000000000000
0000A0FFFFFFFFFFFFFFFF0000
00001020202020202020200000
00000000000000000000000000
00202020202020202020202020
20FFFFFFFFFFFFFFFFFFFFFFFF
ENDCHAR
STARTCHAR  5171
ENCODING  20849
SWIDTH  1000 0
DWIDTH  14 0
BBX  13 11 0 -2
BITMAP
00000000E010000010E0000000
00000010FF10000020FF000000
00A0FFFFFFFFFFFFFFFFFFFF00
00102020FF30202030FF202000
00000010FF10000020FF000000
00000010FF10000020FF000000
10FFFFFFFFFFFFFFFFFFFFFFFF
002020606020202020A0402020
000060F06000000000A0E02000
0080F040000000000000A0E030
00802000000000000000008030
ENDCHAR
STARTCHAR  5173
ENCODING  20851
SWIDTH  1000 0
DWIDTH  14 0
BBX  14 12 0 -3
BITMAP
0000006080000000000060800000
00000030F04000000030F0400000
0000FFFFFFFFFFFFFFFFFFFFE000
00002020202030FF202020202000
00000000000020FF000000000000
00202020202040F0202020202000
20FFFFFFFFFFFFFFFFFFFFFFFF20
000000000060F020401000000000
0000001080F03000A0F060000000
001060E0E03000000040E0C02000
00C0E0600000000000000080E000
0010000000000000000000001000
ENDCHAR
STARTCHAR  5174
ENCODING  20852
SWIDTH  1000 0
DWIDTH  14 0
BBX  13 11 1 -2
BITMAP
00000010C01000000000300000
00E03000C08000000060E00000
0080C00030F0200020F0400000
0010E06000804000C0A0000000
00004040000000006010000000
FFFFFFFFFFFFFFFFFFFFFFFF10
20202060202020206030202000
000080E010000000A0C0000000
0060F0300000000010E0A00000
80F03000000000000020F06000
40200000000000000000403000
ENDCHAR
STARTCHAR  5175
ENCODING  20853
SWIDTH  1000 0
DWIDTH  14 0
BBX  14 12 0 -3
BITMAP
0000002020202020202040801000
000020FFFFFFFFFFFFFFE0A02000
000020FF00000000000000000000
000020FFFFFFFFFFFFFFFFFFE000
000020FF2020202020FF30201000
000020FF0000000000FF20000000
002030FF2020202020FF30202000
20FFFFFFFFFFFFFFFFFFFFFFFF20
0000006040000000006040000000
001080F0400000000060F0801000
00C0C02000000000000020C0C000
0020000000000000000000002000
ENDCHAR
STARTCHAR  5176
ENCODING  20854
SWIDTH  1000 0
DWIDTH  14 0
BBX  14 12 0 -3
BITMAP
000020F0000000000000F0200000
0060FFFFFFFFFFFFFFFFFFFFFF00
000030FF101010101010FF301000
000020FFFFFFFFFFFFFFFF200000
000020FF202020202020FF200000
000020FFFFFFFFFFFFFFFF200000
000020FF202020202020FF200000
20FFFFFFFFFFFFFFFFFFFFFFFF40
00202040C0202020206060202000
0020A0F0800000000040E0E06000
00A0A0200000000000000060C010
0000000000000000000000000000
ENDCHAR
STARTCHAR  5177
ENCODING  20855
SWIDTH  1000 0
DWIDTH  14 0
BBX  14 13 0 -3
BITMAP
0000000000000000000000400000
0000202020202020202030FF0000
0000FFFFFFFFFFFFFFFFFFFF0000
0000FFFFFFFFFFFFFFFFFFFF0000
0000FF3020202020202030FF0000
0000FFFFFFFFFFFFFFFFFFFF0000
0000FF3020202020202030FF0000
0000FFFFFFFFFFFFFFFFFFFF0000
20C0FFF0E0E0E0E0E0E0F0FFC020
20FFFFFFFFFFFFFFFFFFFFFFFF20
0020A0FF602020202040F0C02000
00A0E04000000000000020C08000
0010000000000000000000001000
ENDCHAR
STARTCHAR  5178
ENCODING  20856
SWIDTH  1000 0
DWIDTH  14 0
BBX  13 11 1 -2
BITMAP
00000020F00000F02000000000
20FFFFFFFFFFFFFFFFFFF02000
20FF2030FF2020FF3020FF2000
20FF0020FF0000FF2000FF2000
20FFFFFFFFFFFFFFFFFFFF2000
20FF2030FF2020FF3020FF2000
20FF0020FF0000FF2000FF2000
FFFFFFFFFFFFFFFFFFFFFFFF10
202080E020202020E080202000
40C0E0400000000040E0C02000
60801000000000000010802000
ENDCHAR
STARTCHAR  5179
ENCODING  20857
SWIDTH  1000 0
DWIDTH  14 0
BBX  14 12 0 -3
BITMAP
0000004060000000004080000000
00202060F030202020E080202000
10FFFFFFFFFFFFFFFFFFFFFFFF20
000000E06000000020F040000000
000080E000000000A0A000000000
0010F04020E02040F01040E00000
0060FFF0FFA000A0FFFFFF600000
002030C0E000003040E0A0000000
000060F020604000A0E000802000
0020F0A080E0A060FF80A0F08000
0060E0C0A080E0A0E0C080A0A000
0000000000000000000000000000
ENDCHAR
STARTCHAR  517B
ENCODING  20859
SWIDTH  1000 0
DWIDTH  14 0
BBX  14 13 0 -3
BITMAP
0000000000000000000000000000
000000C04000000000A080000000
0060FFFFFFFFFFFFFFFFFFFFFF00
000020202020FF30202020202000
0000E0FFFFFFFFFFFFFFFFFF0000
0010303030A0C030303030301000
10FFFFFFFFFFFFFFFFFFFFFFFF20
001040C0E030101020A0F0A01000
00C0FFA0C010000000A030A0E020
00401020FF10000000FF20003000
000040E0A000000000FF20000000
0000C0800000000000FF20000000
0000000000000000001000000000
ENDCHAR
STARTCHAR  517C
ENCODING  20860
SWIDTH  1000 0
DWIDTH  14 0
BBX  14 12 0 -2
BITMAP
0000000000000000000000000000
00000080A000000000A080000000
20FFFFFFFFFFFFFFFFFFFFFFFF40
0020202030FF2020FF3020402000
0010FFFFFFFFFFFFFFFFFFFF2000
0000202040FF2020FF4020FF2000
00E0FFFFFFFFFFFFFFFFFFFFFF00
0010303040FF3030FF4030FF3000
0010FFFFFFFFFFFFFFFFFFC00000
000080E040FF0000FF30F0400000
00A0E02020FF0000FF2060F04000
0080100010E00000E01000604000
ENDCHAR
STARTCHAR  517D
ENCODING  20861
SWIDTH  1000 0
DWIDTH  14 0
BBX  13 13 1 -3
BITMAP
00000010000000000010000000
0000A0A00000000060C0300000
00FFFFFFFFFFFFFFFFFFFF2000
00FF30202030FF202020FF2000
00FFFFFFFFFFFFFFFFFFFF2000
00FF30202030FF202020FF1000
00FFFFFFFFFFFFFFFFFFE00000
20303030303030303030202010
FFFFFFFFFFFFFFFFFFFFFFFF80
00FFFFFFFFFFFFFFFFFFFF2000
00FF4030303030303030FF2000
00FFFFFFFFFFFFFFFFFFC00000
00000000000000000000000000
ENDCHAR
STARTCHAR  5180
ENCODING  20864
SWIDTH  1000 0
DWIDTH  14 0
BBX  13 13 1 -3
BITMAP
00000000300000300000000000
80FFFFFFFF0000FFE0E0F0A000
4080A0C0FF0000FF6040301000
80F0E0C0FF0000FFFFFFFFE000
00FFFFFFFFFFFFFFFFFFFF1000
00FF40303040FF303040FF0000
00FFFFFFFFFFFFFFFFFFFF0000
00FFFFFFFFFFFFFFFFFFA00000
00FFFFC0FFFFFFFFC0FFFFC000
204040FF40404040FF40403000
FFFFFFFFFFFFFFFFFFFFFFFF00
60FFE0400000000010A0F06000
20300000000000000000200000
ENDCHAR
STARTCHAR  5181
ENCODING  20865
SWIDTH  1000 0
DWIDTH  14 0
BBX  14 12 0 -3
BITMAP
0040300060200020202020206010
0080E040F03020FFFFFFFFFFFF20
20FFFFFFFFFF20FF20202020FF20
20FF10FF10FF20FFFFFFFFFFE000
20FFF0FFF0FF20FF30FF20FF3000
20FF40FF40FF20FFFFFFFFFFFF30
20FF20FF20FF20FF30FF20FF3000
20FFFFFFFFC030FFFFFFFFFFFF40
103040FF302040E0FF2080A06000
40FFFFFFFFFF80A0FF4030E0C000
000010FF1000E060F0C04030C000
0000001000002000000000000000
ENDCHAR
STARTCHAR  5182
ENCODING  20866
SWIDTH  1000 0
DWIDTH  14 0
BBX  10 11 2 -2
BITMAP
10101010101010102040
FFFFFFFFFFFFFFFFFFFF
FF2010101010101020FF
FF2000000000000020FF
FF2000000000000020FF
FF2000000000000020FF
FF2000000000000020FF
FF2000000000000020FF
FF2000000000000020FF
FF2000000000102030FF
F0200000000060FFFFA0
ENDCHAR
STARTCHAR  5185
ENCODING  20869
SWIDTH  1000 0
DWIDTH  14 0
BBX  12 11 1 -2
BITMAP
0000000000E0100000000000
2020202020FF30202020A010
FFFFFFFFFFFFFFFFFFFFFF10
FF20000010FF10000000FF10
FF20000080C010000000FF10
FF200020F040E0400000FF10
FF2010E0800060F02000FF10
FF40E0A000000080E010FF10
FF608000000000008020FF10
FF200000000000002020FF10
FF20000000000040FFFFC000
ENDCHAR
STARTCHAR  5188
ENCODING  20872
SWIDTH  1000 0
DWIDTH  14 0
BBX  12 12 1 -3
BITMAP
20202020202020202020A010
FFFFFFFFFFFFFFFFFFFFFF20
FF200000000000100000FF20
FF208080000000C06000FF20
FF2020E08000A0E01000FF20
FF200020E0E0E0200000FF20
FF200000A0FFA0000000FF20
FF2010A0E030E0A00000FF20
FF20E0A0100010E0A000FF20
FF202000000000102010FF20
FF200000000000E0FFFFE000
100000000000001010100000
ENDCHAR
STARTCHAR  5189
ENCODING  20873
SWIDTH  1000 0
DWIDTH  14 0
BBX  14 13 0 -3
BITMAP
0000000000004000000000000000
000000000000FF20000000000000
0000FFFFFFFFFFFFFFFFFFF00000
0000FF302020FF30202030FF0000
0000FF200000FF20000020FF0000
0000FFFFFFFFFFFFFFFFFFFF0000
0000FF302020FF30202030FF0000
0000FF200000FF20000020FF0000
40FFFFFFFFFFFFFFFFFFFFFFFF30
0020FF3020202020202030FF2000
0000FF2000000000001020FF0000
0000FF2000000000A0FFFFA00000
0000100000000000101010000000
ENDCHAR
STARTCHAR  518C
ENCODING  20876
SWIDTH  1000 0
DWIDTH  14 0
BBX  14 12 0 -3
BITMAP
0000202020C01000202020C00000
0000FFFFFFFF1010FFFFFFFF0000
0000FF2000FF1010FF1010FF0000
0000FF2000FF1010FF1010FF0000
0020FF3020FF3030FF2030FF2000
40FFFFFFFFFFFFFFFFFFFFFFFF40
0000FF2000FF1020FF0010FF0000
0020F00000FF1040F00010FF0000
0060C00000FF1080C00010FF0000
00A0600020FF10E0600030FF0000
00A01010FFC020C00030FFC00000
0000000000000000000000000000
ENDCHAR
STARTCHAR  518D
ENCODING  20877
SWIDTH  1000 0
DWIDTH  14 0
BBX  13 12 1 -3
BITMAP
A0FFFFFFFFFFFFFFFFFFFFFF00
102020202030FF202020202000
00FFFFFFFFFFFFFFFFFFF02000
00FF30202030FF202020FF2000
00FF30202030FF202020FF2000
00FFFFFFFFFFFFFFFFFFFF2000
00FF20000020FF000000FF2000
20FF30202030FF202020FF3010
FFFFFFFFFFFFFFFFFFFFFFFFA0
00FF2000000000001010FF2000
00FF200000000040FFFFE00000
00000000000000000000000000
ENDCHAR
STARTCHAR  5192
ENCODING  20882
SWIDTH  1000 0
DWIDTH  14 0
BBX  12 12 1 -3
BITMAP
101010101010101010102080
FFFFFFFFFFFFFFFFFFFFFFFF
FF20FFFFFFFFFFFFFFA010FF
FF20303030303030302010FF
E010FFFFFFFFFFFFFFA010E0
00202020202020202020C010
20FFFFFFFFFFFFFFFFFFFF10
20FFFFFFFFFFFFFFFFFFFF10
20FFFFFFFFFFFFFFFFFFFF10
20FF3030303030303040FF10
20FFFFFFFFFFFFFFFFFFC000
000000000000000000000000
ENDCHAR
STARTCHAR  5195
ENCODING  20885
SWIDTH  1000 0
DWIDTH  14 0
BBX  13 12 1 -3
BITMAP
20FFFFFFFFFFFFFFFFFFFFC000
20FF203030303030303030FF00
20FF60FFFFFFFFFFFFFF20FF00
20FF60FFFFFFFFFFFFFF20FF00
002040FF603030303020002000
0060F0FFFFFFFFFFFF60101000
80FFFFFFFFFFFFFFFFFFFFE000
10FF302020C0C020202060E000
00FFFFFFFFFFFFFFFFFFFF8000
1060C0FFA02020FF403020C010
80E0A030000000FFFFFFFFE000
00000000000000101010000000
ENDCHAR
STARTCHAR  5196
ENCODING  20886
SWIDTH  1000 0
DWIDTH  14 0
BBX  12 3 1 2
BITMAP
002020202020202020206010
20FFFFFFFFFFFFFFFFFFFF20
20E00000000000000000E020
ENDCHAR
STARTCHAR  5197
ENCODING  20887
SWIDTH  1000 0
DWIDTH  14 0
BBX  12 12 1 -3
BITMAP
202020202020202020206010
FFFFFFFFFFFFFFFFFFFFFF20
FF100000000000300000FF20
E01020FFFFFFFFFF1000E010
000020FF202020FF10000000
000020FF000000FF10000000
000020FF000000FF10000000
000040E0000000FF10000000
0010E060000000FF10001000
40E0A000000000FF3020FF20
A0600000000000FFFFFFC000
000000000000000000000000
ENDCHAR
STARTCHAR  5199
ENCODING  20889
SWIDTH  1000 0
DWIDTH  14 0
BBX  12 12 1 -3
BITMAP
202020202020202020202060
FFFFFFFFFFFFFFFFFFFFFFFF
FF2000A000000000000020FF
A01060FFFFFFFFFFFFFFA0A0
0000A0602020202020201000
0010FF30202020202020C000
0040FFFFFFFFFFFFFFFFFF00
10202020202020202020FF00
E0FFFFFFFFFFFFFFFF20FF00
00000000000000000020FF00
00000000000040FFFFFFC000
000000000000002020100000
ENDCHAR
STARTCHAR  519B
ENCODING  20891
SWIDTH  1000 0
DWIDTH  14 0
BBX  13 11 1 -2
BITMAP
20202020202020202020206000
FFFFFFFFFFFFFFFFFFFFFFFF20
FF20002080000000000000FF20
FFFFFFFFFFFFFFFFFFFFFFFF00
2020A0E0202020202020202000
0010F0600000C0100000000000
0080E0202020FF302020200000
0080FFFFFFFFFFFFFFFFFF2000
101010101010FF301010101010
FFFFFFFFFFFFFFFFFFFFFFFF80
000000000000FF200000000000
ENDCHAR
STARTCHAR  519C
ENCODING  20892
SWIDTH  1000 0
DWIDTH  14 0
BBX  13 12 0 -3
BITMAP
00000000000080100000000000
002020202020FF302020206000
00FFFFFFFFFFFFFFFFFFFFFF20
00FF20000080A000000000FF20
0060100030F020000000006010
00000030E06040C00010A03000
000040F0800010E0A0E0C01000
20A0F0FF20000030FFA0000000
60A020FF2010000060F0300000
000000FFA0F040000080F03000
000060FFA0300000000060E000
00002020000000000000001000
ENDCHAR
STARTCHAR  51A0
ENCODING  20896
SWIDTH  1000 0
DWIDTH  14 0
BBX  14 12 0 -3
BITMAP
0020202020202020202020206010
20FFFFFFFFFFFFFFFFFFFFFFFF20
10E000000000000000000040E020
0040FFFFFFFFFF10202020FF3000
00001010101010A0FFFFFFFFFF00
00E0FFFFFFFFFF00A04000FF1000
0020FF3030FF200060E010FF1000
0000FF1020FF0000004010FF1000
0040F00020FF00000080FFE00000
00C0800020FF202020303030E000
20C0000020FFFFFFFFFFFFFFA000
0000000000000000000000000000
ENDCHAR
STARTCHAR  51A2
ENCODING  20898
SWIDTH  1000 0
DWIDTH  14 0
BBX  14 13 0 -3
BITMAP
0000000000000000000000004000
00FFFFFFFFFFFFFFFFFFFFFFFF00
00FF30202020202020202030FF00
008080FFFFFFFFFFFFFFFF208000
00001030A0FFA020202020000000
001080F0C080F060000010600000
10F0E0604040E0FF1080F0E02000
00200060FFF0A0FFF0F040000000
0060E0F0E06080FF40E080000000
0060601060E0E0FF0030F0600000
0040A0F0E06020FF000030F0A010
00E0A04000A0FFC000000020A010
0000000000101000000000000000
ENDCHAR
STARTCHAR  51A4
ENCODING  20900
SWIDTH  1000 0
DWIDTH  14 0
BBX  14 12 0 -2
BITMAP
0000000000000000000000004000
10FFFFFFFFFFFFFFFFFFFFFFFF20
10FF30202020202020202020FF20
00801020E0402020202020008010
000060F0FFFFFFFFFFFFFF000000
00C0E0FFFFFFFFFFFFFFFFE01000
002020FF202030FF202020FF1000
000020FF202030FF202020FF1000
000020FFFFFFFFFFFFFFFFC00000
0000000020A0E030FF30C0101000
002060A0F0A01020FF20A060FF20
00C0C08020000020FFFFFFFFE000
ENDCHAR
STARTCHAR  51A5
ENCODING  20901
SWIDTH  1000 0
DWIDTH  14 0
BBX  13 12 1 -3
BITMAP
20202020202020202020206000
FFFFFFFFFFFFFFFFFFFFFFFF00
FF30FFFFFFFFFFFFFFFFFFFF00
0020FF40404040404040FF0000
0020FFFFFFFFFFFFFFFFFF0000
0020FFFFFFFFFFFFFFFFC00000
000020202060A0202010000000
202020202060F0202020202000
FFFFFFFFFFFFFFFFFFFFFFFF10
0030A0F06000000040FF800000
A0F0A020000000000040E06000
30100000000000000000100000
ENDCHAR
STARTCHAR  51AB
ENCODING  20907
SWIDTH  1000 0
DWIDTH  14 0
BBX  4 10 5 -2
BITMAP
30300000
80E01000
00A0C000
00106000
00000000
0000A020
0080E000
20F04000
C0A00000
20100000
ENDCHAR
STARTCHAR  51AC
ENCODING  20908
SWIDTH  1000 0
DWIDTH  14 0
BBX  14 12 0 -2
BITMAP
0000000000000000000000000000
000000C040000000000000400000
000080FFFFFFFFFFFFFFFFFF2000
0060F040202020202020A0FF1000
00C040A0A060101060E0C0300000
0000003080F0FFF0FF6000000000
002060A0E0F0A080C0FFE0804000
20F0E08080804020001060A0F020
0000000040A0E0FFF0C020000000
000030A080602010306010000000
00002060A0E0FFF0C0A060100000
00000000000000306080C0300000
ENDCHAR
STARTCHAR  51AF
ENCODING  20911
SWIDTH  1000 0
DWIDTH  14 0
BBX  12 12 1 -3
BITMAP
00100000F0FFFFFFFFFFFF30
80C00000202020202030FF10
10F0600030F000000040F000
0060C00060E000000060E000
0000000080A020202080C060
00000000A0FFFFFFFFFFFFFF
0000C06000000000000020FF
0060F01020202020202020FF
00E06060FFFFFFFFFFFF20FF
60E0000000000000202030FF
8040000000000010FFFFFFA0
000000000000000000000000
ENDCHAR
STARTCHAR  51B0
ENCODING  20912
SWIDTH  1000 0
DWIDTH  14 0
BBX  14 12 0 -3
BITMAP
0000000000000000E01000000000
00A0400000000000FF2000000000
0040F03080FFFF20FF20FF40E010
000080A01020FF20FF20FFF08000
000000000000FF20FF20FFA00000
000000300020FF10FF20FF200000
000010F03060E000FF20E0400000
0000A0A000C06000FF20A0A00000
0030F02060E01000FF2030F01000
00C08040F0401020FF2000A0A000
10E01030400040FFC00000108000
0000000000000000000000000000
ENDCHAR
STARTCHAR  51B1
ENCODING  20913
SWIDTH  1000 0
DWIDTH  14 0
BBX  13 11 0 -2
BITMAP
00600010FFFFFFFFFFFFFFFF60
20F040002020E0602020202010
0080E0000020FF100000000000
0000E0600060E0202020202000
0000201000A0FFFFFFFFFFFF00
0000000000E06000000040F000
0000308010FF3020202080A000
0000C08020FFFFFFFFFFFF6000
0060E010000000000010F01000
10E06010202020202080C02020
208000C0FFFFFFFFFFFFFFFFFF
ENDCHAR
STARTCHAR  51B2
ENCODING  20914
SWIDTH  1000 0
DWIDTH  14 0
BBX  13 11 1 -2
BITMAP
1010000000000010E000000000
80A0000010101020FF101020C0
10E06020FFFFFFFFFFFFFFFFFF
0040F030FF101030FF101030FF
00004020FF000020FF000020FF
00002020FF000020FF000020FF
0000E060FF000020FF000020FF
0080E020FFFFFFFFFFFFFFFFC0
20F0400010101030FF10101000
A0A0000000000020FF00000000
4020000000000020FF00000000
ENDCHAR
STARTCHAR  51B3
ENCODING  20915
SWIDTH  1000 0
DWIDTH  14 0
BBX  14 12 0 -2
BITMAP
0000000000000000300000000000
0060100000000020FF0000000000
00C0800010202030FF2020E01000
0020F030A0FFFFFFFFFFFFFF2000
0000606000000020FF0000FF2000
0000000000000020FF0000FF2000
00000010FFFFFFFFFFFFFFFFFF10
000080C0202040FF606020202000
0010F0400010E0A000A0A0000000
0080C00020E0A0000010E0A00000
10F04020E0A00000000020E08000
1060000040000000000000301000
ENDCHAR
STARTCHAR  51B5
ENCODING  20917
SWIDTH  1000 0
DWIDTH  14 0
BBX  14 12 0 -3
BITMAP
0000000000202020202020204000
0080A00020FFFFFFFFFFFFFFFF00
0010E08020FF000000000020FF00
000030E030FF000000000020FF00
0000000020FF202020202030FF00
0000000020FFFFFFFFFFFFFFA000
00000040100020FF0020FF000000
000030F0300040E00020FF000000
0000E0800010E0800020FF002000
0080E00030E0C0000020FF00FF10
00C03000A08000000020FFFFE000
0000000000000000000010100000
ENDCHAR
STARTCHAR  51B6
ENCODING  20918
SWIDTH  1000 0
DWIDTH  14 0
BBX  14 11 0 -2
BITMAP
0010000000000080000000000000
00A0A0000000A0C0000000100000
0020F0600060E020000040E00000
000040A030F06040608080FF6000
00000000A0FFF0E0C0A0A0A0E000
0000000010000000000000302000
0000003020FFFFFFFFFFFFFF2000
000040F030FF2020202020FF2000
0010E06020FF0000000000FF2000
00A0C00020FF2020202020FF1000
00C0200020FFFFFFFFFFFFC00000
ENDCHAR
STARTCHAR  51B7
ENCODING  20919
SWIDTH  1000 0
DWIDTH  14 0
BBX  14 11 0 -2
BITMAP
0000000000000010202020100000
00A0300000A080FFFFFFFFE01000
0080E01010F04020100000E08000
0000806080C00080E0400040F010
00000030F0300000403000008020
0000000060FFFFFFFFFFFFFF0000
000060A0002020202020E0A00000
0000E0600000000000A0C0000000
0060E0000080E080A0E010000000
00E06000001060A0F0F0A0100000
0060100000000000004080100000
ENDCHAR
ENDFONT
